<?xml version="1.0" encoding="utf-8"?>
<!-- Generator: Adobe Illustrator 28.0.0, SVG Export Plug-In . SVG Version: 6.00 Build 0)  -->
<svg version="1.1" id="Ebene_1" xmlns="http://www.w3.org/2000/svg" xmlns:xlink="http://www.w3.org/1999/xlink" x="0px" y="0px"
	 viewBox="0 0 92 94.9" style="enable-background:new 0 0 92 94.9;" xml:space="preserve">
<g>
	<path d="M29.6,47.4l3-0.3c1.1-0.1,2.1,0.4,2.8,1.2l4,5.6c2.5-3,4.9-6.1,7.3-9.2L44,41.5c-0.7-0.8-0.9-2-0.5-3l1.1-2.9
		c1.7-4.6,0.9-9.7-2.1-13.6l-16-20.6c-1.3-1.7-3.7-1.9-5.4-0.5c-1.5,1.3-1.6,3.7-0.4,5.2l13.2,17c0.9,1.2,0.6,2.9-0.7,3.7
		c-1.1,0.7-2.6,0.3-3.5-0.7l-13.1-17c-1.3-1.7-3.7-1.9-5.4-0.5c-1.5,1.3-1.6,3.7-0.4,5.2l13.2,17c0.9,1.2,0.6,2.9-0.7,3.7
		c-1.1,0.7-2.6,0.3-3.5-0.7L6.8,17c-1.2-1.6-3.5-2.1-5.2-0.9c-1.8,1.2-2.1,3.7-0.8,5.3L16.9,42C19.9,45.9,24.7,47.9,29.6,47.4z"/>
	<path d="M60.3,60.7c-2.3,3.2-5,7.2-7.9,11.3l14.9,20.8c1.6,2.3,4.8,2.7,7,1l4.5-3.5c2.2-1.7,2.5-4.9,0.7-7L60.3,60.7z"/>
	<path d="M88.9,4.8C88,2.5,84.9,2,83.4,4L53.7,42.7c-9.2,12-17.5,22-27.5,33.3l-5.7,7c-1.8,2.2-1.4,5.5,0.9,7.3l4.5,3.4
		c2.4,1.8,5.7,1.2,7.4-1.2c6.4-9.6,21.5-31.8,27.4-39.7l7,4.6c2.8,1.6,6.3,0.7,8-2c3.4-5.6,9.6-17.1,14.1-25.9
		C94,21.4,91.2,10.9,88.9,4.8z"/>
</g>
</svg>
