<?xml version="1.0" encoding="utf-8"?>
<!-- Generator: Adobe Illustrator 28.0.0, SVG Export Plug-In . SVG Version: 6.00 Build 0)  -->
<svg version="1.1" id="Ebene_1" xmlns="http://www.w3.org/2000/svg" xmlns:xlink="http://www.w3.org/1999/xlink" x="0px" y="0px"
	 viewBox="0 0 80.1 48.6" style="enable-background:new 0 0 80.1 48.6;" xml:space="preserve">
<path d="M23.6,22.1l-2.3-5.8c-2.1,0.4-4.2,0.8-6.3,1.2c0.8,2,1.5,3.9,2.3,5.9C19.4,22.9,21.5,22.6,23.6,22.1z"/>
<path d="M62.8,23.4c0.8-2,1.6-3.9,2.3-5.9c-2.1-0.4-4.2-0.8-6.3-1.2l-2.3,5.8C58.6,22.6,60.7,22.9,62.8,23.4z"/>
<path d="M0.1,17l7,17.6c0.1,0.3,0.4,0.5,0.7,0.6H8c0.2,0,0.5-0.1,0.6-0.2c4-3.5,9-4.4,14.3-5.3c4.9-0.9,10-1.8,14.2-5l2,4.8
	l-7.2,17.9c-0.2,0.5,0.1,1,0.5,1.3c0.1,0,0.2,0.1,0.4,0.1c0.4,0,0.8-0.2,0.9-0.6L40,32l6.4,16c0.2,0.4,0.5,0.6,0.9,0.6
	c0.1,0,0.2,0,0.4-0.1c0.5-0.2,0.7-0.8,0.5-1.3l-7.1-17.9l2-4.8c4.2,3.2,9.2,4.1,14.2,5c5.3,1,10.3,1.8,14.3,5.3
	c0.2,0.2,0.4,0.2,0.7,0.2h0.2c0.3-0.1,0.6-0.3,0.7-0.6L80,17c0.1-0.4,0-0.8-0.3-1.1c-4.4-3.8-9.9-4.8-15.2-5.8
	c-5.1-0.9-9.8-1.8-13.7-4.9L51.3,4c0.7-0.1,1.2-0.5,1.5-1.1l0,0c0.4-1-0.1-2.1-1.1-2.5s-2.1,0.1-2.5,1.1c-0.2,0.5-0.2,1,0,1.5
	c0.1,0.1,0.1,0.3,0.2,0.4L40,26.7L30.6,3.2c0.1-0.1,0.2-0.3,0.2-0.4c0.2-0.5,0.2-1,0-1.5c-0.3-1-1.4-1.6-2.4-1.2
	c-1,0.3-1.6,1.4-1.2,2.4c0,0.1,0.1,0.2,0.1,0.3l0,0c0.2,0.5,0.5,0.8,1,1c0.1,0.1,0.3,0.1,0.5,0.1l0.5,1.2c-3.9,3.1-8.7,4-13.7,4.9
	c-5.3,1-10.8,2-15.2,5.8C0,16.1-0.1,16.6,0.1,17z M45.7,17.8c1.4,1.1,3,2,4.7,2.6l2.3-5.8C51,13.9,49.4,13,48,11.9l0,0l2-4.9
	c1.4,1.1,3,1.9,4.7,2.6l-2,5c2,0.7,4,1.3,6.1,1.7c0.7-1.7,1.3-3.3,2-4.9c1.1,0.2,5.3,1,6.3,1.2c-0.7,1.6-1.3,3.3-2,4.9
	c2.1,0.4,4.1,1,6.1,1.7l2-5c1.7,0.6,3.3,1.5,4.7,2.7l-2,4.9c-1.4-1.1-3-2-4.7-2.6l-2.3,5.8c1.7,0.7,3.3,1.5,4.7,2.6l-2,4.9
	c-1.4-1.1-3-1.9-4.7-2.6l2-5c-2-0.7-4-1.3-6.1-1.7c-0.7,1.6-1.3,3.3-2,4.9c-1.1-0.2-5.3-1-6.3-1.2l2-4.9c-2.1-0.4-4.1-1-6.1-1.7
	l-2,5c-1.7-0.6-3.3-1.5-4.7-2.7L45.7,17.8z M6.8,14.2l2,5c2-0.7,4-1.3,6.1-1.7c-0.7-1.6-1.3-3.3-2-4.9c1-0.2,5.2-1,6.3-1.2
	c0.7,1.6,1.3,3.3,2,4.9c2.1-0.4,4.1-1,6.1-1.7l-2-5C27,8.9,28.6,8.1,30.1,7l2,4.9c-1.4,1.1-3,2-4.7,2.6l2.3,5.8
	c1.7-0.7,3.3-1.5,4.7-2.6l2,4.9c-1.4,1.1-3.1,2-4.8,2.7l-2-5c-2,0.8-4,1.3-6.1,1.7l2,4.9c-1,0.2-5.2,1-6.3,1.2
	c-0.6-1.6-1.3-3.3-2-4.9c-2.1,0.4-4.1,1-6.1,1.7l2,5c-1.7,0.6-3.3,1.5-4.7,2.6l-2-4.9c1.4-1.1,3-2,4.7-2.6l-2.3-5.8
	c-1.7,0.7-3.3,1.5-4.7,2.6l-2-4.9C3.5,15.7,5.1,14.9,6.8,14.2z"/>
</svg>
