<?xml version="1.0" encoding="utf-8"?>
<!-- Generator: Adobe Illustrator 28.0.0, SVG Export Plug-In . SVG Version: 6.00 Build 0)  -->
<svg version="1.1"
	 id="Ebene_1" xmlns:cc="http://creativecommons.org/ns#" xmlns:rdf="http://www.w3.org/1999/02/22-rdf-syntax-ns#" xmlns:svg="http://www.w3.org/2000/svg" xmlns:dc="http://purl.org/dc/elements/1.1/"
	 xmlns="http://www.w3.org/2000/svg" xmlns:xlink="http://www.w3.org/1999/xlink" x="0px" y="0px" viewBox="0 0 21.7 21.2"
	 style="enable-background:new 0 0 21.7 21.2;" xml:space="preserve">
<g transform="translate(0,-270.542)">
	<path d="M13.9,270.5c-1,0-1.9,0.8-1.9,1.9c0,1,0.8,1.9,1.9,1.9c1,0,1.9-0.8,1.9-1.9C15.8,271.4,14.9,270.5,13.9,270.5z M10.9,274.2
		c-0.2,0-0.4,0.1-0.5,0.2l-4.7,4.7c-0.3,0.3-0.3,0.8,0,1.1c0,0,0.1,0.1,0.2,0.1l4.3,2.5v5.8c0,0.4,0.3,0.8,0.8,0.8
		c0.4,0,0.8-0.3,0.8-0.8c0,0,0,0,0,0v-6.2c0-0.3-0.1-0.5-0.4-0.7l-3.1-1.8l3.3-3.3l2,2c0.1,0.1,0.3,0.2,0.5,0.2h3.1
		c0.4,0,0.8-0.3,0.8-0.8c0-0.4-0.3-0.8-0.8-0.8c0,0,0,0,0,0h-2.8l-2.9-2.9C11.4,274.2,11.2,274.2,10.9,274.2L10.9,274.2z M4.4,283
		c-2.4,0-4.4,2-4.4,4.4c0,2.4,2,4.4,4.4,4.4c2.4,0,4.4-2,4.4-4.4C8.7,284.9,6.8,283,4.4,283z M17.4,283c-2.4,0-4.4,2-4.4,4.4
		c0,2.4,2,4.4,4.4,4.4s4.4-2,4.4-4.4C21.7,284.9,19.8,283,17.4,283z M4.4,283.9c1.9,0,3.4,1.5,3.4,3.4c0,1.9-1.5,3.4-3.4,3.4
		c-1.9,0-3.4-1.5-3.4-3.4C0.9,285.4,2.5,283.9,4.4,283.9z M17.4,283.9c1.9,0,3.4,1.5,3.4,3.4c0,1.9-1.5,3.4-3.4,3.4
		s-3.4-1.5-3.4-3.4C13.9,285.4,15.5,283.9,17.4,283.9z"/>
</g>
</svg>
