<svg width="720" height="1338" viewBox="0 0 720 1338" fill="none" xmlns="http://www.w3.org/2000/svg">
<path d="M165.874 948.388C166.526 948.533 167.214 948.678 167.866 948.823C178.294 958.67 177.932 971.016 180.068 984.194C194.299 1003.89 201.576 931.373 214.141 924.385C238.148 967.287 206.682 1010.51 211.534 1053.96C221.745 1045.31 221.6 1025.86 225.583 1014.93C225.945 1028.22 223.592 1045.78 228.915 1059.68C229.747 1059.71 230.58 1059.75 231.377 1059.82C245.788 1027.09 249.735 989.914 260.091 955.52C260.525 955.629 260.96 955.738 261.394 955.81C260.38 974.093 255.383 993.027 258.823 1011.06C259.439 1011.17 260.018 1011.27 260.598 1011.38C274.067 997.48 264.291 967.431 285.727 960.987V999.254C286.379 999.291 287.066 999.363 287.754 999.399C293.729 982.999 295.032 965.368 299.559 947.266C302.528 955.122 303.252 963.051 307.162 968.771C312.92 969.097 310.458 978.039 312.992 982.094C313.753 982.13 314.513 982.166 315.31 982.202C328.961 961.349 327.693 902.374 344.711 892.273C357.711 1030.68 359.485 1169.66 338.701 1307.35C337.325 1319.66 335.551 1316.18 346.594 1321.21C356.552 1323.75 355.683 1338.66 367.958 1337.79C389.575 1335.59 416.188 1319.66 412.387 1294.17C404.855 1175.1 400.184 1056.64 389.828 937.6C392.218 940.243 393.63 941.799 396.165 944.587C400.256 924.929 394.499 906.428 397.939 888.073C415.319 915.262 417.673 950.778 430.165 980.682C430.853 980.501 431.577 980.356 432.265 980.211C429.948 961.277 427.63 942.342 425.349 923.77C468.547 960.299 453.194 991.977 471.914 1034.26C479.989 1010.15 469.09 981.913 467.931 956.607C479.229 978.473 512.251 1112.93 512.686 1016.81C518.95 1030.03 518.443 1048.96 532.022 1055.33C532.565 1008.41 506.458 962.435 492.264 917.651C515.908 905.849 497.514 858.929 480.568 846.113C517.393 861.246 535.027 869.175 541.074 911.026C542.595 915.262 545.853 919.1 550.923 917.977C563.56 905.958 547.411 881.629 546.107 866.098L547.736 865.229C561.242 882.027 612.406 970.219 614.506 904.763C617.041 912.547 646.044 944.768 644.198 921.38C630.149 890.354 605.128 866.351 585.466 838.764C593.288 839.235 598.393 836.664 602.086 829.387C617.874 897.196 640.975 891.44 620.48 825.513C635.725 840.357 686.743 930.793 688.119 864.758C692.03 872.071 716.254 902.084 719.078 884.091C709.664 858.785 689.821 839.597 676.279 816.245C714.516 815.087 598.755 736.815 586.806 733.846C576.414 730.986 566.239 727.221 555.014 729.248C548.316 730.479 546.288 728.09 545.129 721.175C540.024 684.283 519.964 714.984 523.006 666.073C538.684 666.001 542.884 689.823 555.847 688.736C563.849 680.482 551.285 667.847 548.207 658.76C561.098 667.232 573.698 675.486 586.77 684.066V665.313C609.98 686.999 633.878 703.942 664.076 713.862C639.164 678.78 598.031 657.203 561.786 635.952C529.559 626.394 491.612 623.751 479.518 586.461C499.035 593.268 518.407 600.074 537.815 606.844C496.392 568.251 404.348 549.317 415.609 478.249C419.013 489.219 416.587 501.817 424.77 511.882C428.536 500.442 432.157 489.544 435.741 478.611C431.469 495.265 444.54 505.51 448.813 521.331C455.656 507.212 455.367 495.084 452.325 479.987C452.868 479.77 453.411 479.516 453.991 479.299C471.733 496.821 466.302 552.756 491.938 556.521C492.481 549.172 493.06 541.497 493.712 532.916C497.297 539.143 498.021 546.239 505.227 550.873C507.073 536.138 501.208 523.902 498.926 510.687C519.421 519.195 518.443 546.239 534.194 559.743C534.665 559.417 535.136 559.092 535.643 558.766C536.149 545.913 530.863 534.075 528.111 520.788C542.052 531.577 557.658 538.166 564.9 555.037C569.715 562.603 574.35 573.645 584.09 575.274C585.647 565.608 577.5 557.1 574.423 548.086C575.002 547.651 575.581 547.181 576.16 546.746C590.318 558.259 600.566 582.515 621.205 581.067C637.318 576.614 622.363 565.391 614.361 560.902C573.734 528.717 538.069 492.911 510.079 449.105C493.205 422.677 457.901 430.569 461.16 391.252C471.045 400.122 479.772 407.942 488.751 416.015C492.734 412.612 496.5 409.426 500.773 405.806C507.363 420.287 511.093 436.325 528.473 441.756V418.658C528.98 418.404 529.487 418.151 529.958 417.898C540.494 431.112 546.831 448.236 565.95 450.807C558.997 436.905 552.516 423.944 546.034 410.947C557.983 421.663 571.091 447.476 590.065 436.542C583.402 398.203 549.873 385.351 518.19 370.218C477.237 352.369 454.498 311.387 423.141 281.519C408.657 267.001 414.197 248.501 409.309 229.096C456.707 254.149 422.344 288.76 488.39 268.992C481.763 257.878 475.608 247.56 469.199 236.807C488.209 240.5 503.778 252.99 523.367 251.941C504.973 230.761 479.301 218.851 458.372 201.219C432.953 171.895 411.047 139.601 387.185 108.973C372.303 74.6879 369.37 35.6967 357.783 0C338.049 63.6821 343.336 139.058 279.281 179.135C267.115 188.693 250.93 193.146 238.148 201.509C220.876 214.035 210.086 239.052 185.427 237.495C156.062 254.258 213.743 243.614 222.65 239.74C215.336 250.094 208.891 259.145 201.794 269.21C223.411 264.974 233.549 247.017 249.481 235.214C245.897 248.465 242.565 260.738 239.017 273.699C263.929 271.563 266.572 243.252 280.006 227.177C294.344 265.119 287.718 258.602 327.512 253.497C318.098 284.017 245.39 329.851 213.779 340.675C180.829 346.07 159.9 367.176 140.419 392.664C137.595 395.85 138.102 399.253 140.383 401.606C151.753 408.014 159.791 392.555 168.3 386.147C163.412 396.863 154.867 404.72 154.505 415.762C176.592 414.241 182.892 387.233 206.103 384.808C200.2 398.71 194.914 411.091 189.265 424.342C212.512 420.468 217.328 395.596 234.527 383.685C248.069 392.229 230.979 406.24 228.806 417.499C243.797 402.692 258.027 392.809 279.788 393.279C280.006 393.859 280.223 394.438 280.44 395.017C272.076 406.892 260.851 417.318 261.213 431.619C244.81 448.272 223.773 451.277 203.061 459.459C185.246 464.998 169.133 479.19 151.101 481.797C133.684 471.624 81.9776 488.857 121.953 501.854C102.762 515.539 75.3876 535.052 76.0032 560.069C91.5731 565.572 97.801 544.248 108.845 535.27C108.591 540.121 109.714 542.764 110.438 547.144C125.429 543.886 132.236 527.486 142.882 517.711C143.171 517.892 143.424 518.073 143.714 518.29C141.071 531.36 138.428 544.465 135.603 558.621C153.237 549.57 153.889 529.368 163.086 513.873C163.81 514.054 164.498 514.235 165.222 514.38V552.756C165.802 552.828 166.381 552.937 166.961 553.009C171.451 540.736 175.94 528.427 180.648 515.539C184.16 540.519 199.766 544.827 200.309 516.661C201.178 508.189 211.643 505.619 217.545 499.573C222.723 509.999 227.611 519.883 232.716 530.201C237.496 517.53 255.673 479.806 268.926 500.55C270.483 503.338 268.998 506.126 265.703 507.61C251.292 514.09 243.217 526.001 237.858 540.229C236.772 545.515 238.655 550.004 231.739 551.127C180.937 569.41 125.32 586.353 85.5262 624.294C79.1172 635.372 20.2772 690.981 45.9133 693.189C53.5534 691.198 57.5363 685.225 60.6865 678.599C64.3075 668.643 75.8944 664.335 83.3173 657.203C83.5707 657.42 83.8243 657.638 84.114 657.819C79.6965 671.721 75.2791 685.587 70.8615 699.489C71.3323 699.742 71.7666 699.996 72.2011 700.249C92.2248 683.233 93.0214 653.004 116.919 641.491C116.231 657.927 115.58 673.386 114.892 689.823C142.809 667.594 126.08 634.504 165.657 630.268C167.142 659.339 137.305 664.842 125.718 686.781C110.728 699.272 87.6624 705.644 84.7657 728.85C80.2757 733.882 69.9923 732.108 64.235 735.258C54.9293 740.109 32.335 763.316 52.25 765.778C32.8781 793.98 11.1524 822.907 0 855.418C5.35896 873.592 26.6138 838.873 29.8726 830.908C29.3657 840.14 27.6277 850.132 37.2594 854.657C66.9871 855.309 72.5633 804.95 93.5285 787.826C93.6009 803.683 82.4122 826.527 92.6232 839.379C100.372 839.198 103.595 831.27 104.717 824.608C105.079 784.278 128.76 780.512 157.329 760.347C155.41 773.598 150.847 786.341 152.694 799.99C247.526 629.507 149.399 876.742 253.211 706.802C277.145 710.929 302.455 721.826 267.477 738.082C254.08 742.825 262.336 759.732 251.075 765.814C247.526 767.66 246.295 770.195 245.209 773.634C241.732 788.948 225.149 794.415 215.119 804.841C201.214 817.332 179.272 818.888 175.18 840.212C162.615 865.518 124.089 856.938 110.076 883.693C93.6371 906.646 75.967 928.549 53.807 946.433C45.1892 950.488 26.3603 993.824 43.0527 987.162C61.3021 976.156 71.658 958.163 82.5932 940.605C87.5901 934.45 95.6285 939.808 102.726 940.062C88.7488 960.263 68.7251 977.641 61.9902 1001.79C62.5333 1002.19 63.0402 1002.62 63.5472 1003.06C97.9459 989.154 107.867 947.302 140.166 933.255C134.915 953.493 119.997 972.971 123.329 993.86C135.278 989.841 138.79 973.369 143.461 963.666C142.882 971.088 141.505 1014.06 155.193 989.66C159.139 976.012 159.393 961.241 165.874 948.388Z" fill="white"/>
</svg>
