<?xml version="1.0" encoding="utf-8"?>
<!-- Generator: Adobe Illustrator 28.0.0, SVG Export Plug-In . SVG Version: 6.00 Build 0)  -->
<svg version="1.1" id="Ebene_1" xmlns="http://www.w3.org/2000/svg" xmlns:xlink="http://www.w3.org/1999/xlink" x="0px" y="0px"
	 viewBox="0 0 65.5 60.4" style="enable-background:new 0 0 65.5 60.4;" xml:space="preserve">
<path d="M64.8,12.3c1,1,1,2.7,0,3.7l-9.9,9.9l0,0l-0.3,0.3c-1,1-2.7,1-3.7,0l-0.1-0.4l0,0l-3.7-3.7L33.2,36l6,6c0.6,0.6,1,1.5,1,2.3
	s-0.3,1.7-1,2.3L26.4,59.4c-1.3,1.3-3.4,1.3-4.6,0l-0.3-0.3c-1.3-1.3-1.3-3.4,0-4.6l10.1-10.1l-7.5-7.5L19,42c0,0,0,0-0.1,0.1
	s-0.2,0.2-0.2,0.3L5.9,55c-1.3,1.3-3.4,1.3-4.6,0L1,54.7c-1.3-1.3-1.3-3.4,0-4.6l12.8-12.8c0,0,0,0,0.1-0.1s0.2-0.2,0.2-0.3l7.1-7.1
	c0.1-0.1,0.2-0.2,0.3-0.3l16.6-16.6L35.2,10l-8,8c-1,1-2.7,1-3.7,0l-0.3-0.3c-1-1-1-2.7,0-3.7l9.9-9.9l0,0l0.3-0.3c1-1,2.7-1,3.7,0
	l0.3,0.3l0,0l9.9,9.9c0.1,0.1,0.2,0.3,0.3,0.4l1.4,1.4c0,0,0,0,0.1,0.1l4.1,4.1l8-8c1-1,2.7-1,3.7,0L64.8,12.3 M52.7,0
	c-3.8,0-6.8,3.1-6.8,6.8s3.1,6.8,6.8,6.8c3.8,0,6.8-3.1,6.8-6.8S56.5,0,52.7,0z"/>
</svg>
