<?xml version="1.0" encoding="utf-8"?>
<!-- Generator: Adobe Illustrator 28.0.0, SVG Export Plug-In . SVG Version: 6.00 Build 0)  -->
<svg version="1.1"
	 id="Ebene_1" xmlns:cc="http://creativecommons.org/ns#" xmlns:inkscape="http://www.inkscape.org/namespaces/inkscape" xmlns:sodipodi="http://sodipodi.sourceforge.net/DTD/sodipodi-0.dtd" xmlns:rdf="http://www.w3.org/1999/02/22-rdf-syntax-ns#" xmlns:svg="http://www.w3.org/2000/svg" xmlns:dc="http://purl.org/dc/elements/1.1/"
	 xmlns="http://www.w3.org/2000/svg" xmlns:xlink="http://www.w3.org/1999/xlink" x="0px" y="0px" viewBox="0 0 23.3 15.5"
	 style="enable-background:new 0 0 23.3 15.5;" xml:space="preserve">
<g transform="translate(0,-270.542)">
	<path d="M19.2,270.5c-0.1,0-0.2,0-0.3,0l-6.6,1.8c-0.6,0.2-0.9,0.7-0.7,1.3c0,0.1,0.1,0.2,0.1,0.3l2,3.4l-11.9,3.2
		c-0.6,0.1-0.9,0.7-0.8,1.3c0,0.1,0.1,0.3,0.2,0.4c0.5-0.2,1.3-0.3,2.2-0.3c1.4,0,2.5,0.5,2.6,0.5c0.1,0,1.3-0.5,2.6-0.5
		c1.4,0,2.5,0.5,2.6,0.5c0.1,0,1.3-0.5,2.6-0.5s2.5,0.5,2.6,0.5c0.1,0,0.8-0.3,1.8-0.5c0.1-0.3,0.1-0.6-0.1-0.9l-2.1-3.5l0,0
		l-1.9-3.4l5.3-1.4c0.6-0.1,0.9-0.7,0.8-1.3C20.1,270.9,19.6,270.5,19.2,270.5L19.2,270.5z M20.1,275c-1.3,0-2.4,1.1-2.4,2.4
		c0,1.3,1.1,2.4,2.4,2.4c1.3,0,2.4-1.1,2.4-2.4C22.5,276.1,21.4,275,20.1,275z M3.7,283.4c-1.6,0-3,0.6-3,0.6
		c-0.5,0.2-0.8,0.8-0.6,1.4c0.2,0.5,0.8,0.8,1.4,0.6c0,0,0,0,0.1,0c0,0,1.2-0.5,2.3-0.5c1,0,2.3,0.5,2.3,0.5c0.3,0.1,0.5,0.1,0.8,0
		c0,0,1.2-0.5,2.3-0.5c1,0,2.3,0.5,2.3,0.5c0.3,0.1,0.5,0.1,0.8,0c0,0,1.2-0.5,2.3-0.5c1,0,2.3,0.5,2.3,0.5c0.3,0.1,0.5,0.1,0.8,0
		c0,0,1.2-0.5,2.3-0.5s2.3,0.5,2.3,0.5c0.5,0.2,1.2,0,1.4-0.6s0-1.2-0.6-1.4c0,0,0,0,0,0c0,0-1.4-0.6-3-0.6c-1.4,0-2.3,0.4-2.6,0.5
		c-0.3-0.1-1.2-0.5-2.6-0.5c-1.4,0-2.3,0.4-2.6,0.5c-0.3-0.1-1.2-0.5-2.6-0.5c-1.4,0-2.3,0.4-2.6,0.5C6.1,283.8,5.1,283.4,3.7,283.4
		z"/>
</g>
</svg>
