<svg width="5132" height="2463" viewBox="0 0 5132 2463" fill="none" xmlns="http://www.w3.org/2000/svg">
<g clip-path="url(#clip0_7_79)">
<mask id="mask0_7_79" style="mask-type:luminance" maskUnits="userSpaceOnUse" x="0" y="0" width="5132" height="2463">
<path d="M5132 0H0V2463H5132V0Z" fill="white"/>
</mask>
<g mask="url(#mask0_7_79)">
<path d="M4828.96 1859.56C4828.28 1860.25 4828.28 1860.94 4827.59 1860.94C4826.9 1860.25 4826.21 1860.25 4826.21 1858.87C4826.21 1858.87 4826.21 1858.18 4826.9 1858.18C4827.59 1858.87 4828.28 1859.56 4828.96 1859.56ZM4927.49 2000.9C4927.49 1989.93 4927.49 1980.33 4926.8 1970.74C4926.8 1968.68 4926.8 1967.99 4928.18 1965.93C4930.89 1963.17 4929.52 1958.36 4929.52 1954.96C4928.87 1950.14 4930.21 1945.33 4929.52 1939.86C4928.18 1923.39 4929.52 1906.91 4930.89 1890.44C4931.58 1880.16 4934.33 1869.84 4937.09 1859.56C4938.46 1854.74 4943.28 1854.74 4947.37 1854.74C4949.43 1854.74 4950.81 1854.74 4951.5 1851.99C4952.18 1850.65 4953.56 1849.97 4954.94 1849.97C4958.38 1849.28 4962.47 1843.77 4966.6 1850.65C4967.97 1852.68 4972.79 1851.34 4975.5 1854.74H4976.19C4980.32 1847.9 4986.51 1856.81 4990.6 1852.68C4990.6 1852.68 4991.98 1852.68 4991.98 1853.37C4994.04 1857.5 4996.11 1855.43 4998.17 1854.06C5001.61 1852.68 5005.01 1851.34 5007.77 1855.43C5008.45 1855.43 5009.83 1856.12 5010.52 1855.43C5014.65 1852.68 5019.43 1858.87 5023.55 1856.12C5026.3 1860.25 5031.81 1856.12 5033.87 1860.94C5033.87 1861.62 5034.52 1861.62 5035.21 1861.62C5042.09 1860.94 5044.16 1862.31 5045.53 1867.78C5048.94 1880.85 5051.69 1893.88 5048.28 1906.91C5046.91 1914.44 5047.6 1922.01 5048.94 1929.54C5049.62 1933.67 5048.28 1937.8 5048.28 1941.89C5047.6 1958.36 5046.22 1974.83 5047.6 1991.3C5048.28 2013.97 5042.78 2036.59 5042.78 2059.26C5042.78 2076.38 5039.34 2092.85 5039.34 2110.7C5038.65 2125.11 5037.28 2140.21 5036.59 2154.62C5035.9 2173.15 5035.9 2191.69 5036.59 2210.19C5037.96 2232.17 5035.9 2253.45 5036.59 2275.39C5037.28 2293.24 5037.96 2311.78 5037.28 2329.59C5037.28 2348.81 5035.9 2368.04 5030.43 2387.26L5028.37 2392.73C5025.62 2396.17 5026.31 2399.61 5025.62 2403.05C5023.55 2407.83 5019.42 2409.2 5015.33 2409.89C5010.52 2409.89 5006.39 2409.2 5002.3 2412.64C4997.48 2416.08 4991.29 2414.7 4985.82 2415.39C4974.13 2417.46 4961.78 2416.77 4950.12 2418.8C4945.99 2420.17 4941.21 2418.14 4937.77 2415.39C4935.02 2414.02 4932.27 2412.64 4929.52 2412.64C4922.67 2413.33 4919.23 2409.2 4916.48 2404.39C4907.57 2389.29 4904.14 2372.17 4901.38 2355.01C4899.36 2344 4895.92 2334.41 4891.79 2324.12C4886.28 2312.47 4884.26 2299.4 4881.5 2287.05L4877.38 2272.64C4874.62 2261.67 4871.87 2250.01 4868.47 2239.04C4868.47 2237.67 4867.78 2236.98 4867.09 2235.61C4865.72 2236.29 4865.72 2236.98 4865.72 2238.36C4864.34 2253.45 4862.97 2268.55 4862.97 2283.65C4862.97 2287.74 4862.28 2292.55 4862.28 2296.68C4862.28 2315.18 4861.59 2333.72 4858.15 2351.57C4856.09 2361.85 4854.06 2371.48 4852.68 2381.76C4851.31 2391.35 4850.62 2400.3 4847.87 2409.2C4847.18 2411.95 4845.8 2414.02 4845.11 2416.77C4843.74 2411.95 4838.96 2408.51 4840.3 2403.05C4836.89 2403.7 4837.58 2407.14 4836.89 2409.2C4832.77 2407.14 4828.64 2403.05 4823.86 2405.76C4823.17 2405.76 4823.17 2406.45 4823.17 2406.45C4819.04 2400.98 4816.98 2408.51 4814.92 2407.83C4812.16 2407.14 4808.07 2408.51 4806.01 2405.76C4801.88 2400.98 4801.88 2405.07 4800.5 2407.83C4799.82 2409.2 4799.82 2410.58 4799.13 2412.64C4797.75 2410.58 4798.44 2409.2 4798.44 2407.83C4798.44 2406.45 4797.06 2405.07 4796.38 2405.76C4793.66 2410.58 4793.66 2406.45 4792.97 2405.07C4792.29 2403.7 4790.91 2403.05 4788.85 2403.7C4787.47 2403.7 4787.47 2405.07 4786.78 2406.45C4786.78 2408.51 4787.47 2410.58 4785.41 2411.95C4784.03 2409.89 4784.72 2407.83 4785.41 2405.07C4779.94 2408.51 4777.19 2403.05 4773.06 2402.36C4769.62 2402.36 4766.18 2399.61 4762.09 2399.61C4760.02 2399.61 4755.21 2398.23 4752.45 2396.17C4751.77 2394.79 4750.39 2394.1 4749.05 2394.1C4742.17 2393.42 4741.48 2388.6 4740.8 2383.13C4739.42 2372.85 4740.11 2361.85 4739.42 2350.88C4739.42 2341.28 4742.86 2332.34 4742.86 2323.44C4742.86 2314.49 4743.55 2305.59 4741.48 2296.68C4740.8 2291.87 4742.17 2287.05 4742.86 2282.96C4744.24 2268.55 4743.55 2254.14 4746.99 2240.38C4749.74 2227.35 4748.36 2213.63 4747.68 2200.6C4746.3 2186.19 4746.3 2172.47 4749.05 2158.75C4750.39 2148.46 4751.08 2138.15 4749.05 2127.86C4746.3 2111.39 4746.3 2095.61 4746.99 2079.13C4748.36 2066.79 4749.05 2054.44 4750.39 2042.79C4751.77 2036.59 4750.39 2029.75 4750.39 2023.56C4751.08 2017.37 4751.08 2010.53 4751.08 2004.34C4751.08 1995.43 4749.74 1986.49 4750.39 1977.58C4751.77 1963.17 4753.14 1948.08 4751.77 1933.67L4749.74 1896.6C4749.05 1888.38 4748.36 1880.16 4751.08 1871.9C4753.14 1864.37 4756.58 1863.69 4763.46 1863.69C4770.31 1864.37 4777.19 1865.75 4782.65 1861.62C4785.41 1859.56 4788.16 1859.56 4791.6 1860.25C4792.97 1860.94 4795.69 1861.62 4797.75 1860.94C4804.63 1860.25 4810.79 1859.56 4817.67 1860.94C4820.42 1860.94 4822.48 1859.56 4825.2 1860.25C4827.95 1860.25 4830.7 1860.25 4832.77 1862.31C4834.14 1863.69 4835.52 1863.69 4837.58 1862.31C4841.67 1860.25 4844.43 1865.06 4848.55 1864.37C4849.93 1864.37 4851.99 1866.4 4851.99 1863C4852.68 1862.31 4854.06 1863 4855.4 1863.69C4858.84 1866.4 4861.59 1870.53 4867.09 1868.47C4867.09 1868.47 4868.47 1869.15 4868.47 1869.84C4871.18 1880.85 4880.13 1888.38 4884.91 1897.97C4893.16 1912.38 4899.36 1927.48 4905.51 1942.57C4911.02 1954.96 4913.08 1968.68 4919.23 1981.02C4921.99 1987.18 4922.67 1993.37 4927.49 2000.9ZM4503.15 2398.92H4512.75C4510.03 2400.98 4506.59 2399.61 4503.15 2398.92ZM4490.12 2397.54C4492.87 2396.17 4494.25 2396.86 4495.59 2398.92C4493.56 2400.98 4492.18 2398.92 4490.12 2397.54ZM4602.66 2390.67C4601.28 2391.35 4601.28 2389.98 4601.28 2389.29C4601.28 2388.6 4601.97 2387.95 4602.66 2387.26C4603.35 2387.95 4604.03 2387.95 4604.03 2387.95C4604.03 2388.6 4603.35 2389.98 4602.66 2390.67ZM4615.69 2381.07C4615 2381.07 4613.67 2381.07 4614.35 2379.7C4614.35 2379.7 4615.69 2379.01 4616.38 2379.01L4617.07 2379.7C4617.07 2381.07 4616.38 2381.07 4615.69 2381.07ZM4477.48 2037.97V2035.22L4478.17 2036.59C4478.17 2037.28 4478.86 2038.66 4478.17 2038.66C4476.83 2040.03 4477.48 2038.66 4477.48 2037.97ZM4544.32 2259.61C4543.64 2265.8 4542.95 2271.27 4542.95 2277.46C4543.64 2287.05 4540.88 2295.99 4536.79 2304.9C4534.73 2310.4 4531.29 2313.84 4523.76 2311.78C4516.19 2309.71 4507.97 2311.78 4501.09 2304.9C4496.96 2301.46 4496.28 2298.06 4496.28 2292.55C4496.96 2266.49 4498.34 2241.07 4496.28 2215.01C4493.56 2185.5 4491.5 2155.31 4493.56 2125.8C4494.25 2112.77 4491.5 2099.05 4492.87 2086.01C4493.56 2076.38 4492.18 2065.41 4499.71 2057.19C4500.4 2056.51 4501.09 2055.13 4501.09 2054.44C4497.65 2044.16 4504.53 2035.22 4505.22 2025.63C4505.22 2014.66 4505.91 2002.96 4505.22 1991.3C4505.22 1987.18 4505.91 1985.15 4510.69 1983.09C4516.88 1981.02 4520.32 1973.46 4529.23 1974.83C4537.48 1976.21 4547.08 1986.49 4546.39 1995.43C4546.39 2000.25 4545.7 2004.34 4545.01 2009.15V2022.87H4544.32C4544.32 2031.78 4545.01 2040.72 4543.64 2048.94C4542.26 2059.26 4545.7 2068.85 4545.7 2079.13C4545.7 2089.45 4546.39 2099.73 4547.76 2110.7C4550.52 2133.37 4547.76 2156.68 4548.45 2179.35C4548.45 2195.78 4549.14 2212.25 4549.83 2228.73C4550.52 2239.7 4545.7 2249.33 4544.32 2259.61ZM4362.7 1915.82C4359.95 1919.26 4359.26 1922.01 4359.95 1924.76L4362.7 1915.82ZM4605.08 1915.82L4603.71 1913.76C4604.4 1913.76 4604.4 1913.07 4605.08 1913.07C4605.08 1913.76 4605.77 1914.44 4606.46 1915.82H4605.08ZM4617.43 1920.63C4620.18 1915.13 4616.74 1913.07 4613.99 1910.35C4611.93 1908.98 4611.93 1907.6 4613.99 1906.23C4615.37 1905.54 4616.74 1906.23 4618.12 1906.91C4622.94 1911 4626.37 1928.17 4622.93 1934.36C4618.81 1930.92 4614.68 1926.1 4617.43 1920.63ZM4636.8 1897.97C4636.8 1896.6 4638.18 1894.57 4639.56 1895.26C4641.58 1896.6 4642.96 1898.66 4643.65 1901.41C4642.27 1898.66 4636.11 1903.47 4636.8 1897.97ZM4615.51 1893.88C4614.82 1893.19 4614.14 1892.5 4614.82 1891.82C4615.51 1891.82 4616.2 1891.82 4616.2 1892.5C4616.89 1892.5 4616.89 1893.19 4616.89 1893.88H4615.51ZM4628.55 1898.66C4626.48 1900.03 4629.92 1903.47 4626.48 1903.47C4624.46 1903.47 4623.77 1902.79 4622.39 1901.41C4618.95 1897.97 4624.46 1900.03 4624.46 1898.66V1896.6C4625.83 1894.57 4620.33 1893.19 4623.77 1891.82C4626.48 1890.44 4629.24 1893.19 4629.92 1894.57C4631.3 1897.28 4635.43 1899.35 4634.05 1903.47C4631.3 1902.79 4631.3 1899.35 4628.55 1898.66ZM4620.33 1888.38C4619.64 1888.38 4618.95 1887.69 4618.95 1887L4620.33 1885.63C4621.02 1887 4621.7 1887 4621.7 1887.69C4621.02 1888.38 4620.33 1889.07 4620.33 1888.38ZM4623.77 1885.63C4623.77 1884.94 4624.46 1884.25 4624.46 1884.25C4626.48 1884.94 4627.17 1886.31 4627.17 1887.69C4627.86 1889.75 4625.83 1889.07 4625.14 1889.07C4623.77 1888.38 4623.08 1887 4623.77 1885.63ZM4616.2 1873.97C4616.2 1873.97 4616.89 1873.28 4617.58 1873.28C4618.26 1873.28 4618.95 1873.97 4619.64 1874.66C4618.26 1874.66 4617.58 1875.34 4617.58 1875.34C4616.89 1875.34 4616.2 1874.66 4616.2 1873.97ZM4608.67 1869.84C4607.98 1868.47 4608.67 1868.47 4609.36 1868.47C4610.73 1868.47 4611.38 1869.15 4611.38 1869.84C4611.38 1870.53 4610.73 1871.22 4610.04 1871.22C4609.36 1870.53 4608.67 1870.53 4608.67 1869.84ZM4443.26 1864.37C4442.58 1864.37 4442.58 1863.69 4442.58 1863C4443.27 1862.31 4443.95 1862.31 4444.64 1862.31L4445.33 1863C4444.64 1863.69 4443.95 1864.37 4443.26 1864.37ZM4593.57 1860.94C4592.88 1860.94 4592.19 1860.25 4592.19 1859.56C4592.19 1858.87 4592.88 1858.18 4594.26 1858.87L4595.63 1860.25C4594.95 1860.94 4594.26 1861.62 4593.57 1860.94ZM4555.12 1851.34C4554.43 1851.34 4553.74 1850.65 4553.05 1850.65C4555.11 1848.59 4557.18 1848.59 4557.87 1849.97C4558.55 1851.99 4556.49 1851.34 4555.12 1851.34ZM4664.43 2100.42C4663.74 2086.01 4660.99 2070.92 4658.96 2055.82C4656.9 2043.47 4656.9 2031.09 4656.9 2018.75C4656.9 2014.66 4656.9 2009.15 4657.59 2003.65C4661.68 2008.46 4658.96 2013.97 4660.99 2019.43C4661.68 2017.37 4662.37 2015.99 4663.05 2015.34C4667.18 2009.84 4661.68 2004.34 4662.37 1998.87C4663.05 1983.77 4659.61 1968.68 4662.37 1954.27C4663.05 1952.2 4662.37 1950.14 4662.37 1947.39C4662.37 1946.01 4661.68 1944.64 4659.61 1944.64C4658.28 1943.95 4657.59 1943.95 4656.9 1945.33C4656.21 1946.7 4656.9 1948.76 4658.96 1949.45V1956.98C4656.9 1953.58 4658.96 1951.52 4658.96 1949.45L4654.83 1952.2C4655.52 1948.08 4652.77 1944.64 4656.21 1941.89C4660.3 1938.48 4660.3 1938.48 4656.21 1935.04C4660.3 1932.98 4660.99 1930.23 4660.3 1924.76C4658.27 1914.44 4652.77 1905.54 4648.64 1896.6C4647.27 1895.26 4645.89 1890.44 4643.18 1892.5C4639.05 1895.26 4639.05 1891.82 4639.05 1890.44C4640.42 1884.25 4636.3 1880.16 4632.17 1878.1C4625.32 1874.66 4623.95 1867.78 4619.13 1863C4616.38 1860.94 4619.13 1855.43 4614.35 1854.06C4611.6 1856.81 4615.69 1859.56 4613.67 1862.31C4607.47 1859.56 4601.97 1856.81 4596.5 1854.74C4593.06 1854.06 4592.37 1851.34 4590.31 1849.28C4584.15 1855.43 4577.96 1849.28 4571.77 1848.59C4563.55 1847.9 4555.3 1847.9 4547.08 1846.53C4540.2 1845.84 4532.67 1842.4 4525.13 1847.9C4522.38 1849.97 4514.81 1845.84 4510.03 1849.97L4507.28 1849.28C4506.59 1842.4 4501.78 1846.53 4499.03 1845.84C4501.09 1847.21 4503.15 1848.59 4501.78 1851.99C4498.34 1850.65 4496.27 1848.59 4491.5 1851.34C4487.37 1853.37 4487.37 1849.97 4490.12 1846.53C4477.77 1846.53 4468.14 1854.06 4455.79 1854.06C4457.17 1856.81 4459.23 1854.74 4460.61 1857.5C4455.79 1855.43 4451.67 1858.87 4447.57 1857.5C4443.45 1856.81 4442.76 1863 4438.63 1861.62C4438.63 1861.62 4437.25 1863.69 4435.88 1862.31C4433.16 1857.5 4427.66 1862.31 4426.97 1863C4420.13 1869.84 4413.25 1877.41 4406.37 1884.94C4402.28 1889.75 4402.28 1896.6 4396.77 1900.72C4393.33 1904.16 4389.93 1906.23 4393.33 1911C4394.02 1912.38 4392.64 1913.76 4391.27 1913.07C4387.86 1913.07 4387.86 1915.82 4386.49 1918.57C4378.23 1938.48 4378.92 1959.73 4380.3 1980.33C4380.98 1983.77 4376.86 1985.15 4378.92 1988.55C4385.11 1998.18 4383.74 2009.84 4384.42 2020.12C4385.11 2035.22 4379.61 2049.63 4378.92 2064.72C4378.23 2083.95 4372.77 2103.17 4374.83 2121.67C4376.86 2150.49 4374.14 2180 4376.86 2208.85C4378.92 2232.17 4378.92 2255.48 4378.92 2278.83C4378.92 2295.31 4383.05 2311.78 4385.8 2327.56C4389.24 2352.25 4405.03 2371.48 4422.15 2387.95C4435.23 2400.98 4453.73 2404.39 4470.2 2410.58C4481.86 2414.7 4494.94 2417.46 4507.28 2415.39C4518.25 2413.33 4527.85 2416.08 4537.48 2418.14C4546.39 2419.48 4555.3 2419.48 4564.24 2418.8C4582.09 2418.8 4597.88 2409.2 4610.91 2397.54C4617.76 2392.04 4624.64 2387.26 4630.79 2381.76C4638.36 2374.88 4645.2 2368.73 4649.33 2359.78C4655.52 2344.69 4658.27 2328.25 4658.27 2312.47C4658.96 2298.74 4660.99 2284.99 4662.37 2271.27C4663.05 2258.23 4665.12 2245.89 4663.74 2232.85C4663.05 2218.45 4663.74 2204.72 4663.05 2190.31C4662.37 2180 4665.12 2169.03 4666.49 2158.06C4669.25 2138.83 4665.12 2119.65 4664.43 2100.42ZM3995.86 2379.7C3994.49 2360.47 3992.42 2339.22 3992.42 2318.62C3992.42 2296.68 3990.36 2275.39 3988.3 2253.45C3986.92 2239.7 3988.3 2226.66 3991.05 2212.94C3991.74 2210.88 3991.74 2207.48 3991.74 2205.41C3988.98 2166.96 3995.18 2129.24 3993.8 2090.79C3993.11 2066.1 3992.42 2040.72 3990.36 2015.99C3988.98 2002.27 3990.36 1989.24 3993.11 1976.21C3995.18 1961.11 3995.18 1944.64 3992.42 1929.54C3990.36 1911 3989.67 1892.5 3993.11 1873.97C3994.49 1867.09 3999.3 1864.37 4003.4 1864.37C4012.34 1865.06 4019.18 1860.94 4027.44 1858.18C4035.66 1856.12 4044.6 1858.87 4052.82 1857.5C4057.64 1856.12 4067.92 1857.5 4078.89 1856.81C4089.86 1856.12 4101.56 1856.81 4113.22 1858.18C4115.97 1858.87 4120.06 1860.94 4120.75 1865.75C4125.57 1888.38 4129.69 1911 4125.57 1934.36C4124.19 1942.57 4123.5 1951.52 4124.88 1959.73C4126.25 1970.05 4125.57 1981.02 4123.5 1991.99C4119.41 2013.97 4123.5 2035.22 4126.25 2057.19C4129.69 2087.39 4130.38 2116.89 4127.63 2147.09C4126.25 2169.03 4127.63 2191.69 4126.25 2213.63C4125.57 2230.79 4124.19 2247.95 4123.5 2264.42C4122.81 2280.21 4130.38 2288.43 4145.48 2287.74C4168.11 2287.05 4190.09 2289.11 4212.03 2285.68C4217.54 2284.3 4222.35 2286.36 4227.82 2287.05C4243.61 2287.74 4259.39 2286.36 4275.18 2284.99C4285.47 2283.65 4295.1 2284.99 4304.69 2289.8C4308.13 2292.55 4312.95 2293.24 4317.73 2291.18C4321.86 2289.11 4327.36 2292.55 4328.05 2295.99C4329.39 2306.27 4333.51 2316.56 4335.58 2326.87C4338.33 2343.35 4337.64 2352.25 4333.51 2368.73C4330.08 2381.76 4330.08 2394.79 4325.98 2407.83C4325.3 2411.95 4324.61 2414.02 4319.79 2413.33C4307.44 2411.95 4294.41 2414.7 4282.06 2416.77C4265.59 2420.17 4248.42 2419.48 4231.95 2416.77C4218.91 2414.7 4205.88 2415.39 4192.84 2416.08C4161.96 2417.46 4131.07 2411.95 4100.87 2411.95C4080.27 2412.64 4059.7 2411.95 4039.1 2411.95C4030.84 2412.64 4024 2411.27 4016.43 2408.51C4014.4 2407.14 4011.65 2406.45 4010.28 2405.76C4006.15 2403.7 4000.64 2407.83 3997.93 2403.05C3995.18 2398.23 3995.18 2391.35 3995.18 2385.89C3995.18 2383.82 3995.18 2382.45 3995.86 2379.7ZM3806.67 2371.48C3805.3 2373.54 3805.3 2376.26 3806.67 2378.32C3809.42 2375.57 3808.05 2373.54 3806.67 2371.48ZM3771.69 2349.5C3771.01 2349.5 3770.32 2348.81 3770.32 2348.81C3769.63 2349.5 3769.63 2350.19 3769.63 2350.88C3769.63 2350.88 3771.01 2351.57 3771.01 2350.88C3771.69 2350.88 3771.69 2350.19 3771.69 2349.5ZM3773.72 2280.9C3773.72 2282.27 3773.03 2282.96 3773.03 2283.65C3773.03 2284.3 3773.03 2285.68 3774.41 2284.99C3775.1 2284.99 3775.78 2283.65 3775.78 2282.96C3775.78 2282.27 3775.1 2281.58 3773.72 2280.9ZM3768.94 2269.2C3765.5 2274.02 3766.19 2277.46 3768.25 2281.58C3768.25 2277.46 3771.69 2274.71 3768.94 2269.2ZM3586.56 2195.09C3587.24 2191.69 3587.93 2188.25 3584.49 2183.44C3584.49 2188.94 3583.8 2192.38 3586.56 2195.09ZM3585.18 2168.34C3585.18 2173.15 3583.8 2175.91 3586.56 2177.97C3587.24 2175.22 3587.24 2172.47 3585.18 2168.34ZM3585.87 2151.18C3583.8 2156.68 3583.8 2160.12 3585.87 2163.56C3587.24 2160.12 3585.87 2156.68 3585.87 2151.18ZM3588.62 2144.34C3587.93 2143.65 3587.93 2142.27 3587.24 2142.27C3584.49 2141.59 3585.18 2143.65 3585.87 2144.34C3585.87 2145.02 3586.56 2145.71 3587.24 2146.4L3588.62 2144.34ZM3638.05 2116.89C3638.05 2114.83 3640.8 2114.14 3641.48 2112.77C3640.8 2112.08 3639.42 2112.08 3638.73 2112.08C3635.98 2112.08 3637.36 2114.14 3637.36 2115.52C3637.36 2116.21 3638.05 2116.21 3638.05 2116.89ZM3648.33 2110.7C3649.7 2116.21 3647.64 2119.65 3650.39 2122.36C3649.7 2119.65 3652.46 2116.21 3648.33 2110.7ZM3569.83 2091.48C3569.14 2091.48 3568.45 2090.79 3567.76 2090.79C3567.07 2090.79 3566.39 2091.48 3566.39 2092.17L3567.76 2093.54C3568.45 2093.54 3569.14 2092.86 3569.83 2091.48ZM3590.43 2093.54C3589.05 2090.79 3591.12 2088.76 3586.99 2086.7C3588.37 2089.45 3586.99 2090.79 3590.43 2093.54ZM3643.26 2067.48C3643.26 2063.35 3644.64 2060.6 3641.88 2057.88C3639.13 2061.29 3638.44 2063.35 3643.26 2067.48ZM3658.36 2070.23C3665.93 2066.79 3663.17 2062.66 3659.05 2058.57C3657.67 2057.88 3660.42 2052.38 3655.61 2054.44C3652.2 2056.51 3652.2 2060.6 3654.23 2061.97C3659.05 2063.35 3656.29 2067.48 3658.36 2070.23ZM3631.6 2040.72C3631.6 2042.1 3630.91 2042.79 3630.91 2043.47C3630.91 2044.16 3630.91 2045.5 3632.29 2044.85C3632.98 2044.85 3633.66 2043.47 3633.66 2042.79C3633.66 2042.1 3632.98 2041.41 3631.6 2040.72ZM3636.42 2034.53C3637.1 2039.35 3637.1 2042.79 3637.1 2046.19C3637.79 2042.79 3639.13 2039.35 3636.42 2034.53ZM3623.38 2039.35C3624.03 2037.97 3624.03 2036.59 3624.03 2035.91C3624.03 2034.53 3624.72 2031.78 3622 2033.16C3619.94 2034.53 3621.32 2036.59 3623.38 2039.35ZM3571.89 2005.71C3570.52 2004.34 3569.14 2002.96 3567.76 2002.27C3567.76 2002.96 3567.08 2003.65 3567.08 2005.03C3567.76 2005.71 3567.76 2007.09 3569.14 2007.09C3569.83 2007.09 3570.52 2006.4 3571.89 2005.71ZM3579.35 1981.02C3578.7 1980.33 3578.7 1978.96 3577.32 1979.65C3576.63 1979.65 3576.63 1981.02 3576.63 1981.02C3576.63 1981.71 3577.32 1982.4 3578.01 1983.09C3578.01 1982.4 3578.7 1981.71 3579.35 1981.02ZM3646.63 1972.77C3643.19 1976.9 3643.87 1981.02 3645.25 1985.15C3645.94 1981.02 3649.38 1976.9 3646.63 1972.77ZM3654.16 1959.73C3654.16 1958.36 3653.51 1958.36 3653.51 1959.05C3653.51 1959.73 3653.51 1959.73 3654.16 1960.42V1959.73ZM3602.16 1858.87C3600.79 1859.56 3600.1 1860.94 3600.79 1862.31C3600.79 1863 3601.47 1863 3602.16 1863C3602.85 1861.62 3603.54 1860.25 3602.16 1858.87ZM3637.86 1853.37C3637.18 1849.97 3637.18 1847.9 3638.52 1845.84L3640.58 1847.21C3643.33 1849.97 3640.58 1851.34 3637.86 1853.37ZM3831.4 2389.98C3830.03 2396.17 3825.9 2398.23 3821.08 2400.3C3820.39 2396.86 3823.15 2393.42 3819.71 2389.98C3819.02 2392.73 3818.33 2394.79 3816.99 2398.23C3815.61 2392.73 3812.86 2393.42 3808.74 2393.42C3803.23 2394.1 3799.83 2395.48 3799.14 2400.3C3797.76 2399.61 3797.08 2399.61 3797.08 2399.61C3793.64 2394.79 3790.2 2387.95 3784.73 2387.95C3779.91 2387.95 3785.42 2396.17 3781.29 2399.61C3776.47 2395.48 3773.03 2388.6 3764.81 2389.98C3762.06 2390.67 3761.37 2387.26 3760.69 2384.51C3755.91 2353.63 3759.31 2322.75 3760 2291.87C3761.37 2262.36 3762.75 2232.85 3762.06 2202.66C3762.06 2199.22 3761.37 2197.16 3756.59 2197.16C3737.37 2197.16 3718.14 2197.85 3698.91 2195.09C3693.45 2194.44 3692.07 2197.16 3692.07 2202.66C3692.07 2217.76 3692.76 2232.85 3692.07 2247.95C3690.69 2279.52 3690.69 2311.78 3690.01 2344C3690.01 2360.47 3692.07 2376.94 3688.63 2393.42C3687.94 2398.23 3685.19 2403.05 3684.5 2407.83C3683.81 2409.89 3681.79 2413.33 3676.28 2411.27C3668.71 2409.2 3660.49 2412.64 3652.28 2413.33C3641.96 2414.02 3630.98 2412.64 3622.08 2416.08C3604.91 2421.55 3589.13 2414.02 3572.65 2418.8C3563.06 2420.86 3557.55 2416.77 3557.55 2406.45C3556.86 2380.38 3557.55 2355.01 3558.24 2328.9V2322.75C3555.49 2289.8 3554.8 2256.86 3556.86 2223.95C3560.3 2179.35 3556.18 2135.39 3557.55 2090.79C3558.24 2042.1 3557.55 1992.68 3557.55 1943.95C3556.86 1914.44 3554.8 1884.25 3559.62 1854.74C3560.3 1848.59 3563.06 1846.53 3569.9 1849.97C3576.09 1852.68 3584.31 1849.28 3589.13 1856.81C3590.5 1858.18 3590.5 1853.37 3592.57 1852.68L3594.59 1861.62C3599.41 1861.62 3596.66 1856.81 3598.72 1855.43C3601.47 1852.68 3603.54 1847.9 3606.98 1850.65C3615.89 1858.18 3620.7 1847.9 3627.54 1847.21C3629.61 1851.99 3625.48 1856.81 3627.54 1862.31C3631.67 1857.5 3633.05 1852.68 3629.61 1844.46C3635.8 1850.65 3633.05 1855.43 3633.05 1860.25C3640.58 1856.81 3639.2 1855.43 3644.71 1849.97C3648.15 1845.84 3655.68 1846.53 3662.56 1847.9C3668.71 1849.28 3664.62 1852.68 3665.31 1856.12C3660.49 1856.12 3662.56 1851.34 3659.81 1849.97C3657.05 1854.06 3656.37 1858.18 3660.49 1859.56C3662.56 1860.94 3666.69 1858.87 3668.03 1854.74C3669.4 1851.99 3671.47 1849.28 3674.22 1843.77C3672.84 1861.62 3683.13 1875.34 3678.35 1891.13C3683.81 1884.94 3679.03 1876.03 3685.88 1867.78C3685.88 1871.9 3687.25 1874.66 3687.25 1876.72C3687.25 1896.6 3689.32 1915.82 3692.07 1935.73C3694.13 1948.08 3687.25 1959.05 3688.63 1971.39C3690.01 1989.93 3690.01 2007.78 3690.69 2026.31C3691.38 2041.41 3690.69 2056.51 3692.76 2071.6C3693.45 2076.38 3692.76 2080.51 3700.29 2077.76C3704.42 2076.38 3711.3 2077.76 3716.76 2080.51C3722.96 2083.26 3731.18 2080.51 3738.05 2079.82C3738.05 2077.07 3733.93 2079.13 3733.93 2075.69C3733.93 2073.67 3735.99 2073.67 3738.05 2073.67C3744.21 2072.98 3751.09 2072.29 3757.93 2072.98C3762.75 2072.98 3764.81 2072.98 3764.81 2067.48C3765.5 2059.95 3766.19 2052.38 3765.5 2044.85C3762.06 2011.22 3765.5 1978.27 3764.81 1944.64C3764.81 1919.95 3764.81 1895.26 3765.5 1870.53C3766.19 1861.62 3764.81 1851.99 3771.01 1844.46C3777.16 1853.37 3780.6 1853.37 3794.32 1845.84C3796.39 1844.46 3797.08 1843.09 3799.83 1843.77C3810.11 1845.84 3819.71 1845.84 3830.03 1841.71C3834.81 1839.65 3841 1845.84 3847.15 1845.84C3849.22 1845.84 3850.59 1847.21 3852.66 1846.53C3860.22 1842.4 3867.76 1845.84 3876.01 1846.53C3884.23 1847.9 3885.61 1852.68 3886.98 1859.56C3892.45 1880.85 3892.45 1902.79 3893.14 1924.76C3894.51 1957.67 3892.45 1990.62 3895.2 2023.56C3897.27 2045.5 3897.27 2068.16 3897.27 2090.14C3897.27 2123.05 3895.89 2155.99 3893.14 2188.25C3891.11 2208.16 3892.45 2228.04 3891.11 2247.95C3889.05 2289.8 3886.3 2330.97 3886.3 2372.17C3886.3 2381.76 3882.17 2390.67 3883.54 2399.61C3884.23 2401.67 3883.54 2403.05 3881.48 2403.05C3877.35 2403.05 3872.57 2402.36 3871.2 2398.92C3868.44 2394.79 3865.69 2396.17 3863.63 2397.54C3856.78 2400.98 3852.66 2394.79 3848.53 2392.73C3845.13 2391.35 3843.75 2389.98 3842.37 2393.42C3836.87 2403.05 3835.49 2394.79 3831.4 2389.98ZM3233.12 1970.05C3217.33 1970.05 3201.54 1973.46 3185.76 1970.74C3164.5 1967.3 3161.06 1963.86 3156.25 1943.95C3152.12 1928.17 3152.12 1912.38 3155.56 1896.6C3156.93 1892.5 3155.56 1887 3156.25 1882.87C3158.31 1869.84 3164.5 1864.37 3183 1864.37C3204.3 1863.69 3225.55 1860.25 3246.84 1860.25C3279.1 1859.56 3311.37 1855.43 3343.63 1856.12C3376.54 1857.5 3409.49 1857.5 3442.44 1857.5C3456.17 1857.5 3470.58 1855.43 3484.3 1861.62C3487.74 1863.69 3488.43 1864.37 3488.43 1868.47C3489.12 1877.41 3487.74 1885.63 3489.12 1894.57C3489.8 1895.94 3491.18 1896.6 3489.8 1897.97C3482.24 1908.98 3488.43 1922.01 3484.3 1932.98C3483.61 1934.36 3483.61 1936.42 3484.99 1937.11C3491.87 1941.2 3487.74 1947.39 3487.74 1952.2C3487.74 1963.17 3479.49 1964.55 3471.95 1966.61C3463.05 1968.68 3454.79 1969.36 3445.88 1969.36C3432.16 1968.68 3418.44 1969.36 3404.68 1970.05C3398.52 1970.05 3393.02 1970.74 3387.55 1970.05C3375.17 1970.05 3374.48 1970.05 3374.48 1981.71C3375.17 1998.87 3374.48 2015.99 3376.54 2033.16C3377.92 2046.88 3377.92 2060.6 3375.85 2074.36C3373.14 2094.92 3373.83 2116.21 3373.83 2136.77C3373.83 2161.5 3371.76 2185.5 3368.32 2210.19C3366.95 2221.88 3370.39 2233.54 3371.07 2245.2C3371.76 2263.74 3371.07 2282.27 3371.76 2301.46C3371.76 2308.34 3372.45 2314.49 3373.14 2321.37C3376.54 2348.13 3373.83 2374.88 3370.39 2400.98C3369.7 2409.2 3362.82 2416.08 3353.22 2416.77L3329.22 2418.8C3318.9 2420.17 3309.3 2416.08 3299.02 2416.77C3294.89 2416.77 3290.76 2416.08 3286.63 2416.77C3277.04 2417.46 3267.44 2414.02 3259.19 2409.89C3257.12 2408.51 3256.44 2403.7 3256.44 2400.98C3255.75 2384.51 3251.66 2368.04 3253.03 2351.57C3256.44 2319.31 3255.06 2287.05 3257.12 2254.79C3258.5 2237.67 3255.75 2220.51 3257.12 2203.35C3258.5 2177.97 3255.75 2153.24 3257.81 2127.86V2125.8C3251.66 2096.98 3258.5 2068.16 3253.72 2040.03C3249.59 2020.12 3253.72 2000.9 3256.44 1981.02C3257.81 1970.74 3257.12 1970.05 3246.15 1970.05H3233.12ZM2946.23 2189.63H2990.84C2993.59 2189.63 2995.66 2188.94 2994.97 2185.5C2993.59 2177.28 2994.28 2167.65 2991.53 2160.12C2984 2136.77 2981.25 2112.77 2979.87 2088.08C2979.18 2082.57 2979.18 2076.38 2975.05 2069.54C2964.77 2110.7 2962.71 2151.18 2946.23 2189.63ZM3070.21 2068.85C3070.9 2067.48 3071.59 2066.79 3071.59 2065.41C3072.28 2064.04 3070.9 2063.35 3069.52 2064.04C3068.84 2064.04 3068.84 2065.41 3068.84 2066.79C3068.84 2067.48 3069.52 2068.16 3070.21 2068.85ZM3068.15 2061.97C3070.21 2055.82 3068.15 2053.07 3065.4 2049.63L3068.15 2061.97ZM2842.28 1981.71C2845.03 1978.96 2845.03 1977.58 2843.65 1975.52C2841.59 1976.9 2842.28 1978.96 2842.28 1981.71ZM2846.4 1963.86C2848.47 1961.8 2850.5 1960.42 2848.47 1957.67C2847.09 1959.05 2845.72 1960.42 2846.4 1963.86ZM3119.2 2412.64C3117.14 2405.07 3114.39 2405.07 3110.26 2409.2C3106.82 2413.33 3103.42 2418.8 3096.54 2413.33C3095.85 2412.64 3089.69 2414.02 3086.25 2414.7C3078 2416.77 3069.09 2420.17 3060.83 2418.8C3051.93 2417.46 3043.02 2414.7 3034.08 2411.95C3031.32 2411.27 3031.32 2408.51 3030.67 2405.76C3020.35 2374.19 3019.66 2341.28 3013.51 2309.03C3012.82 2304.9 3012.13 2304.21 3008.69 2303.52C2988.78 2302.84 2968.9 2301.46 2948.98 2300.08C2940.76 2299.4 2931.82 2298.06 2922.91 2296.68C2919.47 2296.68 2917.41 2297.37 2916.72 2302.15C2911.25 2323.44 2906.44 2344 2898.18 2364.6C2894.09 2374.88 2894.09 2387.26 2889.28 2398.23C2885.84 2405.76 2878.3 2408.51 2870.05 2409.89C2860.45 2411.27 2850.86 2406.45 2841.91 2408.51C2834.38 2410.58 2828.19 2411.27 2821.35 2409.2C2812.4 2406.45 2805.56 2414.02 2797.3 2412.64C2789.08 2411.27 2781.52 2414.02 2773.99 2414.02C2767.79 2413.33 2762.29 2400.3 2763.67 2394.79C2765.73 2383.82 2768.48 2373.54 2771.23 2362.54C2772.61 2357.07 2778.76 2353.63 2780.14 2347.44C2783.58 2334.4 2787.71 2322.06 2790.46 2309.71C2791.15 2304.9 2787.71 2298.74 2790.46 2293.93C2801.43 2275.39 2803.5 2254.14 2812.4 2234.92C2815.16 2229.41 2819.97 2222.57 2814.47 2214.32C2813.09 2212.94 2815.16 2207.48 2816.53 2204.04C2824.06 2190.32 2828.19 2175.22 2831.63 2160.81C2833.69 2153.93 2831.63 2145.71 2834.38 2138.83C2839.85 2125.8 2839.85 2112.08 2843.29 2098.36C2846.73 2084.64 2851.55 2070.92 2853.57 2057.19C2857.01 2037.97 2862.52 2019.43 2867.98 2000.9C2868.67 1998.87 2867.3 1995.43 2872.11 1996.12C2874.86 1996.81 2875.55 1994.06 2871.42 1989.93C2870.05 1989.24 2870.74 1987.86 2871.42 1987.18C2872.11 1982.4 2872.8 1977.58 2874.18 1972.77C2874.18 1970.74 2874.18 1966.61 2878.3 1970.74C2879.68 1972.08 2880.37 1967.99 2879.68 1967.3C2872.11 1959.73 2878.99 1952.2 2881.06 1946.7C2892.72 1924.76 2900.25 1900.72 2909.88 1878.1C2912.59 1872.59 2911.25 1865.75 2916.72 1860.94C2918.79 1858.87 2921.54 1855.43 2924.29 1855.43C2935.26 1854.74 2946.23 1852.68 2957.89 1856.12C2960.64 1856.81 2963.4 1856.81 2966.15 1855.43C2971.61 1851.99 2977.12 1858.18 2984 1856.12C2990.15 1854.06 2997.72 1853.37 3005.25 1854.74C3010.76 1856.12 3016.22 1860.25 3023.1 1857.5C3025.17 1856.81 3029.98 1860.25 3031.32 1865.06C3034.08 1872.59 3037.52 1880.16 3044.4 1884.94C3049.86 1889.07 3047.8 1895.26 3050.55 1900.03C3060.18 1919.26 3064.27 1940.55 3071.15 1961.11C3079.37 1985.8 3082.81 2010.53 3086.94 2035.91C3091.72 2060.6 3097.91 2085.32 3102.73 2110.7C3104.1 2118.27 3102.73 2127.18 3106.13 2134.05C3110.95 2143.65 3112.32 2153.24 3109.57 2163.56C3108.2 2169.03 3113.7 2169.03 3115.08 2173.15C3121.23 2199.22 3121.23 2225.29 3128.8 2251.39C3134.3 2267.18 3135.64 2284.99 3139.08 2301.46C3142.52 2317.93 3146.65 2333.72 3148.71 2350.19C3150.09 2365.29 3154.87 2380.38 3152.12 2395.48C3148.71 2411.27 3140.46 2416.08 3126.74 2407.83C3119.89 2403.7 3119.89 2407.14 3119.2 2412.64ZM2688.21 2106.58C2688.21 2103.86 2688.89 2101.8 2688.89 2099.73C2689.55 2098.36 2689.55 2099.05 2690.23 2099.73C2692.3 2103.86 2692.3 2107.95 2692.3 2112.08C2690.92 2152.55 2693.67 2193.07 2695.05 2233.54C2695.74 2258.23 2692.3 2282.96 2694.36 2308.34C2696.43 2331.65 2692.99 2355.69 2693.67 2379.01C2694.36 2389.29 2689.55 2399.61 2687.52 2409.2C2686.83 2411.95 2684.77 2414.02 2681.33 2414.7C2668.98 2416.08 2655.94 2420.17 2644.28 2418.8C2630.52 2417.46 2616.11 2420.17 2602.39 2414.7C2598.3 2412.64 2594.86 2418.14 2590.04 2418.14C2583.2 2418.14 2577.7 2414.7 2570.82 2413.33C2568.1 2412.64 2564.66 2409.89 2563.97 2406.45C2560.53 2381.07 2560.53 2356.38 2564.66 2330.97C2566.72 2320.68 2568.1 2310.4 2563.28 2300.08C2559.84 2292.55 2562.6 2284.3 2561.91 2276.08C2561.91 2251.39 2559.84 2227.35 2559.16 2202.66C2557.09 2168.34 2555.72 2134.05 2557.78 2099.73C2559.16 2083.26 2557.09 2066.1 2557.09 2049.63C2557.78 2026.31 2559.84 2002.96 2560.53 1979.65C2560.53 1957.67 2559.16 1935.73 2562.6 1914.44C2564.66 1900.03 2565.35 1885.63 2566.72 1871.22C2568.1 1860.94 2577.7 1855.43 2585.91 1851.34C2601.7 1843.09 2618.18 1845.84 2634.65 1852.68C2639.47 1854.74 2644.28 1855.43 2649.06 1852.68C2653.88 1849.97 2658.01 1849.97 2661.41 1854.06C2664.85 1857.5 2671.04 1851.99 2673.11 1856.81C2677.2 1869.15 2683.39 1881.5 2684.77 1894.57C2687.52 1914.44 2687.52 1934.36 2684.77 1954.27C2682.7 1976.21 2688.89 1997.49 2690.92 2018.75C2692.3 2031.78 2691.61 2044.85 2689.55 2057.88C2688.21 2068.16 2684.77 2079.13 2686.14 2088.76C2686.83 2094.92 2682.7 2101.11 2688.21 2106.58ZM2303.34 2013.28V2055.13C2303.34 2059.26 2305.4 2060.6 2309.53 2060.6C2315.69 2060.6 2321.88 2059.26 2328.03 2058.57C2332.16 2057.88 2334.22 2055.13 2334.22 2051C2336.98 2024.94 2337.66 1998.87 2330.1 1972.77C2328.72 1970.74 2328.03 1968.68 2324.63 1968.68C2319.81 1969.36 2315 1968.68 2310.22 1967.3C2304.03 1966.61 2302.65 1969.36 2302.65 1974.83C2303.34 1987.86 2303.34 2000.25 2303.34 2013.28ZM2321.44 2262.36C2322.13 2294.62 2319.38 2324.81 2316.63 2355.01C2314.6 2371.48 2315.94 2388.6 2311.16 2404.39C2308.41 2411.95 2304.97 2416.08 2296.75 2414.7C2276.15 2411.95 2255.54 2413.33 2234.98 2414.7C2230.16 2414.7 2226.03 2412.64 2221.94 2416.08C2219.19 2418.8 2218.5 2414.02 2215.75 2413.33C2204.09 2411.95 2198.59 2405.07 2198.59 2393.42C2198.59 2383.14 2197.21 2372.17 2199.27 2362.54C2203.4 2341.28 2199.96 2319.31 2204.09 2297.37C2205.46 2289.8 2206.15 2280.9 2204.78 2273.33C2202.02 2249.33 2206.15 2225.98 2204.78 2201.97C2203.4 2164.9 2202.71 2128.55 2202.02 2091.48C2202.02 2065.41 2201.34 2039.35 2199.27 2013.97C2197.9 1989.93 2202.02 1965.93 2202.02 1941.89C2202.02 1930.23 2199.27 1919.26 2199.27 1908.29C2199.27 1900.03 2197.21 1891.82 2200.65 1884.25C2202.71 1880.16 2202.02 1876.03 2203.4 1871.22C2206.84 1860.94 2217.12 1851.99 2228.1 1852.68C2232.91 1853.37 2238.42 1851.99 2243.19 1851.99C2250.76 1851.34 2258.29 1851.99 2265.86 1852.68C2286.43 1853.37 2307.72 1852.68 2328.32 1848.59C2337.23 1847.21 2347.51 1847.9 2357.15 1849.28C2367.43 1850.65 2377.71 1850.65 2388.03 1853.37C2412.04 1860.25 2434.02 1870.53 2447.05 1894.57C2458.71 1915.82 2460.78 1938.48 2464.18 1960.42C2469 1988.55 2468.31 2016.68 2467.62 2044.85C2467.62 2048.25 2467.62 2051.69 2468.31 2054.44C2471.06 2063.35 2471.06 2072.29 2469 2081.2C2466.93 2090.79 2466.24 2101.11 2464.18 2110.7C2462.15 2123.05 2455.96 2133.37 2445.68 2141.58C2437.42 2148.46 2429.89 2157.37 2418.92 2160.81C2416.17 2162.18 2415.48 2163.56 2416.85 2166.28C2418.23 2169.03 2419.57 2172.47 2421.63 2175.91C2427.83 2187.56 2430.58 2199.22 2432.64 2212.25C2436.04 2231.48 2441.55 2250.01 2447.05 2268.55C2451.83 2282.96 2453.21 2297.37 2454.58 2311.09C2458.02 2333.03 2458.71 2354.32 2463.53 2375.57C2466.24 2387.26 2468.31 2398.92 2462.84 2410.58C2460.78 2415.39 2458.02 2418.14 2452.52 2416.77C2447.74 2415.39 2443.61 2418.8 2439.48 2418.14C2429.2 2416.08 2418.92 2420.17 2409.97 2418.8C2401.75 2416.77 2392.12 2422.92 2385.28 2415.39C2377.71 2419.48 2370.87 2416.08 2363.99 2415.39C2350.95 2414.7 2351.64 2414.7 2349.58 2401.67C2346.14 2385.89 2342.73 2370.1 2338.61 2355.01C2332.41 2332.34 2327.63 2309.71 2327.63 2286.36C2326.95 2278.83 2326.26 2271.27 2321.44 2262.36ZM1882.77 1970.05C1866.98 1970.05 1851.19 1973.46 1835.41 1970.74C1814.15 1967.3 1810.71 1963.86 1805.9 1943.95C1801.8 1928.17 1801.8 1912.38 1805.21 1896.6C1806.58 1892.5 1805.21 1887 1805.9 1882.87C1807.96 1869.84 1814.15 1864.37 1832.69 1864.37C1853.95 1863.69 1875.24 1860.25 1896.49 1860.25C1928.75 1859.56 1961.02 1855.43 1993.28 1856.12C2026.23 1857.5 2059.14 1857.5 2092.09 1857.5C2105.82 1857.5 2120.23 1855.43 2133.95 1861.62C2137.39 1863.69 2138.08 1864.37 2138.08 1868.47C2138.77 1877.41 2137.39 1885.63 2138.77 1894.57C2139.46 1895.94 2140.83 1896.6 2139.46 1897.97C2131.92 1908.98 2138.08 1922.01 2133.95 1932.98C2133.26 1934.36 2133.26 1936.42 2134.64 1937.11C2141.52 1941.2 2137.39 1947.39 2137.39 1952.2C2137.39 1963.17 2129.17 1964.55 2121.6 1966.61C2112.7 1968.68 2104.44 1969.36 2095.53 1969.36C2081.81 1968.68 2068.09 1969.36 2054.36 1970.05C2048.17 1970.05 2042.7 1970.74 2037.2 1970.05C2024.85 1970.05 2024.17 1970.05 2024.17 1981.71C2024.85 1998.87 2024.17 2015.99 2026.23 2033.16C2027.61 2046.88 2027.61 2060.6 2025.54 2074.36C2022.79 2094.92 2023.48 2116.21 2023.48 2136.77C2023.48 2161.5 2021.41 2185.5 2017.97 2210.19C2016.6 2221.88 2020.04 2233.54 2020.73 2245.2C2021.41 2263.74 2020.73 2282.27 2021.41 2301.46C2021.41 2308.34 2022.1 2314.49 2022.79 2321.37C2026.23 2348.13 2023.48 2374.88 2020.04 2400.98C2019.35 2409.2 2012.51 2416.08 2002.87 2416.77L1978.87 2418.8C1968.58 2420.17 1958.95 2416.08 1948.67 2416.77C1944.54 2416.77 1940.41 2416.08 1936.32 2416.77C1926.69 2417.46 1917.09 2414.02 1908.88 2409.89C1906.81 2408.51 1906.12 2403.7 1906.12 2400.98C1905.44 2384.51 1901.31 2368.04 1902.68 2351.57C1906.12 2319.31 1904.75 2287.05 1906.81 2254.79C1908.19 2237.67 1905.44 2220.51 1906.81 2203.35C1908.19 2177.97 1905.44 2153.24 1907.5 2127.86V2125.8C1901.31 2096.98 1908.19 2068.16 1903.37 2040.03C1899.24 2020.12 1903.37 2000.9 1906.12 1981.02C1907.5 1970.74 1906.81 1970.05 1895.8 1970.05H1882.77ZM1574.59 2245.89C1573.22 2245.89 1573.22 2246.58 1573.22 2247.26C1573.22 2247.95 1573.22 2249.33 1574.59 2248.64C1574.59 2247.95 1575.28 2247.26 1575.28 2246.58L1574.59 2245.89ZM1551.93 2175.91C1551.93 2175.22 1551.24 2174.53 1550.55 2173.84C1549.17 2173.84 1549.86 2175.22 1549.17 2175.91C1549.17 2176.59 1549.86 2177.97 1550.55 2177.97C1551.93 2177.97 1551.93 2176.59 1551.93 2175.91ZM1708.42 2147.09C1708.42 2147.78 1709.11 2148.46 1709.8 2149.15V2147.09C1709.8 2146.4 1709.8 2145.71 1709.11 2145.71C1707.73 2145.02 1707.73 2146.4 1708.42 2147.09ZM1551.24 2142.96C1549.86 2142.96 1549.17 2143.65 1549.17 2145.02C1549.17 2145.71 1549.17 2147.09 1550.55 2146.4C1551.24 2146.4 1551.93 2145.02 1552.61 2144.34C1552.61 2144.34 1551.93 2142.96 1551.24 2142.96ZM1573.9 2142.27C1575.97 2140.9 1576.66 2138.83 1575.28 2136.08C1574.59 2138.15 1572.53 2139.52 1573.9 2142.27ZM1549.86 2125.8C1549.17 2128.55 1549.17 2130.62 1550.55 2132.68C1551.24 2129.93 1552.61 2128.55 1549.86 2125.8ZM1557.18 2072.29C1555.8 2074.36 1555.8 2076.38 1557.18 2078.45C1558.55 2076.38 1558.55 2074.36 1557.18 2072.29ZM1470.82 1998.87C1469.44 2000.9 1469.44 2002.27 1470.82 2004.34C1472.19 2002.27 1470.82 2000.9 1470.82 1998.87ZM1575.97 2125.11C1578 2126.49 1577.34 2128.55 1577.34 2129.93C1578 2149.15 1578.68 2167.65 1578.68 2186.19V2283.65C1578.68 2285.68 1578 2289.11 1580.75 2289.8C1584.19 2291.87 1583.5 2287.74 1584.88 2286.36C1586.25 2285.68 1587.63 2285.68 1589 2285.68C1597.91 2283.65 1606.17 2281.58 1615.07 2280.9C1622.61 2280.9 1624.67 2276.08 1624.67 2271.27C1624.67 2251.39 1628.8 2232.17 1628.11 2212.94C1626.73 2177.97 1626.05 2142.96 1626.05 2107.95C1626.05 2095.61 1624.67 2083.26 1623.29 2070.92C1621.27 2052.38 1615.07 2034.53 1619.2 2015.99C1621.95 2002.27 1614.39 1991.99 1608.19 1981.02C1606.85 1978.27 1604.1 1976.89 1602.04 1976.21L1580.06 1974.14C1577.34 1974.14 1576.66 1975.52 1575.97 1978.96C1575.97 1989.93 1573.9 2000.9 1575.28 2012.59C1576.66 2023.56 1578 2035.22 1574.59 2046.88C1574.59 2048.25 1573.9 2049.63 1574.59 2051C1580.75 2060.6 1577.34 2070.23 1576.66 2080.51C1575.97 2088.08 1573.22 2095.61 1577.34 2103.86C1578 2104.55 1578 2107.26 1577.34 2108.64C1573.22 2114.14 1575.28 2119.65 1575.97 2125.11C1573.9 2126.49 1573.9 2127.86 1575.97 2129.24C1576.66 2127.86 1576.66 2126.49 1575.97 2125.11ZM1460.64 1945.33C1455.86 1950.83 1459.27 1958.36 1453.11 1961.8C1455.17 1943.26 1453.8 1926.1 1453.8 1908.29C1453.8 1897.28 1453.8 1886.31 1456.55 1875.34C1458.58 1865.06 1467.52 1861.62 1476.43 1860.94C1503.88 1858.18 1530.67 1850.65 1558.12 1853.37C1579.37 1856.12 1599.97 1854.06 1620.58 1853.37C1646.65 1852.68 1670.66 1858.18 1692.63 1871.22C1709.11 1880.85 1720.08 1896.6 1726.96 1914.44L1737.24 1943.26C1747.53 1967.99 1757.81 1993.37 1755.78 2021.5C1754.41 2033.16 1754.41 2044.85 1755.78 2056.51C1761.25 2112.77 1758.5 2169.72 1758.5 2225.98C1757.81 2261.67 1753.72 2297.37 1744.78 2331.65C1741.37 2345.37 1733.12 2355.69 1724.21 2366.66C1709.11 2385.2 1691.26 2398.23 1669.28 2407.14C1656.24 2412.64 1643.21 2416.08 1629.49 2416.08C1600.66 2417.46 1572.53 2419.48 1544.39 2419.48C1523.79 2418.8 1503.22 2418.14 1483.31 2419.48C1475.74 2419.48 1470.27 2415.39 1463.39 2414.02C1459.95 2413.33 1458.58 2409.2 1459.27 2406.45C1462.02 2383.14 1457.93 2359.78 1458.58 2335.78C1459.27 2320.68 1457.24 2304.9 1455.86 2289.11C1455.17 2281.58 1457.24 2273.33 1457.24 2265.11C1454.49 2221.88 1456.55 2178.66 1454.49 2136.08C1453.11 2116.89 1452.42 2098.36 1453.11 2079.13C1453.8 2060.6 1454.49 2041.41 1453.11 2022.19C1451.73 2008.46 1454.49 1994.06 1455.17 1980.33C1455.17 1978.27 1455.17 1975.52 1458.58 1976.9C1460.64 1978.27 1460.64 1976.21 1460.64 1975.52C1460.64 1974.14 1460.64 1973.46 1458.58 1972.77C1452.42 1971.39 1452.42 1969.36 1456.55 1964.55C1460.64 1959.73 1461.33 1952.89 1460.64 1945.33ZM1071.65 2379.7C1070.31 2360.47 1068.24 2339.22 1068.24 2318.62C1068.24 2296.68 1066.18 2275.39 1064.12 2253.45C1062.74 2239.7 1064.12 2226.66 1066.87 2212.94C1067.56 2210.88 1067.56 2207.48 1067.56 2205.41C1064.8 2166.96 1070.99 2129.24 1069.62 2090.79C1068.93 2066.1 1068.24 2040.72 1066.18 2015.99C1064.8 2002.27 1066.18 1989.24 1068.93 1976.21C1070.99 1961.11 1070.99 1944.64 1068.24 1929.54C1066.18 1911 1065.49 1892.5 1068.93 1873.97C1070.31 1867.09 1075.09 1864.37 1079.21 1864.37C1088.12 1865.06 1095 1860.94 1103.22 1858.18C1111.48 1856.12 1120.38 1858.87 1128.64 1857.5C1133.42 1856.12 1143.74 1857.5 1154.71 1856.81C1165.68 1856.12 1177.34 1856.81 1189.04 1858.18C1191.75 1858.87 1195.88 1860.94 1196.57 1865.75C1201.38 1888.38 1205.51 1911 1201.38 1934.36C1200.01 1942.57 1199.32 1951.52 1200.7 1959.73C1202.07 1970.05 1201.38 1981.02 1199.32 1991.99C1195.19 2013.97 1199.32 2035.22 1202.07 2057.19C1205.51 2087.39 1206.16 2116.89 1203.45 2147.09C1202.07 2169.03 1203.45 2191.69 1202.07 2213.63C1201.38 2230.79 1200.01 2247.95 1199.32 2264.42C1198.63 2280.21 1206.16 2288.43 1221.26 2287.74C1243.93 2287.05 1265.87 2289.11 1287.85 2285.68C1293.36 2284.3 1298.14 2286.36 1303.64 2287.05C1319.43 2287.74 1335.21 2286.36 1351 2284.99C1361.28 2283.65 1370.88 2284.99 1380.51 2289.8C1383.95 2292.55 1388.73 2293.24 1393.55 2291.18C1397.67 2289.11 1403.14 2292.55 1403.83 2295.99C1405.21 2306.27 1409.33 2316.56 1411.4 2326.87C1414.15 2343.35 1413.46 2352.25 1409.33 2368.73C1405.89 2381.76 1405.89 2394.79 1401.77 2407.83C1401.08 2411.95 1400.39 2414.02 1395.61 2413.33C1383.26 2411.95 1370.19 2414.7 1357.84 2416.77C1341.37 2420.17 1324.24 2419.48 1307.77 2416.77C1294.73 2414.7 1281.66 2415.39 1268.62 2416.08C1237.74 2417.46 1206.85 2411.95 1176.65 2411.95C1156.09 2412.64 1135.48 2411.95 1114.92 2411.95C1106.66 2412.64 1099.82 2411.27 1092.25 2408.51C1090.19 2407.14 1087.43 2406.45 1086.09 2405.76C1081.97 2403.7 1076.46 2407.83 1073.71 2403.05C1070.99 2398.23 1070.99 2391.35 1070.99 2385.89C1070.99 2383.82 1070.99 2382.45 1071.65 2379.7ZM802.721 2189.63H847.331C850.046 2189.63 852.11 2188.94 851.422 2185.5C850.047 2177.28 850.734 2167.65 848.019 2160.12C840.451 2136.77 837.699 2112.77 836.323 2088.08C835.635 2082.57 835.635 2076.38 831.544 2069.54C821.224 2110.7 819.196 2151.18 802.721 2189.63ZM933.907 2068.85C934.595 2067.48 935.283 2066.79 935.283 2065.41C935.971 2064.04 934.595 2063.35 933.219 2064.04C932.531 2064.04 932.531 2065.41 932.531 2066.79C932.531 2067.48 933.219 2068.16 933.907 2068.85ZM931.843 2061.97C933.907 2055.82 931.843 2053.07 929.091 2049.63L931.843 2061.97ZM713.212 1981.71C715.964 1978.96 715.964 1977.58 714.588 1975.52C712.524 1976.9 713.212 1978.96 713.212 1981.71ZM717.34 1963.86C719.404 1961.8 721.468 1960.42 719.404 1957.67C718.028 1959.05 716.652 1960.42 717.34 1963.86ZM975.656 2412.64C973.592 2405.07 970.84 2405.07 966.749 2409.2C963.309 2413.33 959.869 2418.8 953.025 2413.33C952.337 2412.64 946.146 2414.02 942.706 2414.7C934.486 2416.77 925.543 2420.17 917.323 2418.8C908.416 2417.46 899.472 2414.7 890.565 2411.95C887.813 2411.27 887.813 2408.51 887.125 2405.76C876.841 2374.19 876.153 2341.28 869.961 2309.03C869.274 2304.9 868.586 2304.21 865.146 2303.52C845.267 2302.84 825.352 2301.46 805.437 2300.08C797.217 2299.4 788.31 2298.06 779.366 2296.68C775.926 2296.68 773.899 2297.37 773.211 2302.15C767.707 2323.44 762.891 2344 754.672 2364.6C750.544 2374.88 750.544 2387.26 745.728 2398.23C742.324 2405.76 734.756 2408.51 726.537 2409.89C716.905 2411.27 707.31 2406.45 698.402 2408.51C690.835 2410.58 684.679 2411.27 677.799 2409.2C668.892 2406.45 662.012 2414.02 653.793 2412.64C645.537 2411.27 638.006 2414.02 630.438 2414.02C624.282 2413.33 618.779 2400.3 620.154 2394.79C622.218 2383.82 624.97 2373.54 627.686 2362.54C629.062 2357.07 635.254 2353.63 636.63 2347.44C640.07 2334.4 644.161 2322.06 646.913 2309.71C647.601 2304.9 644.161 2298.74 646.913 2293.93C657.884 2275.39 659.948 2254.14 668.892 2234.92C671.608 2229.41 676.423 2222.57 670.92 2214.32C669.58 2212.94 671.608 2207.48 672.984 2204.04C680.551 2190.32 684.679 2175.22 688.083 2160.81C690.147 2153.93 688.083 2145.71 690.835 2138.83C696.339 2125.8 696.339 2112.08 699.778 2098.36C703.182 2084.64 707.998 2070.92 710.062 2057.19C713.502 2037.97 718.969 2019.43 724.473 2000.9C725.161 1998.87 723.785 1995.43 728.601 1996.12C731.317 1996.81 732.005 1994.06 727.913 1989.93C726.537 1989.24 727.225 1987.86 727.913 1987.18C728.601 1982.4 729.289 1977.58 730.629 1972.77C730.629 1970.74 730.629 1966.61 734.756 1970.74C736.132 1972.08 736.82 1967.99 736.132 1967.3C728.601 1959.73 735.444 1952.2 737.508 1946.7C749.168 1924.76 756.735 1900.72 766.331 1878.1C769.083 1872.59 767.707 1865.75 773.211 1860.94C775.238 1858.87 777.99 1855.43 780.742 1855.43C791.714 1854.74 802.721 1852.68 814.38 1856.12C817.132 1856.81 819.848 1856.81 822.6 1855.43C828.104 1851.99 833.608 1858.18 840.451 1856.12C846.643 1854.06 854.174 1853.37 861.742 1854.74C867.21 1856.12 872.713 1860.25 879.557 1857.5C881.621 1856.81 886.437 1860.25 887.813 1865.06C890.565 1872.59 894.004 1880.16 900.848 1884.94C906.352 1889.07 904.288 1895.26 907.04 1900.03C916.635 1919.26 920.763 1940.55 927.607 1961.11C935.862 1985.8 939.266 2010.53 943.394 2035.91C948.21 2060.6 954.365 2085.32 959.181 2110.7C960.557 2118.27 959.181 2127.18 962.621 2134.05C967.437 2143.65 968.813 2153.24 966.061 2163.56C964.685 2169.03 970.152 2169.03 971.528 2173.15C977.72 2199.22 977.72 2225.29 985.252 2251.39C990.755 2267.18 992.131 2284.99 995.571 2301.46C999.011 2317.93 1003.1 2333.72 1005.17 2350.19C1006.54 2365.29 1011.36 2380.38 1008.61 2395.48C1005.17 2411.27 996.947 2416.08 983.224 2407.83C976.344 2403.7 976.344 2407.14 975.656 2412.64ZM364.156 2261.67C338.773 2303.52 340.149 2348.13 315.418 2390.67C312.666 2389.29 310.638 2398.23 309.262 2396.17C304.447 2402.36 303.071 2396.17 299.631 2403.05C298.255 2407.14 294.851 2408.51 290.723 2410.58C281.128 2414.7 247.49 2416.77 236.518 2418.8C229.638 2419.48 222.107 2420.17 214.539 2416.08C210.411 2414.02 204.944 2411.95 198.752 2414.7C193.248 2416.77 187.093 2415.39 182.277 2409.89C171.305 2398.92 165.802 2385.89 163.05 2371.48C158.958 2350.88 152.766 2330.28 150.014 2309.71C147.299 2284.3 141.795 2259.61 135.603 2235.61C131.512 2216.38 126.008 2197.85 121.192 2178.66C114.348 2146.4 107.469 2114.14 104.029 2080.51C102.689 2065.41 104.717 2071.6 102.001 2056.51C101.313 2032.47 89.6175 2010.53 86.2138 1986.49C86.2138 1984.46 85.5258 1982.4 85.5258 1980.33C88.9295 1965.24 86.9018 1951.52 84.1499 1937.8C80.022 1919.26 82.086 1900.03 80.0221 1880.85C79.3341 1873.97 86.2138 1867.78 95.1213 1867.09C109.533 1866.4 123.256 1863 136.979 1859.56C147.95 1857.5 168.554 1855.43 180.213 1856.12C204.256 1856.12 213.163 1864.37 218.667 1876.03C226.886 1895.94 225.511 1916.51 229.638 1936.42C231.702 1948.08 233.078 1959.05 233.766 1970.05C239.234 1982.4 239.922 1995.43 242.674 2008.46C244.738 2019.43 246.802 2031.09 245.426 2042.79C252.957 2070.92 252.305 2077.76 252.957 2107.95C253.645 2125.8 255.021 2131.99 255.709 2149.8C257.085 2155.99 255.709 2151.87 257.773 2155.99C261.213 2155.99 258.461 2159.43 261.901 2153.93C268.744 2139.52 265.341 2149.15 270.12 2134.05C274.936 2119.65 279.064 2105.2 283.844 2090.79C285.219 2086.7 286.595 2082.57 290.723 2080.51C294.851 2077.76 294.163 2072.29 294.851 2068.85C296.915 2061.29 301.007 2056.51 304.447 2049.63C307.886 2044.16 309.95 2038.66 311.326 2032.47C313.354 2023.56 315.418 2022.87 325.05 2022.87C329.141 2022.19 331.893 2018.75 337.397 2018.75C360.716 2017.37 376.503 2016.68 399.17 2018.75C403.261 2019.43 405.325 2023.56 410.141 2023.56C428.68 2023.56 429.368 2023.56 433.46 2042.79C435.524 2050.32 443.092 2071.6 445.843 2079.13C451.311 2100.42 452.687 2127.86 459.567 2149.8C461.594 2143.65 463.658 2131.3 464.346 2125.11C464.346 2110.02 469.162 2094.92 473.978 2084.64C481.509 2068.85 483.573 2052.38 487.013 2035.22C487.013 2032.47 487.701 2029.75 489.077 2027.69C501.425 2002.96 495.921 1982.4 504.864 1956.3C510.332 1940.55 508.956 1924.07 517.212 1909.67C523.367 1900.03 526.807 1890.44 530.247 1880.16C534.375 1865.06 554.942 1859.56 569.353 1860.25C579.673 1860.25 589.956 1861.62 600.239 1858.87C604.367 1858.18 604.367 1863 607.807 1862.31C615.339 1861.62 622.218 1863.69 629.75 1863.69C635.942 1863 640.721 1865.75 645.537 1870.53C648.289 1873.28 652.417 1873.97 653.105 1878.78C654.481 1891.13 663.388 1902.79 660.636 1915.82C655.82 1927.48 655.133 1939.17 649.665 1950.14C639.381 1970.74 635.942 1992.68 632.502 2006.4C631.814 2008.46 631.814 2010.53 630.438 2012.59C620.154 2031.78 622.218 2053.07 620.842 2073.67C618.091 2085.32 618.091 2098.36 613.963 2109.33C610.523 2114.83 610.523 2121.67 609.183 2128.55C605.743 2141.58 599.551 2153.93 594.772 2166.28C591.332 2177.28 589.268 2188.94 586.516 2199.91C582.388 2221.2 574.857 2241.76 567.977 2261.67C563.885 2276.08 562.509 2290.49 561.133 2304.9C559.758 2312.47 556.318 2319.31 551.502 2324.81C544.658 2332.34 541.218 2341.97 538.467 2351.57C535.751 2363.91 530.247 2375.57 526.119 2387.95C521.991 2399.61 512.396 2405.76 500.049 2405.76H485.637C480.134 2405.76 473.978 2405.76 469.85 2410.58C467.098 2413.33 462.97 2413.33 459.567 2411.95C449.935 2408.51 441.028 2406.45 430.744 2408.51C421.801 2409.2 412.893 2405.07 405.325 2400.98C401.234 2398.92 401.885 2393.42 401.234 2389.29C399.17 2376.26 392.978 2364.6 388.162 2352.25C382.007 2337.16 375.127 2322.06 370.347 2306.96C365.531 2292.55 362.78 2277.46 364.156 2261.67Z" fill="#BF4C0C"/>
</g>
<mask id="mask1_7_79" style="mask-type:luminance" maskUnits="userSpaceOnUse" x="0" y="0" width="5132" height="2463">
<path d="M5132 0H0V2463H5132V0Z" fill="white"/>
</mask>
<g mask="url(#mask1_7_79)">
<path d="M3983.12 965.585L4181.8 801.329L4158.26 772.873L4088.23 830.763L4087.76 830.22C4089.79 823.196 4090.26 816.463 4089.18 810.018C4088.05 803.574 4085.19 797.564 4080.59 791.989C4074.73 784.929 4069.15 780.621 4063.79 779.1C4052.86 775.299 4042.25 776.711 4032.04 783.264C4026.75 786.739 4018.97 792.677 4008.76 801.112L3954.88 845.643C3947.09 852.123 3941.15 857.626 3937.1 862.224C3933.08 866.822 3930.18 871.275 3928.41 875.547C3923.3 887.566 3925.69 899.55 3935.54 911.461C3938.47 914.972 3941.37 917.76 3944.27 919.751C3947.16 921.742 3950.1 923.191 3953.1 924.168C3956.11 925.146 3959.19 925.725 3962.34 925.942C3965.49 926.159 3968.85 926.34 3972.44 926.521L3959.58 937.129L3983.12 965.585ZM4034.25 827.975C4038.7 824.283 4043.41 822.038 4048.37 821.205C4053.33 820.409 4058.04 822.69 4062.53 828.084C4065.89 832.175 4067.27 836.773 4066.62 841.841C4065.97 846.91 4063.4 851.29 4058.94 854.983L4003.98 900.455C3998.76 904.763 3993.44 906.935 3988.04 907.044C3982.61 907.116 3978.16 905.016 3974.61 900.744C3970.63 895.929 3969.47 890.933 3971.13 885.756C3972.84 880.615 3976.57 875.655 3982.32 870.876L4034.25 827.975ZM3900.89 794.813C3892.92 802.162 3887.38 809.041 3884.2 815.413C3881.05 821.784 3879.78 827.975 3880.43 833.985C3880.86 840.14 3882.89 846.149 3886.51 852.014C3890.1 857.879 3894.77 863.889 3900.53 870.116L3926.05 846.511C3921.82 840.864 3919.79 836.266 3919.93 832.682C3920.08 829.098 3922.69 824.934 3927.83 820.191L4079.11 680.337L4054.02 653.221L3900.89 794.813ZM3858.74 744.598C3853.49 749.92 3848.17 752.817 3842.77 753.287C3837.41 753.758 3832.49 751.767 3828.04 747.386C3823.73 743.114 3821.92 738.263 3822.57 732.832C3823.22 727.329 3825.97 722.116 3830.9 717.156C3837.85 710.096 3844.66 707.236 3851.32 708.576C3857.98 709.879 3864.17 713.355 3869.82 718.93C3871.74 720.813 3873.88 723.419 3876.3 726.823L3858.74 744.598ZM3847.12 808.932L3936.92 717.989C3943.69 711.11 3948.61 704.087 3951.62 696.918C3954.66 689.714 3956.14 682.727 3956.11 675.884C3955.89 668.897 3954.22 662.163 3951.11 655.683C3948 649.238 3943.69 643.265 3938.18 637.87C3932.17 631.933 3925.76 627.552 3919.03 624.801C3912.26 622.013 3905.45 620.674 3898.64 620.71C3884.3 620.782 3871.02 626.358 3858.81 637.364L3884.3 662.525C3889.41 659.086 3894.48 657.638 3899.51 658.217C3904.55 658.76 3908.78 660.751 3912.22 664.154C3917.22 669.042 3919.21 673.893 3918.23 678.708C3917.22 683.487 3914.54 688.085 3910.12 692.574L3896.65 706.223C3895.42 704.702 3894.23 703.326 3893.03 702.132C3891.84 700.973 3890.86 699.851 3890.17 698.837C3889.48 697.823 3888.65 696.81 3887.6 695.796C3886.59 694.782 3885.64 693.841 3884.78 692.972C3876.52 684.863 3868.84 679.034 3861.75 675.594C3854.65 672.155 3847.77 670.707 3841.11 671.25C3834.12 671.829 3827.24 674.291 3820.54 678.672C3813.84 683.089 3806.82 688.99 3799.54 696.339C3792.41 703.58 3787.52 710.35 3784.8 716.685C3782.12 723.021 3781.04 728.814 3781.62 734.099C3781.98 739.566 3783.28 744.345 3785.53 748.4C3787.77 752.491 3790.45 756.075 3793.53 759.116C3799.9 765.379 3806.09 768.963 3812.18 769.869C3818.22 770.774 3825.36 770.52 3833.54 769.108L3834.05 769.615L3820.83 783.01L3847.12 808.932ZM3845.24 553.552L3756.59 628.638L3756.02 628.168L3812.18 527.015L3789.58 508.877L3702.1 584.868L3701.52 584.434L3755.44 481.435L3724.95 456.961L3643.88 627.299L3669.29 647.682L3753.34 575.419L3753.92 575.89L3701.48 673.531L3726.9 693.95L3875.72 578.026L3845.24 553.552ZM3602.27 596.091L3621.9 567.418L3572.54 533.713L3689.32 468.764L3705.87 444.58L3625.74 389.804L3607.34 416.703L3652.78 447.766L3534.81 514.489L3518.27 538.709L3602.27 596.091ZM3469.02 509.963L3522.72 415.146C3526.38 408.629 3530.54 403.778 3535.14 400.556C3539.74 397.334 3544.48 395.307 3549.41 394.474C3554.08 393.533 3558.71 393.569 3563.24 394.619C3567.8 395.669 3571.75 397.117 3575.11 399.036C3578.45 400.918 3581.38 403.416 3583.8 406.457L3603.07 372.426C3593.83 367.176 3585.11 364.461 3576.89 364.28C3568.71 364.063 3559.65 365.04 3549.84 367.249L3559.47 350.233L3527.32 332.059L3436.87 491.789L3469.02 509.963ZM3402.03 412.105C3398.78 418.839 3394.72 423.292 3389.76 425.5C3384.84 427.673 3379.55 427.419 3373.9 424.704C3368.43 422.097 3365.14 418.079 3363.98 412.72C3362.82 407.326 3363.73 401.497 3366.77 395.198C3371.04 386.256 3376.54 381.332 3383.28 380.427C3390.01 379.486 3396.97 380.753 3404.17 384.192C3406.56 385.351 3409.46 387.125 3412.82 389.586L3402.03 412.105ZM3411.99 476.692L3467.28 361.456C3471.45 352.767 3473.8 344.513 3474.31 336.729C3474.85 328.982 3473.95 321.85 3471.7 315.405C3469.2 308.852 3465.44 303.06 3460.4 297.955C3455.33 292.85 3449.36 288.615 3442.37 285.284C3434.77 281.627 3427.31 279.6 3419.99 279.166C3412.72 278.767 3405.84 279.672 3399.39 281.953C3385.89 286.696 3375.13 296.254 3367.17 310.663L3399.5 326.158C3403.19 321.234 3407.5 318.229 3412.46 317.107C3417.39 316.021 3422.06 316.491 3426.4 318.591C3432.7 321.596 3436.18 325.542 3436.8 330.394C3437.41 335.245 3436.36 340.494 3433.65 346.142L3425.35 363.447C3423.72 362.398 3422.13 361.492 3420.61 360.768C3419.09 360.044 3417.86 359.32 3416.84 358.56C3415.87 357.836 3414.74 357.148 3413.44 356.533C3412.14 355.917 3410.91 355.338 3409.82 354.795C3399.39 349.799 3390.23 346.794 3382.41 345.853C3374.55 344.911 3367.56 345.78 3361.48 348.459C3355.04 351.283 3349.35 355.845 3344.46 362.18C3339.54 368.552 3334.83 376.372 3330.34 385.749C3325.96 394.872 3323.53 402.873 3323.03 409.752C3322.56 416.594 3323.42 422.459 3325.67 427.274C3327.81 432.307 3330.59 436.398 3334.03 439.511C3337.51 442.661 3341.2 445.159 3345.11 447.041C3353.15 450.879 3360.21 452.255 3366.22 451.132C3372.27 450.01 3378.9 447.44 3386.18 443.457L3386.83 443.747L3378.68 460.726L3411.99 476.692ZM3328.24 236.011L3268.28 335.498L3267.59 335.245L3288.48 221.421L3261.29 211.465L3202.67 311.459L3201.98 311.206L3220.12 196.404L3183.4 182.937L3161.06 370.254L3191.66 381.441L3248.18 286.117L3248.87 286.37L3230.4 395.669L3261 406.855L3364.96 249.479L3328.24 236.011ZM3030.46 334.448L3061.02 214.832C3063.04 206.903 3065.87 201.147 3069.53 197.599C3073.18 194.015 3078.4 193.11 3085.17 194.847C3090.78 196.296 3094.62 199.264 3096.72 203.79C3098.82 208.315 3099 213.818 3097.33 220.371L3065.9 343.499L3101.68 352.623L3136.55 216.171C3138.58 208.243 3139.23 201.256 3138.54 195.21C3137.82 189.164 3136.15 183.95 3133.54 179.57C3130.94 175.153 3127.61 171.641 3123.55 168.962C3119.49 166.319 3115.26 164.4 3110.8 163.278C3102.62 161.178 3095.42 161.287 3089.22 163.568C3083.07 165.848 3077.38 169.324 3072.21 173.994L3071.48 173.813L3094.26 84.7163L3058.45 75.5568L2994.68 325.325L3030.46 334.448ZM2920.85 183.914C2921.86 176.999 2924.22 172.039 2927.95 169.034C2931.68 166.029 2936.31 164.943 2941.82 165.74C2947.28 166.573 2951.41 168.926 2954.13 172.872C2956.84 176.782 2957.64 182.466 2956.55 189.851L2993.12 195.21C2995.62 178.013 2992.91 163.35 2984.9 151.222C2980.89 145.502 2975.67 140.723 2969.26 136.849C2962.89 132.976 2955.5 130.441 2947.14 129.21C2935.7 127.545 2925.59 128.486 2916.9 132.107C2908.21 135.727 2901.12 141.121 2895.69 148.398C2892.35 152.779 2889.75 158.028 2887.9 164.074C2886.02 170.157 2884.53 176.891 2883.45 184.276L2874.72 244.121C2873.63 251.506 2873.09 258.385 2873.16 264.757C2873.2 271.092 2874.18 276.849 2876.1 281.989C2879.25 290.497 2884.46 297.738 2891.77 303.675C2899.09 309.649 2908.47 313.45 2919.95 315.116C2928.27 316.347 2936.02 316.021 2943.12 314.138C2950.22 312.256 2956.55 309.142 2962.06 304.834C2973.28 296.471 2980.05 284.306 2982.41 268.304L2945.87 262.946C2944.79 266.929 2942.83 270.803 2939.97 274.532C2937.11 278.26 2932.22 279.6 2925.27 278.586C2919.8 277.79 2915.64 275.581 2912.88 272.033C2910.1 268.449 2909.16 263.779 2909.99 258.059L2920.85 183.914ZM2849.66 98.9443C2850.64 83.9922 2845.97 70.3797 2835.65 58.1067C2830.47 52.2055 2824.21 47.318 2816.86 43.4442C2809.47 39.5705 2801.22 37.3258 2792.05 36.7104C2781.23 35.9863 2771.78 37.2534 2763.7 40.4756C2755.63 43.6977 2748.86 48.2593 2743.39 54.1605C2737.67 60.0979 2733.21 67.3024 2729.99 75.774C2726.77 84.2819 2724.81 93.3327 2724.2 102.963C2723.11 119.11 2724.96 132.722 2729.67 143.8C2734.37 154.879 2744.48 164.183 2759.94 171.75L2785.57 184.312C2790.03 186.557 2793.58 188.584 2796.25 190.467C2798.9 192.349 2801 194.63 2802.52 197.418C2803.79 200.169 2804.51 203.717 2804.69 208.062C2804.91 212.442 2804.76 217.982 2804.33 224.752C2803.93 230.508 2803.42 235.758 2802.74 240.428C2802.08 245.098 2800.67 249.044 2798.5 252.303C2796.36 255.525 2793.47 257.95 2789.88 259.507C2786.26 261.1 2781.34 261.679 2775.07 261.281C2765.66 260.629 2759.18 257.48 2755.56 251.796C2751.93 246.148 2750.34 239.921 2750.78 233.187L2751.54 221.602L2714.71 219.176L2713.81 232.897C2713.23 241.586 2714.31 249.696 2717.1 257.262C2719.85 264.829 2723.8 271.563 2728.98 277.464C2734.16 283.365 2740.49 288.144 2748.02 291.764C2755.52 295.421 2763.7 297.521 2772.61 298.1C2784.41 298.897 2794.55 297.629 2802.99 294.299C2811.43 291.004 2818.41 286.153 2823.92 279.745C2829.17 273.554 2833.19 265.879 2835.98 256.756C2838.73 247.632 2840.5 237.64 2841.19 226.815C2841.84 217.402 2841.88 209.003 2841.41 201.618C2840.94 194.196 2839.56 187.534 2837.32 181.561C2834.78 175.841 2831.12 170.7 2826.34 166.138C2821.57 161.613 2815.19 157.485 2807.19 153.829L2779.74 140.759C2775.07 138.515 2771.38 136.343 2768.77 134.207C2766.13 132.107 2764.17 129.681 2762.87 126.93C2761.6 124.214 2760.91 121.137 2760.77 117.734C2760.63 114.331 2760.73 110.095 2761.06 105.063C2761.35 100.718 2762 96.5911 2762.98 92.6449C2763.96 88.7349 2765.51 85.2594 2767.65 82.2545C2769.79 79.503 2772.47 77.2584 2775.72 75.5568C2778.98 73.819 2783.15 73.1312 2788.18 73.457C2797.59 74.0725 2804.08 77.5842 2807.62 83.9922C2811.21 90.4003 2812.69 97.822 2812.15 106.257L2811.61 114.548L2848.47 116.974L2849.66 98.9443ZM2466.72 299.114L2458.42 175.949C2457.88 167.767 2458.79 161.395 2461.14 156.906C2463.49 152.381 2468.16 149.883 2475.15 149.412C2480.95 149.05 2485.54 150.679 2488.91 154.3C2492.31 157.956 2494.23 163.133 2494.67 169.903L2503.18 296.688L2540.04 294.19L2531.78 171.026C2531.24 162.844 2532.15 156.472 2534.5 151.982C2536.85 147.457 2541.52 144.959 2548.51 144.488C2554.27 144.126 2558.87 145.755 2562.27 149.376C2565.64 153.032 2567.56 158.21 2568.03 164.98L2576.54 291.764L2613.4 289.266L2603.95 148.76C2603.4 140.578 2601.74 133.736 2598.95 128.233C2596.16 122.73 2592.72 118.313 2588.63 114.946C2584.5 111.616 2580.01 109.299 2575.09 108.068C2570.16 106.837 2565.42 106.366 2560.86 106.656C2550.97 107.344 2543.37 109.661 2538.08 113.643C2532.8 117.625 2528.02 122.296 2523.78 127.654C2520.09 123.309 2515.49 119.399 2509.95 115.888C2504.37 112.412 2497.64 110.891 2489.67 111.435C2481.24 112.014 2474.43 114.331 2469.29 118.422C2464.11 122.549 2459.8 127.581 2456.32 133.627L2455.6 133.7L2454.4 115.996L2417.58 118.458L2429.85 301.612L2466.72 299.114ZM2358.63 90.9433L2352.26 54.5949L2315.87 61.003L2322.28 97.3513L2358.63 90.9433ZM2396.94 308.454L2365.11 127.69L2328.72 134.098L2360.55 314.862L2396.94 308.454ZM2190.87 354.107L2156.87 235.432C2154.59 227.539 2154.16 221.131 2155.5 216.244C2156.87 211.32 2160.89 207.917 2167.63 205.998C2173.2 204.405 2178.02 205.021 2182.11 207.881C2186.2 210.705 2189.17 215.375 2191.02 221.892L2226.03 344.042L2261.55 333.869L2222.74 198.468C2220.49 190.612 2217.52 184.24 2213.87 179.352C2210.21 174.501 2206.15 170.845 2201.66 168.347C2197.21 165.885 2192.54 164.509 2187.69 164.256C2182.87 164.038 2178.24 164.545 2173.82 165.812C2165.71 168.129 2159.55 171.822 2155.35 176.927C2151.15 182.031 2148 187.896 2145.9 194.522L2145.21 194.703L2140.33 177.651L2104.8 187.824L2155.39 364.28L2190.87 354.107ZM2014.64 279.455C2012.22 272.866 2011.89 267.399 2013.74 262.983C2015.58 258.566 2019.1 255.38 2024.31 253.461C2029.53 251.542 2034.27 251.651 2038.54 253.787C2042.81 255.959 2046.15 260.304 2048.57 266.856L2055.89 286.551L2021.92 299.114L2014.64 279.455ZM2082.97 253.352C2077.25 237.966 2067.98 226.851 2055.16 220.009C2048.86 216.932 2041.98 215.23 2034.52 214.904C2027.1 214.578 2019.39 215.918 2011.46 218.85C2000.59 222.869 1992.23 228.553 1986.33 235.866C1980.43 243.215 1976.8 251.361 1975.5 260.34C1974.7 265.806 1974.92 271.635 1976.19 277.862C1977.49 284.089 1979.41 290.714 1982.02 297.702L2003.02 354.397C2005.63 361.42 2008.49 367.683 2011.57 373.259C2014.64 378.798 2018.26 383.359 2022.46 386.98C2029.31 392.917 2037.35 396.755 2046.62 398.492C2055.85 400.194 2065.92 399.036 2076.78 395.017C2084.71 392.084 2091.33 388.066 2096.66 383.034C2101.98 377.965 2106.04 372.209 2108.82 365.764C2114.65 353.057 2114.76 339.119 2109.15 323.949L2074.5 336.802C2075.47 340.82 2075.62 345.128 2074.9 349.763C2074.17 354.433 2070.51 357.945 2063.96 360.406C2058.75 362.325 2054.08 362.398 2049.91 360.587C2045.78 358.777 2042.71 355.157 2040.68 349.726L2031.99 326.303L2100.57 300.852L2082.97 253.352ZM1877.23 345.635C1873.97 338.901 1872.67 332.819 1873.25 327.425C1873.86 322.067 1876.98 317.976 1882.62 315.261C1887.62 312.835 1892.58 312.799 1897.47 315.116C1902.36 317.433 1906.27 321.632 1909.2 327.715L1940.31 391.903C1942.84 397.117 1943.35 402.185 1941.83 407.073C1940.31 411.96 1937.16 415.581 1932.38 417.898C1926.08 420.939 1920.83 421.047 1916.66 418.26C1912.5 415.436 1909.13 411.453 1906.6 406.24L1877.23 345.635ZM1907.32 492.368C1913.11 501.636 1919.23 508.515 1925.61 513.077C1931.94 517.638 1938.42 520.607 1945.01 521.983C1951.46 523.684 1957.8 524.046 1964.02 523.033C1970.21 522.055 1975.83 520.317 1980.82 517.892C1989.51 513.692 1996.32 508.588 2001.17 502.614C2006.06 496.64 2009.43 490.232 2011.24 483.462C2013.16 476.909 2013.63 470.32 2012.69 463.659C2011.75 456.997 2009.9 450.843 2007.18 445.195L1917.35 259.833L1884.11 275.907L1891.35 290.896C1888.02 289.592 1884.91 288.361 1881.94 287.239C1878.97 286.117 1875.93 285.393 1872.81 284.994C1869.7 284.669 1866.44 284.741 1863.11 285.284C1859.74 285.863 1856.01 287.13 1851.88 289.122C1843.63 293.14 1838.12 297.521 1835.34 302.372C1829.07 312.111 1827.91 322.718 1831.86 334.195C1833.96 340.169 1837.91 349.147 1843.7 361.058L1874.15 423.944C1878.57 433.067 1882.55 440.163 1886.03 445.159C1889.54 450.155 1893.16 454.029 1896.89 456.78C1907.39 464.6 1919.59 465.107 1933.5 458.373C1940.2 455.115 1945.41 450.77 1949.1 445.376C1952.8 439.982 1955.15 433.646 1956.24 426.442L1956.89 426.116L1972.68 458.699C1975.21 463.912 1976.08 468.8 1975.32 473.325C1974.56 477.851 1971.48 481.399 1966.05 484.041C1960.4 486.793 1955.26 487.119 1950.63 485.055C1946.03 482.992 1942.66 480.095 1940.56 476.258L1907.32 492.368ZM1806.55 527.667L1743 421.808C1738.77 414.784 1736.67 408.702 1736.7 403.633C1736.77 398.529 1739.78 394.184 1745.79 390.6C1750.75 387.595 1755.57 386.98 1760.24 388.645C1764.94 390.347 1769 394.112 1772.48 399.904L1837.91 508.841L1869.55 489.834L1797.06 369.095C1792.86 362.072 1788.34 356.677 1783.56 352.912C1778.78 349.183 1773.92 346.685 1768.93 345.454C1763.97 344.187 1759.12 344.079 1754.37 345.092C1749.63 346.106 1745.28 347.808 1741.37 350.161C1734.13 354.505 1729.13 359.682 1726.42 365.692C1723.67 371.702 1722.15 378.182 1721.82 385.133L1721.2 385.495L1712.08 370.29L1680.4 389.297L1774.87 546.674L1806.55 527.667ZM1623.84 383.975L1602.87 353.564L1572.46 374.49L1593.39 404.937L1623.84 383.975ZM1749.05 565.898L1644.98 414.712L1614.53 435.637L1718.6 586.86L1749.05 565.898ZM1634.77 651.7L1557.21 555.652C1552.07 549.28 1549.17 543.56 1548.49 538.492C1547.83 533.459 1550.22 528.717 1555.69 524.336C1560.18 520.679 1564.89 519.376 1569.74 520.426C1574.59 521.476 1579.16 524.589 1583.43 529.875L1663.23 628.747L1691.98 605.541L1603.52 495.952C1598.35 489.581 1593.13 484.874 1587.88 481.797C1582.63 478.756 1577.45 476.982 1572.38 476.439C1567.28 475.896 1562.46 476.439 1557.9 478.104C1553.34 479.769 1549.28 482.014 1545.73 484.91C1539.14 490.232 1534.91 496.025 1533.06 502.361C1531.18 508.66 1530.56 515.285 1531.18 522.236L1530.64 522.671L1519.48 508.877L1490.73 532.084L1606.06 674.907L1634.77 651.7ZM1434.9 531.939L1410.2 504.46L1382.72 529.151L1407.42 556.63L1434.9 531.939ZM1582.45 696.267L1459.81 559.707L1432.33 584.362L1554.97 720.958L1582.45 696.267ZM1468.9 728.633C1474.22 733.882 1477.15 739.204 1477.62 744.562C1478.1 749.92 1476.14 754.844 1471.76 759.333C1467.52 763.642 1462.67 765.488 1457.2 764.872C1451.74 764.221 1446.52 761.469 1441.52 756.582C1434.43 749.631 1431.57 742.861 1432.87 736.163C1434.14 729.502 1437.58 723.347 1443.15 717.627C1445.04 715.744 1447.64 713.572 1451.05 711.146L1468.9 728.633ZM1533.28 740.037L1441.96 650.578C1435.08 643.844 1428.02 638.956 1420.81 635.952C1413.64 632.947 1406.62 631.499 1399.78 631.535C1392.79 631.788 1386.05 633.49 1379.61 636.603C1373.16 639.753 1367.22 644.097 1361.83 649.6C1355.89 655.646 1351.58 662.054 1348.83 668.824C1346.08 675.595 1344.74 682.365 1344.81 689.207C1344.95 703.544 1350.57 716.794 1361.61 728.958L1386.7 703.363C1383.23 698.294 1381.78 693.226 1382.32 688.193C1382.87 683.125 1384.82 678.889 1388.19 675.45C1393.11 670.454 1397.93 668.426 1402.74 669.404C1407.52 670.381 1412.16 673.06 1416.65 677.477L1430.34 690.909C1428.81 692.103 1427.48 693.298 1426.28 694.529C1425.12 695.724 1424 696.665 1422.99 697.353C1421.97 698.077 1420.96 698.91 1419.94 699.959C1418.93 701.009 1417.99 701.951 1417.16 702.82C1409.04 711.074 1403.29 718.785 1399.85 725.881C1396.41 733.013 1395 739.892 1395.57 746.553C1396.15 753.541 1398.65 760.383 1403.07 767.081C1407.49 773.779 1413.43 780.766 1420.85 788.007C1428.09 795.102 1434.86 799.99 1441.2 802.669C1447.57 805.312 1453.36 806.362 1458.65 805.819C1464.12 805.42 1468.9 804.081 1472.95 801.836C1477.01 799.555 1480.59 796.876 1483.64 793.763C1489.86 787.391 1493.45 781.164 1494.32 775.118C1495.19 769.036 1494.9 761.94 1493.45 753.758L1493.96 753.215L1507.43 766.393L1533.28 740.037ZM1416.47 863.31L1334.35 791.663C1328.73 786.739 1324.79 781.707 1322.54 776.53C1320.33 771.389 1319.28 766.321 1319.46 761.361C1319.5 756.582 1320.48 752.056 1322.4 747.821C1324.35 743.585 1326.56 740.001 1329.13 737.104C1331.67 734.172 1334.67 731.855 1338.15 730.081L1308.67 704.34C1301.68 712.341 1297.27 720.342 1295.42 728.343C1293.57 736.344 1292.74 745.395 1292.89 755.46L1278.18 742.607L1253.89 770.412L1392.17 891.15L1416.47 863.31ZM1369.32 918.665L1193.96 780.838L1220.36 747.278L1193.06 725.773L1117.42 822.002L1144.75 843.47L1171.15 809.873L1346.51 947.7L1369.32 918.665Z" fill="black"/>
</g>
<mask id="mask2_7_79" style="mask-type:luminance" maskUnits="userSpaceOnUse" x="0" y="0" width="5132" height="2463">
<path d="M5132 0H0V2463H5132V0Z" fill="white"/>
</mask>
<g mask="url(#mask2_7_79)">
<path d="M2464.47 1357.81C2465.12 1357.96 2465.81 1358.1 2466.46 1358.25C2476.89 1368.1 2476.53 1380.44 2478.66 1393.62C2492.89 1413.31 2500.17 1340.8 2512.74 1333.81C2536.74 1376.71 2505.28 1419.94 2510.13 1463.38C2520.34 1454.73 2520.2 1435.29 2524.18 1424.36C2524.54 1437.64 2522.19 1455.2 2527.51 1469.1C2528.34 1469.14 2529.18 1469.18 2529.97 1469.25C2544.38 1436.52 2548.33 1399.34 2558.69 1364.95C2559.12 1365.06 2559.56 1365.16 2559.99 1365.24C2558.98 1383.52 2553.98 1402.45 2557.42 1420.48C2558.03 1420.59 2558.61 1420.7 2559.19 1420.81C2572.66 1406.91 2562.89 1376.86 2584.32 1370.41V1408.68C2584.97 1408.72 2585.66 1408.79 2586.35 1408.83C2592.32 1392.43 2593.63 1374.79 2598.15 1356.69C2601.12 1364.55 2601.85 1372.48 2605.76 1378.2C2611.52 1378.52 2609.05 1387.47 2611.59 1391.52C2612.35 1391.56 2613.11 1391.59 2613.91 1391.63C2627.56 1370.78 2626.29 1311.8 2643.31 1301.7C2656.31 1440.11 2658.08 1579.09 2637.3 1716.77C2635.92 1729.08 2634.15 1725.61 2645.19 1730.64C2655.15 1733.17 2654.28 1748.09 2666.55 1747.22C2688.17 1745.01 2714.78 1729.08 2710.98 1703.59C2703.45 1584.52 2698.78 1466.06 2688.42 1347.03C2690.81 1349.67 2692.23 1351.23 2694.76 1354.01C2698.85 1334.35 2693.09 1315.85 2696.53 1297.5C2713.92 1324.69 2716.27 1360.2 2728.76 1390.11C2729.45 1389.93 2730.17 1389.78 2730.86 1389.64C2728.54 1370.7 2726.23 1351.77 2723.94 1333.2C2767.14 1369.73 2751.79 1401.4 2770.51 1443.69C2778.58 1419.58 2767.69 1391.34 2766.53 1366.03C2777.82 1387.9 2810.85 1522.36 2811.28 1426.24C2817.55 1439.45 2817.04 1458.39 2830.62 1464.76C2831.16 1417.84 2805.05 1371.86 2790.86 1327.08C2814.5 1315.28 2796.11 1268.36 2779.16 1255.54C2815.99 1270.67 2833.62 1278.6 2839.67 1320.45C2841.19 1324.69 2844.45 1328.53 2849.52 1327.4C2862.16 1315.38 2846.01 1291.05 2844.7 1275.52L2846.33 1274.65C2859.84 1291.45 2911 1379.65 2913.1 1314.19C2915.64 1321.97 2944.64 1354.19 2942.79 1330.81C2928.74 1299.78 2903.72 1275.78 2884.06 1248.19C2891.88 1248.66 2896.99 1246.09 2900.68 1238.81C2916.47 1306.62 2939.57 1300.87 2919.08 1234.94C2934.32 1249.78 2985.34 1340.22 2986.72 1274.18C2990.63 1281.5 3014.85 1311.51 3017.67 1293.52C3008.26 1268.21 2988.42 1249.02 2974.87 1225.67C3013.11 1224.51 2897.35 1146.24 2885.4 1143.27C2875.01 1140.41 2864.83 1136.65 2853.61 1138.67C2846.91 1139.91 2844.88 1137.52 2843.73 1130.6C2838.62 1093.71 2818.56 1124.41 2821.6 1075.5C2837.28 1075.43 2841.48 1099.25 2854.44 1098.16C2862.45 1089.91 2849.88 1077.27 2846.8 1068.19C2859.69 1076.66 2872.29 1084.91 2885.37 1093.49V1074.74C2908.58 1096.42 2932.47 1113.37 2962.67 1123.29C2937.76 1088.21 2896.63 1066.63 2860.38 1045.38C2828.16 1035.82 2790.21 1033.18 2778.11 995.887C2797.63 1002.69 2817 1009.5 2836.41 1016.27C2794.99 977.677 2702.94 958.743 2714.2 887.675C2717.61 898.645 2715.18 911.243 2723.37 921.308C2727.13 909.868 2730.75 898.97 2734.34 888.037C2730.06 904.691 2743.14 914.936 2747.41 930.757C2754.25 916.638 2753.96 904.51 2750.92 889.413C2751.46 889.196 2752.01 888.942 2752.59 888.725C2770.33 906.247 2764.9 962.182 2790.53 965.947C2791.08 958.598 2791.66 950.923 2792.31 942.342C2795.89 948.569 2796.62 955.665 2803.82 960.299C2805.67 945.564 2799.8 933.328 2797.52 920.113C2818.02 928.621 2817.04 955.665 2832.79 969.169C2833.26 968.843 2833.73 968.518 2834.24 968.192C2834.75 955.339 2829.46 943.501 2826.71 930.214C2840.65 941.003 2856.25 947.592 2863.5 964.463C2868.31 972.029 2872.95 983.071 2882.69 984.701C2884.24 975.034 2876.1 966.526 2873.02 957.512C2873.6 957.077 2874.18 956.607 2874.76 956.172C2888.91 967.685 2899.16 991.941 2919.8 990.493C2935.91 986.04 2920.96 974.817 2912.96 970.328C2872.33 938.143 2836.66 902.337 2808.67 858.531C2791.8 832.103 2756.5 839.995 2759.76 800.678C2769.64 809.548 2778.37 817.368 2787.35 825.441C2791.33 822.038 2795.1 818.852 2799.37 815.232C2805.96 829.713 2809.69 845.751 2827.07 851.182V828.084C2827.58 827.831 2828.08 827.577 2828.55 827.324C2839.09 840.538 2845.43 857.662 2864.55 860.233C2857.59 846.331 2851.11 833.37 2844.63 820.373C2856.58 831.089 2869.69 856.902 2888.66 845.969C2882 807.629 2848.47 794.777 2816.79 779.644C2775.83 761.795 2753.09 720.813 2721.74 690.945C2707.25 676.427 2712.79 657.927 2707.9 638.522C2755.3 663.575 2720.94 698.186 2786.99 678.418C2780.36 667.304 2774.2 656.986 2767.79 646.234C2786.8 649.926 2802.37 662.416 2821.96 661.367C2803.57 640.187 2777.9 628.277 2756.97 610.645C2731.55 581.321 2709.64 549.027 2685.78 518.399C2670.9 484.114 2667.97 445.123 2656.38 409.426C2636.64 473.108 2641.93 548.484 2577.88 588.561C2565.71 598.119 2549.53 602.572 2536.74 610.935C2519.47 623.461 2508.68 648.478 2484.02 646.921C2454.66 663.684 2512.34 653.04 2521.25 649.166C2513.93 659.52 2507.49 668.571 2500.39 678.636C2522.01 674.4 2532.15 656.443 2548.08 644.641C2544.49 657.891 2541.16 670.164 2537.61 683.125C2562.52 680.989 2565.17 652.678 2578.6 636.603C2592.94 674.545 2586.31 668.028 2626.11 662.923C2616.69 693.443 2543.99 739.277 2512.37 750.101C2479.42 755.496 2458.5 776.603 2439.01 802.09C2436.19 805.276 2436.7 808.679 2438.98 811.032C2450.35 817.44 2458.39 801.981 2466.9 795.573C2462.01 806.289 2453.46 814.146 2453.1 825.188C2475.19 823.667 2481.49 796.659 2504.7 794.234C2498.8 808.136 2493.51 820.517 2487.86 833.768C2511.11 829.894 2515.92 805.022 2533.12 793.111C2546.66 801.655 2529.57 815.666 2527.4 826.925C2542.39 812.118 2556.62 802.235 2578.38 802.705C2578.6 803.285 2578.82 803.864 2579.04 804.443C2570.67 816.318 2559.45 826.744 2559.81 841.045C2543.41 857.698 2522.37 860.703 2501.66 868.885C2483.84 874.424 2467.73 888.616 2449.7 891.223C2432.28 881.05 2380.57 898.283 2420.55 911.28C2401.36 924.965 2373.98 944.478 2374.6 969.495C2390.17 974.998 2396.4 953.674 2407.44 944.696C2407.19 949.547 2408.31 952.19 2409.03 956.57C2424.02 953.312 2430.83 936.912 2441.48 927.137C2441.77 927.318 2442.02 927.499 2442.31 927.716C2439.67 940.786 2437.02 953.891 2434.2 968.047C2451.83 958.996 2452.48 938.794 2461.68 923.299C2462.41 923.48 2463.09 923.661 2463.82 923.806V962.182C2464.4 962.254 2464.98 962.363 2465.56 962.435C2470.05 950.162 2474.54 937.853 2479.24 924.965C2482.76 949.945 2498.36 954.253 2498.9 926.087C2499.77 917.615 2510.24 915.045 2516.14 908.999C2521.32 919.426 2526.21 929.309 2531.31 939.627C2536.09 926.956 2554.27 889.232 2567.52 909.976C2569.08 912.764 2567.59 915.552 2564.3 917.036C2549.89 923.517 2541.81 935.428 2536.45 949.656C2535.37 954.941 2537.25 959.43 2530.33 960.553C2479.53 978.836 2423.92 995.779 2384.12 1033.72C2377.71 1044.8 2318.87 1100.41 2344.51 1102.62C2352.15 1100.62 2356.13 1094.65 2359.28 1088.03C2362.9 1078.07 2374.49 1073.76 2381.91 1066.63C2382.17 1066.85 2382.42 1067.06 2382.71 1067.24C2378.29 1081.15 2373.87 1095.01 2369.46 1108.91C2369.93 1109.17 2370.36 1109.42 2370.8 1109.68C2390.82 1092.66 2391.62 1062.43 2415.52 1050.92C2414.83 1067.35 2414.18 1082.81 2413.49 1099.25C2441.4 1077.02 2424.68 1043.93 2464.25 1039.69C2465.74 1068.77 2435.9 1074.27 2424.31 1096.21C2409.32 1108.7 2386.26 1115.07 2383.36 1138.28C2378.87 1143.31 2368.59 1141.53 2362.83 1144.68C2353.52 1149.54 2330.93 1172.74 2350.85 1175.2C2331.47 1203.41 2309.75 1232.33 2298.6 1264.84C2303.95 1283.02 2325.21 1248.3 2328.47 1240.33C2327.96 1249.57 2326.22 1259.56 2335.86 1264.08C2365.58 1264.74 2371.16 1214.38 2392.12 1197.25C2392.2 1213.11 2381.01 1235.95 2391.22 1248.81C2398.97 1248.62 2402.19 1240.7 2403.31 1234.03C2403.67 1193.7 2427.36 1189.94 2455.92 1169.77C2454.01 1183.02 2449.44 1195.77 2451.29 1209.42C2546.12 1038.93 2447.99 1286.17 2551.81 1116.23C2575.74 1120.36 2601.05 1131.25 2566.07 1147.51C2552.68 1152.25 2560.93 1169.16 2549.67 1175.24C2546.12 1177.09 2544.89 1179.62 2543.8 1183.06C2540.33 1198.37 2523.74 1203.84 2513.71 1214.27C2499.81 1226.76 2477.87 1228.31 2473.78 1249.64C2461.21 1274.94 2422.68 1266.36 2408.67 1293.12C2392.23 1316.07 2374.56 1337.97 2352.4 1355.86C2343.78 1359.91 2324.96 1403.25 2341.65 1396.59C2359.9 1385.58 2370.25 1367.59 2381.19 1350.03C2386.19 1343.88 2394.22 1349.23 2401.32 1349.49C2387.34 1369.69 2367.32 1387.07 2360.59 1411.21C2361.13 1411.61 2361.64 1412.05 2362.14 1412.48C2396.54 1398.58 2406.46 1356.73 2438.76 1342.68C2433.51 1362.92 2418.59 1382.4 2421.92 1403.29C2433.87 1399.27 2437.39 1382.79 2442.06 1373.09C2441.48 1380.51 2440.1 1423.49 2453.79 1399.09C2457.74 1385.44 2457.99 1370.67 2464.47 1357.81Z" fill="black"/>
</g>
</g>
<defs>
<clipPath id="clip0_7_79">
<rect width="5132" height="2463" fill="white"/>
</clipPath>
</defs>
</svg>
