<?xml version="1.0" encoding="UTF-8"?><svg id="Ebene_1" xmlns="http://www.w3.org/2000/svg" xmlns:xlink="http://www.w3.org/1999/xlink" viewBox="0 0 5132 2463"><defs><style>.cls-1{clip-path:url(#clippath);}.cls-2{fill:none;}.cls-2,.cls-3,.cls-4,.cls-5{stroke-width:0px;}.cls-6{mask:url(#mask);}.cls-7{mask:url(#mask-2);}.cls-8{mask:url(#mask-1);}.cls-4{fill:#bf4c0c;}.cls-5{fill:#fff;}</style><clipPath id="clippath"><rect class="cls-2" width="5132" height="2463"/></clipPath><mask id="mask" x="0" y="0" width="5132" height="2463" maskUnits="userSpaceOnUse"><g id="mask0_7_79"><path class="cls-5" d="m5132,0H0v2463h5132V0Z"/></g></mask><mask id="mask-1" x="0" y="0" width="5132" height="2463" maskUnits="userSpaceOnUse"><g id="mask1_7_79"><path class="cls-5" d="m5132,0H0v2463h5132V0Z"/></g></mask><mask id="mask-2" x="0" y="0" width="5132" height="2463" maskUnits="userSpaceOnUse"><g id="mask2_7_79"><path class="cls-5" d="m5132,0H0v2463h5132V0Z"/></g></mask></defs><g class="cls-1"><g class="cls-6"><path class="cls-4" d="m4828.96,1859.56c-.68.69-.68,1.38-1.37,1.38-.69-.69-1.38-.69-1.38-2.07,0,0,0-.69.69-.69.69.69,1.38,1.38,2.06,1.38Zm98.53,141.34c0-10.97,0-20.57-.69-30.16,0-2.06,0-2.75,1.38-4.81,2.71-2.76,1.34-7.57,1.34-10.97-.65-4.82.69-9.63,0-15.1-1.34-16.47,0-32.95,1.37-49.42.69-10.28,3.44-20.6,6.2-30.88,1.37-4.82,6.19-4.82,10.28-4.82,2.06,0,3.44,0,4.13-2.75.68-1.34,2.06-2.02,3.44-2.02,3.44-.69,7.53-6.2,11.66.68,1.37,2.03,6.19.69,8.9,4.09h.69c4.13-6.84,10.32,2.07,14.41-2.06,0,0,1.38,0,1.38.69,2.06,4.13,4.13,2.06,6.19.69,3.44-1.38,6.84-2.72,9.6,1.37.68,0,2.06.69,2.75,0,4.13-2.75,8.91,3.44,13.03.69,2.75,4.13,8.26,0,10.32,4.82,0,.68.65.68,1.34.68,6.88-.68,8.95.69,10.32,6.16,3.41,13.07,6.16,26.1,2.75,39.13-1.37,7.53-.68,15.1.66,22.63.68,4.13-.66,8.26-.66,12.35-.68,16.47-2.06,32.94-.68,49.41.68,22.67-4.82,45.29-4.82,67.96,0,17.12-3.44,33.59-3.44,51.44-.69,14.41-2.06,29.51-2.75,43.92-.69,18.53-.69,37.07,0,55.57,1.37,21.98-.69,43.26,0,65.2.69,17.85,1.37,36.39.69,54.2,0,19.22-1.38,38.45-6.85,57.67l-2.06,5.47c-2.75,3.44-2.06,6.88-2.75,10.32-2.07,4.78-6.2,6.15-10.29,6.84-4.81,0-8.94-.69-13.03,2.75-4.82,3.44-11.01,2.06-16.48,2.75-11.69,2.07-24.04,1.38-35.7,3.41-4.13,1.37-8.91-.66-12.35-3.41-2.75-1.37-5.5-2.75-8.25-2.75-6.85.69-10.29-3.44-13.04-8.25-8.91-15.1-12.34-32.22-15.1-49.38-2.02-11.01-5.46-20.6-9.59-30.89-5.51-11.65-7.53-24.72-10.29-37.07l-4.12-14.41c-2.76-10.97-5.51-22.63-8.91-33.6,0-1.37-.69-2.06-1.38-3.43-1.37.68-1.37,1.37-1.37,2.75-1.38,15.09-2.75,30.19-2.75,45.29,0,4.09-.69,8.9-.69,13.03,0,18.5-.69,37.04-4.13,54.89-2.06,10.28-4.09,19.91-5.47,30.19-1.37,9.59-2.06,18.54-4.81,27.44-.69,2.75-2.07,4.82-2.76,7.57-1.37-4.82-6.15-8.26-4.81-13.72-3.41.65-2.72,4.09-3.41,6.15-4.12-2.06-8.25-6.15-13.03-3.44-.69,0-.69.69-.69.69-4.13-5.47-6.19,2.06-8.25,1.38-2.76-.69-6.85.68-8.91-2.07-4.13-4.78-4.13-.69-5.51,2.07-.68,1.37-.68,2.75-1.37,4.81-1.38-2.06-.69-3.44-.69-4.81s-1.38-2.76-2.06-2.07c-2.72,4.82-2.72.69-3.41-.69-.68-1.37-2.06-2.02-4.12-1.37-1.38,0-1.38,1.37-2.07,2.75,0,2.06.69,4.13-1.37,5.5-1.38-2.06-.69-4.12,0-6.88-5.47,3.44-8.22-2.02-12.35-2.71-3.44,0-6.88-2.75-10.97-2.75-2.07,0-6.88-1.38-9.64-3.44-.68-1.38-2.06-2.07-3.4-2.07-6.88-.68-7.57-5.5-8.25-10.97-1.38-10.28-.69-21.28-1.38-32.25,0-9.6,3.44-18.54,3.44-27.44s.69-17.85-1.38-26.76c-.68-4.81.69-9.63,1.38-13.72,1.38-14.41.69-28.82,4.13-42.58,2.75-13.03,1.37-26.75.69-39.78-1.38-14.41-1.38-28.13,1.37-41.85,1.34-10.29,2.03-20.6,0-30.89-2.75-16.47-2.75-32.25-2.06-48.73,1.37-12.34,2.06-24.69,3.4-36.34,1.38-6.2,0-13.04,0-19.23.69-6.19.69-13.03.69-19.22,0-8.91-1.34-17.85-.69-26.76,1.38-14.41,2.75-29.5,1.38-43.91l-2.03-37.07c-.69-8.22-1.38-16.44,1.34-24.7,2.06-7.53,5.5-8.21,12.38-8.21,6.85.68,13.73,2.06,19.19-2.07,2.76-2.06,5.51-2.06,8.95-1.37,1.37.69,4.09,1.37,6.15.69,6.88-.69,13.04-1.38,19.92,0,2.75,0,4.81-1.38,7.53-.69,2.75,0,5.5,0,7.57,2.06,1.37,1.38,2.75,1.38,4.81,0,4.09-2.06,6.85,2.75,10.97,2.06,1.38,0,3.44,2.03,3.44-1.37.69-.69,2.07,0,3.41.69,3.44,2.71,6.19,6.84,11.69,4.78,0,0,1.38.68,1.38,1.37,2.71,11.01,11.66,18.54,16.44,28.13,8.25,14.41,14.45,29.51,20.6,44.6,5.51,12.39,7.57,26.11,13.72,38.45,2.76,6.16,3.44,12.35,8.26,19.88Zm-424.34,398.02h9.6c-2.72,2.06-6.16.69-9.6,0Zm-13.03-1.38c2.75-1.37,4.13-.68,5.47,1.38-2.03,2.06-3.41,0-5.47-1.38Zm112.54-6.87c-1.38.68-1.38-.69-1.38-1.38s.69-1.34,1.38-2.03c.69.69,1.37.69,1.37.69,0,.65-.68,2.03-1.37,2.72Zm13.03-9.6c-.69,0-2.02,0-1.34-1.37,0,0,1.34-.69,2.03-.69l.69.69c0,1.37-.69,1.37-1.38,1.37Zm-138.21-343.1v-2.75l.69,1.37c0,.69.69,2.07,0,2.07-1.34,1.37-.69,0-.69-.69Zm66.84,221.64c-.68,6.19-1.37,11.66-1.37,17.85.69,9.59-2.07,18.53-6.16,27.44-2.06,5.5-5.5,8.94-13.03,6.88-7.57-2.07-15.79,0-22.67-6.88-4.13-3.44-4.81-6.84-4.81-12.35.68-26.06,2.06-51.48,0-77.54-2.72-29.51-4.78-59.7-2.72-89.21.69-13.03-2.06-26.75-.69-39.79.69-9.63-.69-20.6,6.84-28.82.69-.68,1.38-2.06,1.38-2.75-3.44-10.28,3.44-19.22,4.13-28.81,0-10.97.69-22.67,0-34.33,0-4.12.69-6.15,5.47-8.21,6.19-2.07,9.63-9.63,18.54-8.26,8.25,1.38,17.85,11.66,17.16,20.6,0,4.82-.69,8.91-1.38,13.72v13.72h-.69c0,8.91.69,17.85-.68,26.07-1.38,10.32,2.06,19.91,2.06,30.19s.69,20.6,2.06,31.57c2.76,22.67,0,45.98.69,68.65,0,16.43.69,32.9,1.38,49.38.69,10.97-4.13,20.6-5.51,30.88Zm-181.62-343.79c-2.75,3.44-3.44,6.19-2.75,8.94l2.75-8.94Zm242.38,0l-1.37-2.06c.69,0,.69-.69,1.37-.69,0,.69.69,1.37,1.38,2.75h-1.38Zm12.35,4.81c2.75-5.5-.69-7.56-3.44-10.28-2.06-1.37-2.06-2.75,0-4.12,1.38-.69,2.75,0,4.13.68,4.82,4.09,8.25,21.26,4.81,27.45-4.12-3.44-8.25-8.26-5.5-13.73Zm19.37-22.66c0-1.37,1.38-3.4,2.76-2.71,2.02,1.34,3.4,3.4,4.09,6.15-1.38-2.75-7.54,2.06-6.85-3.44Zm-21.29-4.09c-.69-.69-1.37-1.38-.69-2.06.69,0,1.38,0,1.38.68.69,0,.69.69.69,1.38h-1.38Zm13.04,4.78c-2.07,1.37,1.37,4.81-2.07,4.81-2.02,0-2.71-.68-4.09-2.06-3.44-3.44,2.07-1.38,2.07-2.75v-2.06c1.37-2.03-4.13-3.41-.69-4.78,2.71-1.38,5.47,1.37,6.15,2.75,1.38,2.71,5.51,4.78,4.13,8.9-2.75-.68-2.75-4.12-5.5-4.81Zm-8.22-10.28c-.69,0-1.38-.69-1.38-1.38l1.38-1.37c.69,1.37,1.37,1.37,1.37,2.06-.68.69-1.37,1.38-1.37.69Zm3.44-2.75c0-.69.69-1.38.69-1.38,2.02.69,2.71,2.06,2.71,3.44.69,2.06-1.34,1.38-2.03,1.38-1.37-.69-2.06-2.07-1.37-3.44Zm-7.57-11.66s.69-.69,1.38-.69,1.37.69,2.06,1.38c-1.38,0-2.06.68-2.06.68-.69,0-1.38-.68-1.38-1.37Zm-7.53-4.13c-.69-1.37,0-1.37.69-1.37,1.37,0,2.02.68,2.02,1.37s-.65,1.38-1.34,1.38c-.68-.69-1.37-.69-1.37-1.38Zm-165.41-5.47c-.68,0-.68-.68-.68-1.37.69-.69,1.37-.69,2.06-.69l.69.69c-.69.69-1.38,1.37-2.07,1.37Zm150.31-3.43c-.69,0-1.38-.69-1.38-1.38s.69-1.38,2.07-.69l1.37,1.38c-.68.69-1.37,1.37-2.06.69Zm-38.45-9.6c-.69,0-1.38-.69-2.07-.69,2.06-2.06,4.13-2.06,4.82-.68.68,2.02-1.38,1.37-2.75,1.37Zm109.31,249.08c-.69-14.41-3.44-29.5-5.47-44.6-2.06-12.35-2.06-24.73-2.06-37.07,0-4.09,0-9.6.69-15.1,4.09,4.81,1.37,10.32,3.4,15.78.69-2.06,1.38-3.44,2.06-4.09,4.13-5.5-1.37-11-.68-16.47.68-15.1-2.76-30.19,0-44.6.68-2.07,0-4.13,0-6.88,0-1.38-.69-2.75-2.76-2.75-1.33-.69-2.02-.69-2.71.69-.69,1.37,0,3.43,2.06,4.12v7.53c-2.06-3.4,0-5.46,0-7.53l-4.13,2.75c.69-4.12-2.06-7.56,1.38-10.31q4.09-3.41,0-6.85c4.09-2.06,4.78-4.81,4.09-10.28-2.03-10.32-7.53-19.22-11.66-28.16-1.37-1.34-2.75-6.16-5.46-4.1-4.13,2.76-4.13-.68-4.13-2.06,1.37-6.19-2.75-10.28-6.88-12.34-6.85-3.44-8.22-10.32-13.04-15.1-2.75-2.06,0-7.57-4.78-8.94-2.75,2.75,1.34,5.5-.68,8.25-6.2-2.75-11.7-5.5-17.17-7.57-3.44-.68-4.13-3.4-6.19-5.46-6.16,6.15-12.35,0-18.54-.69-8.22-.69-16.47-.69-24.69-2.06-6.88-.69-14.41-4.13-21.95,1.37-2.75,2.07-10.32-2.06-15.1,2.07l-2.75-.69c-.69-6.88-5.5-2.75-8.25-3.44,2.06,1.37,4.12,2.75,2.75,6.15-3.44-1.34-5.51-3.4-10.28-.65-4.13,2.03-4.13-1.37-1.38-4.81-12.35,0-21.98,7.53-34.33,7.53,1.38,2.75,3.44.68,4.82,3.44-4.82-2.07-8.94,1.37-13.04,0-4.12-.69-4.81,5.5-8.94,4.12,0,0-1.38,2.07-2.75.69-2.72-4.81-8.22,0-8.91.69-6.84,6.84-13.72,14.41-20.6,21.94-4.09,4.81-4.09,11.66-9.6,15.78-3.44,3.44-6.84,5.51-3.44,10.28.69,1.38-.69,2.76-2.06,2.07-3.41,0-3.41,2.75-4.78,5.5-8.26,19.91-7.57,41.16-6.19,61.76.68,3.44-3.44,4.82-1.38,8.22,6.19,9.63,4.82,21.29,5.5,31.57.69,15.1-4.81,29.51-5.5,44.6-.69,19.23-6.15,38.45-4.09,56.95,2.03,28.82-.69,58.33,2.03,87.18,2.06,23.32,2.06,46.63,2.06,69.98,0,16.48,4.13,32.95,6.88,48.73,3.44,24.69,19.23,43.92,36.35,60.39,13.08,13.03,31.58,16.44,48.05,22.63,11.66,4.12,24.74,6.88,37.08,4.81,10.97-2.06,20.57.69,30.2,2.75,8.91,1.34,17.82,1.34,26.76.66,17.85,0,33.64-9.6,46.67-21.26,6.85-5.5,13.73-10.28,19.88-15.78,7.57-6.88,14.41-13.03,18.54-21.98,6.19-15.09,8.94-31.53,8.94-47.31.69-13.73,2.72-27.48,4.1-41.2.68-13.04,2.75-25.38,1.37-38.42-.69-14.4,0-28.13-.69-42.54-.68-10.31,2.07-21.28,3.44-32.25,2.76-19.23-1.37-38.41-2.06-57.64Zm-668.57,279.28c-1.37-19.23-3.44-40.48-3.44-61.08,0-21.94-2.06-43.23-4.12-65.17-1.38-13.75,0-26.79,2.75-40.51.69-2.06.69-5.46.69-7.53-2.76-38.45,3.44-76.17,2.06-114.62-.69-24.69-1.38-50.07-3.44-74.8-1.38-13.72,0-26.75,2.75-39.78,2.07-15.1,2.07-31.57-.69-46.67-2.06-18.54-2.75-37.04.69-55.57,1.38-6.88,6.19-9.6,10.29-9.6,8.94.69,15.78-3.43,24.04-6.19,8.22-2.06,17.16.69,25.38-.68,4.82-1.38,15.1,0,26.07-.69,10.97-.69,22.67,0,34.33,1.37,2.75.69,6.84,2.76,7.53,7.57,4.82,22.63,8.94,45.25,4.82,68.61-1.38,8.21-2.07,17.16-.69,25.37,1.37,10.32.69,21.29-1.38,32.26-4.09,21.98,0,43.23,2.75,65.2,3.44,30.2,4.13,59.7,1.38,89.9-1.38,21.94,0,44.6-1.38,66.54-.68,17.16-2.06,34.32-2.75,50.79-.69,15.79,6.88,24.01,21.98,23.32,22.63-.69,44.61,1.37,66.55-2.06,5.51-1.38,10.32.68,15.79,1.37,15.79.69,31.57-.69,47.36-2.06,10.29-1.34,19.92,0,29.51,4.81,3.44,2.75,8.26,3.44,13.04,1.38,4.13-2.07,9.63,1.37,10.32,4.81,1.34,10.28,5.46,20.57,7.53,30.88,2.75,16.48,2.06,25.38-2.07,41.86-3.43,13.03-3.43,26.06-7.53,39.1-.68,4.12-1.37,6.19-6.19,5.5-12.35-1.38-25.38,1.37-37.73,3.44-16.47,3.4-33.64,2.71-50.11,0-13.04-2.07-26.07-1.38-39.11-.69-30.88,1.38-61.77-4.13-91.97-4.13-20.6.69-41.17,0-61.77,0-8.26.69-15.1-.68-22.67-3.44-2.03-1.37-4.78-2.06-6.15-2.75-4.13-2.06-9.64,2.07-12.35-2.71-2.75-4.82-2.75-11.7-2.75-17.16,0-2.07,0-3.44.68-6.19Zm-189.19-8.22c-1.37,2.06-1.37,4.78,0,6.84,2.75-2.75,1.38-4.78,0-6.84Zm-34.98-21.98c-.68,0-1.37-.69-1.37-.69-.69.69-.69,1.38-.69,2.07,0,0,1.38.69,1.38,0,.68,0,.68-.69.68-1.38Zm2.03-68.6c0,1.37-.69,2.06-.69,2.75,0,.65,0,2.03,1.38,1.34.69,0,1.37-1.34,1.37-2.03s-.68-1.38-2.06-2.06Zm-4.78-11.7c-3.44,4.82-2.75,8.26-.69,12.38,0-4.12,3.44-6.87.69-12.38Zm-182.38-74.11c.68-3.4,1.37-6.84-2.07-11.65,0,5.5-.69,8.94,2.07,11.65Zm-1.38-26.75c0,4.81-1.38,7.57,1.38,9.63.68-2.75.68-5.5-1.38-9.63Zm.69-17.16c-2.07,5.5-2.07,8.94,0,12.38,1.37-3.44,0-6.88,0-12.38Zm2.75-6.84c-.69-.69-.69-2.07-1.38-2.07-2.75-.68-2.06,1.38-1.37,2.07,0,.68.69,1.37,1.37,2.06l1.38-2.06Zm49.43-27.45c0-2.06,2.75-2.75,3.43-4.12-.68-.69-2.06-.69-2.75-.69-2.75,0-1.37,2.06-1.37,3.44,0,.69.69.69.69,1.37Zm10.28-6.19c1.37,5.51-.69,8.95,2.06,11.66-.69-2.71,2.07-6.15-2.06-11.66Zm-78.5-19.22c-.69,0-1.38-.69-2.07-.69s-1.37.69-1.37,1.38l1.37,1.37c.69,0,1.38-.68,2.07-2.06Zm20.6,2.06c-1.38-2.75.69-4.78-3.44-6.84,1.38,2.75,0,4.09,3.44,6.84Zm52.83-26.06c0-4.13,1.38-6.88-1.38-9.6-2.75,3.41-3.44,5.47,1.38,9.6Zm15.1,2.75c7.57-3.44,4.81-7.57.69-11.66-1.38-.69,1.37-6.19-3.44-4.13-3.41,2.07-3.41,6.16-1.38,7.53,4.82,1.38,2.06,5.51,4.13,8.26Zm-26.76-29.51c0,1.38-.69,2.07-.69,2.75s0,2.03,1.38,1.38c.69,0,1.37-1.38,1.37-2.06s-.68-1.38-2.06-2.07Zm4.82-6.19c.68,4.82.68,8.26.68,11.66.69-3.4,2.03-6.84-.68-11.66Zm-13.04,4.82c.65-1.38.65-2.76.65-3.44,0-1.38.69-4.13-2.03-2.75-2.06,1.37-.68,3.43,1.38,6.19Zm-51.49-33.64c-1.37-1.37-2.75-2.75-4.13-3.44,0,.69-.68,1.38-.68,2.76.68.68.68,2.06,2.06,2.06.69,0,1.38-.69,2.75-1.38Zm7.46-24.69c-.65-.69-.65-2.06-2.03-1.37-.69,0-.69,1.37-.69,1.37,0,.69.69,1.38,1.38,2.07,0-.69.69-1.38,1.34-2.07Zm67.28-8.25c-3.44,4.13-2.76,8.25-1.38,12.38.69-4.13,4.13-8.25,1.38-12.38Zm7.53-13.04c0-1.37-.65-1.37-.65-.68s0,.68.65,1.37v-.69Zm-52-100.86c-1.37.69-2.06,2.07-1.37,3.44,0,.69.68.69,1.37.69.69-1.38,1.38-2.75,0-4.13Zm35.7-5.5c-.68-3.4-.68-5.47.66-7.53l2.06,1.37c2.75,2.76,0,4.13-2.72,6.16Zm193.54,536.61c-1.37,6.19-5.5,8.25-10.32,10.32-.69-3.44,2.07-6.88-1.37-10.32-.69,2.75-1.38,4.81-2.72,8.25-1.38-5.5-4.13-4.81-8.25-4.81-5.51.68-8.91,2.06-9.6,6.88-1.38-.69-2.06-.69-2.06-.69-3.44-4.82-6.88-11.66-12.35-11.66-4.82,0,.69,8.22-3.44,11.66-4.82-4.13-8.26-11.01-16.48-9.63-2.75.69-3.44-2.72-4.12-5.47-4.78-30.88-1.38-61.76-.69-92.64,1.37-29.51,2.75-59.02,2.06-89.21,0-3.44-.69-5.5-5.47-5.5-19.22,0-38.45.69-57.68-2.07-5.46-.65-6.84,2.07-6.84,7.57,0,15.1.69,30.19,0,45.29-1.38,31.57-1.38,63.83-2.06,96.05,0,16.47,2.06,32.94-1.38,49.42-.69,4.81-3.44,9.63-4.13,14.41-.69,2.06-2.71,5.5-8.22,3.44-7.57-2.07-15.79,1.37-24,2.06-10.32.69-21.3-.69-30.2,2.75-17.17,5.47-32.95-2.06-49.43,2.72-9.59,2.06-15.1-2.03-15.1-12.35-.69-26.07,0-51.44.69-77.55v-6.15c-2.75-32.95-3.44-65.89-1.38-98.8,3.44-44.6-.68-88.56.69-133.16.69-48.69,0-98.11,0-146.84-.69-29.51-2.75-59.7,2.07-89.21.68-6.15,3.44-8.21,10.28-4.77,6.19,2.71,14.41-.69,19.23,6.84,1.37,1.37,1.37-3.44,3.44-4.13l2.02,8.94c4.82,0,2.07-4.81,4.13-6.19,2.75-2.75,4.82-7.53,8.26-4.78,8.91,7.53,13.72-2.75,20.56-3.44,2.07,4.78-2.06,9.6,0,15.1,4.13-4.81,5.51-9.63,2.07-17.85,6.19,6.19,3.44,10.97,3.44,15.79,7.53-3.44,6.15-4.82,11.66-10.28,3.44-4.13,10.97-3.44,17.85-2.07,6.15,1.38,2.06,4.78,2.75,8.22-4.82,0-2.75-4.78-5.5-6.15-2.76,4.09-3.44,8.21.68,9.59,2.07,1.38,6.2-.69,7.54-4.82,1.37-2.75,3.44-5.46,6.19-10.97-1.38,17.85,8.91,31.57,4.13,47.36,5.46-6.19.68-15.1,7.53-23.35,0,4.12,1.37,6.88,1.37,8.94,0,19.88,2.07,39.1,4.82,59.01,2.06,12.35-4.82,23.32-3.44,35.66,1.38,18.54,1.38,36.39,2.06,54.92.69,15.1,0,30.2,2.07,45.29.69,4.78,0,8.91,7.53,6.16,4.13-1.38,11.01,0,16.47,2.75,6.2,2.75,14.42,0,21.29-.69,0-2.75-4.12-.69-4.12-4.13,0-2.02,2.06-2.02,4.12-2.02,6.16-.69,13.04-1.38,19.88-.69,4.82,0,6.88,0,6.88-5.5.69-7.53,1.38-15.1.69-22.63-3.44-33.63,0-66.58-.69-100.21,0-24.69,0-49.38.69-74.11.69-8.91-.69-18.54,5.51-26.07,6.15,8.91,9.59,8.91,23.31,1.38,2.07-1.38,2.76-2.75,5.51-2.07,10.28,2.07,19.88,2.07,30.2-2.06,4.78-2.06,10.97,4.13,17.12,4.13,2.07,0,3.44,1.37,5.51.69,7.56-4.13,15.1-.69,23.35,0,8.22,1.37,9.6,6.15,10.97,13.03,5.47,21.29,5.47,43.23,6.16,65.2,1.37,32.91-.69,65.86,2.06,98.8,2.07,21.94,2.07,44.6,2.07,66.58,0,32.91-1.38,65.85-4.13,98.11-2.03,19.91-.69,39.79-2.03,59.7-2.06,41.85-4.81,83.02-4.81,124.22,0,9.59-4.13,18.5-2.76,27.44.69,2.06,0,3.44-2.06,3.44-4.13,0-8.91-.69-10.28-4.13-2.76-4.13-5.51-2.75-7.57-1.38-6.85,3.44-10.97-2.75-15.1-4.81-3.4-1.38-4.78-2.75-6.16.69-5.5,9.63-6.88,1.37-10.97-3.44Zm-598.28-419.93c-15.79,0-31.58,3.41-47.36.69-21.26-3.44-24.7-6.88-29.51-26.79-4.13-15.78-4.13-31.57-.69-47.35,1.37-4.1,0-9.6.69-13.73,2.06-13.03,8.25-18.5,26.75-18.5,21.3-.68,42.55-4.12,63.84-4.12,32.26-.69,64.53-4.82,96.79-4.13,32.91,1.38,65.86,1.38,98.81,1.38,13.73,0,28.14-2.07,41.86,4.12,3.44,2.07,4.13,2.75,4.13,6.85.69,8.94-.69,17.16.69,26.1.68,1.37,2.06,2.03.68,3.4-7.56,11.01-1.37,24.04-5.5,35.01-.69,1.38-.69,3.44.69,4.13,6.88,4.09,2.75,10.28,2.75,15.09,0,10.97-8.25,12.35-15.79,14.41-8.9,2.07-17.16,2.75-26.07,2.75-13.72-.68-27.44,0-41.2.69-6.16,0-11.66.69-17.13,0-12.38,0-13.07,0-13.07,11.66.69,17.16,0,34.28,2.06,51.45,1.38,13.72,1.38,27.44-.69,41.2-2.71,20.56-2.02,41.85-2.02,62.41,0,24.73-2.07,48.73-5.51,73.42-1.37,11.69,2.07,23.35,2.75,35.01.69,18.54,0,37.07.69,56.26,0,6.88.69,13.03,1.38,19.91,3.4,26.76.69,53.51-2.75,79.61-.69,8.22-7.57,15.1-17.17,15.79l-24,2.03c-10.32,1.37-19.92-2.72-30.2-2.03-4.13,0-8.26-.69-12.39,0-9.59.69-19.19-2.75-27.44-6.88-2.07-1.38-2.75-6.19-2.75-8.91-.69-16.47-4.78-32.94-3.41-49.41,3.41-32.26,2.03-64.52,4.09-96.78,1.38-17.12-1.37-34.28,0-51.44,1.38-25.38-1.37-50.11.69-75.49v-2.06c-6.15-28.82.69-57.64-4.09-85.77-4.13-19.91,0-39.13,2.72-59.01,1.37-10.28.68-10.97-10.29-10.97h-13.03Zm-286.89,219.58h44.61c2.75,0,4.82-.69,4.13-4.13-1.38-8.22-.69-17.85-3.44-25.38-7.53-23.35-10.28-47.35-11.66-72.04-.69-5.51-.69-11.7-4.82-18.54-10.28,41.16-12.34,81.64-28.82,120.09Zm123.98-120.78c.69-1.37,1.38-2.06,1.38-3.44.69-1.37-.69-2.06-2.07-1.37-.68,0-.68,1.37-.68,2.75,0,.69.68,1.37,1.37,2.06Zm-2.06-6.88c2.06-6.15,0-8.9-2.75-12.34l2.75,12.34Zm-225.87-80.26c2.75-2.75,2.75-4.13,1.37-6.19-2.06,1.38-1.37,3.44-1.37,6.19Zm4.12-17.85c2.07-2.06,4.1-3.44,2.07-6.19-1.38,1.38-2.75,2.75-2.07,6.19Zm272.8,448.78c-2.06-7.57-4.81-7.57-8.94-3.44-3.44,4.13-6.84,9.6-13.72,4.13-.69-.69-6.85.69-10.29,1.37-8.25,2.07-17.16,5.47-25.42,4.1-8.9-1.34-17.81-4.1-26.75-6.85-2.76-.68-2.76-3.44-3.41-6.19-10.32-31.57-11.01-64.48-17.16-96.73-.69-4.13-1.38-4.82-4.82-5.51-19.91-.68-39.79-2.06-59.71-3.44-8.22-.68-17.16-2.02-26.07-3.4-3.44,0-5.5.69-6.19,5.47-5.47,21.29-10.28,41.85-18.54,62.45-4.09,10.28-4.09,22.66-8.9,33.63-3.44,7.53-10.98,10.28-19.23,11.66-9.6,1.38-19.19-3.44-28.14-1.38-7.53,2.07-13.72,2.76-20.56.69-8.95-2.75-15.79,4.82-24.05,3.44-8.22-1.37-15.78,1.38-23.31,1.38-6.2-.69-11.7-13.72-10.32-19.23,2.06-10.97,4.81-21.25,7.56-32.25,1.38-5.47,7.53-8.91,8.91-15.1,3.44-13.04,7.57-25.38,10.32-37.73.69-4.81-2.75-10.97,0-15.78,10.97-18.54,13.04-39.79,21.94-59.01,2.76-5.51,7.57-12.35,2.07-20.6-1.38-1.38.69-6.84,2.06-10.28,7.53-13.72,11.66-28.82,15.1-43.23,2.06-6.88,0-15.1,2.75-21.98,5.47-13.03,5.47-26.75,8.91-40.47,3.44-13.72,8.26-27.44,10.28-41.17,3.44-19.22,8.95-37.76,14.41-56.29.69-2.03-.68-5.47,4.13-4.78,2.75.69,3.44-2.06-.69-6.19-1.37-.69-.68-2.07,0-2.75.69-4.78,1.38-9.6,2.76-14.41,0-2.03,0-6.16,4.12-2.03,1.38,1.34,2.07-2.75,1.38-3.44-7.57-7.57-.69-15.1,1.38-20.6,11.66-21.94,19.19-45.98,28.82-68.6,2.71-5.51,1.37-12.35,6.84-17.16,2.07-2.07,4.82-5.51,7.57-5.51,10.97-.69,21.94-2.75,33.6.69,2.75.69,5.51.69,8.26-.69,5.46-3.44,10.97,2.75,17.85.69,6.15-2.06,13.72-2.75,21.25-1.38,5.51,1.38,10.97,5.51,17.85,2.76,2.07-.69,6.88,2.75,8.22,7.56,2.76,7.53,6.2,15.1,13.08,19.88,5.46,4.13,3.4,10.32,6.15,15.09,9.63,19.23,13.72,40.52,20.6,61.08,8.22,24.69,11.66,49.42,15.79,74.8,4.78,24.69,10.97,49.41,15.79,74.79,1.37,7.57,0,16.48,3.4,23.35,4.82,9.6,6.19,19.19,3.44,29.51-1.37,5.47,4.13,5.47,5.51,9.59,6.15,26.07,6.15,52.14,13.72,78.24,5.5,15.79,6.84,33.6,10.28,50.07,3.44,16.47,7.57,32.26,9.63,48.73,1.38,15.1,6.16,30.19,3.41,45.29-3.41,15.79-11.66,20.6-25.38,12.35-6.85-4.13-6.85-.69-7.54,4.81Zm-430.99-306.06c0-2.72.68-4.78.68-6.85.66-1.37.66-.68,1.34,0,2.07,4.13,2.07,8.22,2.07,12.35-1.38,40.47,1.37,80.99,2.75,121.46.69,24.69-2.75,49.42-.69,74.8,2.07,23.31-1.37,47.35-.69,70.67.69,10.28-4.12,20.6-6.15,30.19-.69,2.75-2.75,4.82-6.19,5.5-12.35,1.38-25.39,5.47-37.05,4.1-13.76-1.34-28.17,1.37-41.89-4.1-4.09-2.06-7.53,3.44-12.35,3.44-6.84,0-12.34-3.44-19.22-4.81-2.72-.69-6.16-3.44-6.85-6.88-3.44-25.38-3.44-50.07.69-75.48,2.06-10.29,3.44-20.57-1.38-30.89-3.44-7.53-.68-15.78-1.37-24,0-24.69-2.07-48.73-2.75-73.42-2.07-34.32-3.44-68.61-1.38-102.93,1.38-16.47-.69-33.63-.69-50.1.69-23.32,2.75-46.67,3.44-69.98,0-21.98-1.37-43.92,2.07-65.21,2.06-14.41,2.75-28.81,4.12-43.22,1.38-10.28,10.98-15.79,19.19-19.88,15.79-8.25,32.27-5.5,48.74,1.34,4.82,2.06,9.63,2.75,14.41,0,4.82-2.71,8.95-2.71,12.35,1.38,3.44,3.44,9.63-2.07,11.7,2.75,4.09,12.34,10.28,24.69,11.66,37.76,2.75,19.87,2.75,39.79,0,59.7-2.07,21.94,4.12,43.22,6.15,64.48,1.38,13.03.69,26.1-1.37,39.13-1.34,10.28-4.78,21.25-3.41,30.88.69,6.16-3.44,12.35,2.07,17.82Zm-384.87-93.3v41.85c0,4.13,2.06,5.47,6.19,5.47,6.16,0,12.35-1.34,18.5-2.03,4.13-.69,6.19-3.44,6.19-7.57,2.76-26.06,3.44-52.13-4.12-78.23-1.38-2.03-2.07-4.09-5.47-4.09-4.82.68-9.63,0-14.41-1.38-6.19-.69-7.57,2.06-7.57,7.53.69,13.03.69,25.42.69,38.45Zm18.1,249.08c.69,32.26-2.06,62.45-4.81,92.65-2.03,16.47-.69,33.59-5.47,49.38-2.75,7.56-6.19,11.69-14.41,10.31-20.6-2.75-41.21-1.37-61.77,0-4.82,0-8.95-2.06-13.04,1.38-2.75,2.72-3.44-2.06-6.19-2.75-11.66-1.38-17.16-8.26-17.16-19.91,0-10.28-1.38-21.25.68-30.88,4.13-21.26.69-43.23,4.82-65.17,1.37-7.57,2.06-16.47.69-24.04-2.76-24,1.37-47.35,0-71.36-1.38-37.07-2.07-73.42-2.76-110.49,0-26.07-.68-52.13-2.75-77.51-1.37-24.04,2.75-48.04,2.75-72.08,0-11.66-2.75-22.63-2.75-33.6,0-8.26-2.06-16.47,1.38-24.04,2.06-4.09,1.37-8.22,2.75-13.03,3.44-10.28,13.72-19.23,24.7-18.54,4.81.69,10.32-.69,15.09-.69,7.57-.65,15.1,0,22.67.69,20.57.69,41.86,0,62.46-4.09,8.91-1.38,19.19-.69,28.83.69,10.28,1.37,20.56,1.37,30.88,4.09,24.01,6.88,45.99,17.16,59.02,41.2,11.66,21.25,13.73,43.91,17.13,65.85,4.82,28.13,4.13,56.26,3.44,84.43,0,3.4,0,6.84.69,9.59,2.75,8.91,2.75,17.85.69,26.76-2.07,9.59-2.76,19.91-4.82,29.5-2.03,12.35-8.22,22.67-18.5,30.88-8.26,6.88-15.79,15.79-26.76,19.23-2.75,1.37-3.44,2.75-2.07,5.47,1.38,2.75,2.72,6.19,4.78,9.63,6.2,11.65,8.95,23.31,11.01,36.34,3.4,19.23,8.91,37.76,14.41,56.3,4.78,14.41,6.16,28.82,7.53,42.54,3.44,21.94,4.13,43.23,8.95,64.48,2.71,11.69,4.78,23.35-.69,35.01-2.06,4.81-4.82,7.56-10.32,6.19-4.78-1.38-8.91,2.03-13.04,1.37-10.28-2.06-20.56,2.03-29.51.66-8.22-2.03-17.85,4.12-24.69-3.41-7.57,4.09-14.41.69-21.29,0-13.04-.69-12.35-.69-14.41-13.72-3.44-15.78-6.85-31.57-10.97-46.66-6.2-22.67-10.98-45.3-10.98-68.65-.68-7.53-1.37-15.09-6.19-24Zm-438.67-292.31c-15.79,0-31.58,3.41-47.36.69-21.26-3.44-24.7-6.88-29.51-26.79-4.1-15.78-4.1-31.57-.69-47.35,1.37-4.1,0-9.6.69-13.73,2.06-13.03,8.25-18.5,26.79-18.5,21.26-.68,42.55-4.12,63.8-4.12,32.26-.69,64.53-4.82,96.79-4.13,32.95,1.38,65.86,1.38,98.81,1.38,13.73,0,28.14-2.07,41.86,4.12,3.44,2.07,4.13,2.75,4.13,6.85.69,8.94-.69,17.16.69,26.1.69,1.37,2.06,2.03.69,3.4-7.54,11.01-1.38,24.04-5.51,35.01-.69,1.38-.69,3.44.69,4.13,6.88,4.09,2.75,10.28,2.75,15.09,0,10.97-8.22,12.35-15.79,14.41-8.9,2.07-17.16,2.75-26.07,2.75-13.72-.68-27.44,0-41.17.69-6.19,0-11.66.69-17.16,0-12.35,0-13.03,0-13.03,11.66.68,17.16,0,34.28,2.06,51.45,1.38,13.72,1.38,27.44-.69,41.2-2.75,20.56-2.06,41.85-2.06,62.41,0,24.73-2.07,48.73-5.51,73.42-1.37,11.69,2.07,23.35,2.76,35.01.68,18.54,0,37.07.68,56.26,0,6.88.69,13.03,1.38,19.91,3.44,26.76.69,53.51-2.75,79.61-.69,8.22-7.53,15.1-17.17,15.79l-24,2.03c-10.29,1.37-19.92-2.72-30.2-2.03-4.13,0-8.26-.69-12.35,0-9.63.69-19.23-2.75-27.44-6.88-2.07-1.38-2.76-6.19-2.76-8.91-.68-16.47-4.81-32.94-3.44-49.41,3.44-32.26,2.07-64.52,4.13-96.78,1.38-17.12-1.37-34.28,0-51.44,1.38-25.38-1.37-50.11.69-75.49v-2.06c-6.19-28.82.69-57.64-4.13-85.77-4.13-19.91,0-39.13,2.75-59.01,1.38-10.28.69-10.97-10.32-10.97h-13.03Zm-308.18,275.84c-1.37,0-1.37.69-1.37,1.37s0,2.07,1.37,1.38c0-.69.69-1.38.69-2.06l-.69-.69Zm-22.66-69.98c0-.69-.69-1.38-1.38-2.07-1.38,0-.69,1.38-1.38,2.07,0,.68.69,2.06,1.38,2.06,1.38,0,1.38-1.38,1.38-2.06Zm156.49-28.82c0,.69.69,1.37,1.38,2.06v-2.06c0-.69,0-1.38-.69-1.38-1.38-.69-1.38.69-.69,1.38Zm-157.18-4.13c-1.38,0-2.07.69-2.07,2.06,0,.69,0,2.07,1.38,1.38.69,0,1.38-1.38,2.06-2.06,0,0-.68-1.38-1.37-1.38Zm22.66-.69c2.07-1.37,2.76-3.44,1.38-6.19-.69,2.07-2.75,3.44-1.38,6.19Zm-24.04-16.47c-.69,2.75-.69,4.82.69,6.88.69-2.75,2.06-4.13-.69-6.88Zm7.32-53.51c-1.38,2.07-1.38,4.09,0,6.16,1.37-2.07,1.37-4.09,0-6.16Zm-86.36-73.42c-1.38,2.03-1.38,3.4,0,5.47,1.37-2.07,0-3.44,0-5.47Zm105.15,126.24c2.03,1.38,1.37,3.44,1.37,4.82.66,19.22,1.34,37.72,1.34,56.26v97.46c0,2.03-.68,5.46,2.07,6.15,3.44,2.07,2.75-2.06,4.13-3.44,1.37-.68,2.75-.68,4.12-.68,8.91-2.03,17.17-4.1,26.07-4.78,7.54,0,9.6-4.82,9.6-9.63,0-19.88,4.13-39.1,3.44-58.33-1.38-34.97-2.06-69.98-2.06-104.99,0-12.34-1.38-24.69-2.76-37.03-2.02-18.54-8.22-36.39-4.09-54.93,2.75-13.72-4.81-24-11.01-34.97-1.34-2.75-4.09-4.13-6.15-4.81l-21.98-2.07c-2.72,0-3.4,1.38-4.09,4.82,0,10.97-2.07,21.94-.69,33.63,1.38,10.97,2.72,22.63-.69,34.29,0,1.37-.69,2.75,0,4.12,6.16,9.6,2.75,19.23,2.07,29.51-.69,7.57-3.44,15.1.68,23.35.66.69.66,3.4,0,4.78-4.12,5.5-2.06,11.01-1.37,16.47-2.07,1.38-2.07,2.75,0,4.13.69-1.38.69-2.75,0-4.13Zm-115.33-179.78c-4.78,5.5-1.37,13.03-7.53,16.47,2.06-18.54.69-35.7.69-53.51,0-11.01,0-21.98,2.75-32.95,2.03-10.28,10.97-13.72,19.88-14.4,27.45-2.76,54.24-10.29,81.69-7.57,21.25,2.75,41.85.69,62.46,0,26.07-.69,50.08,4.81,72.05,17.85,16.48,9.63,27.45,25.38,34.33,43.22l10.28,28.82c10.29,24.73,20.57,50.11,18.54,78.24-1.37,11.66-1.37,23.35,0,35.01,5.47,56.26,2.72,113.21,2.72,169.47-.69,35.69-4.78,71.39-13.72,105.67-3.41,13.72-11.66,24.04-20.57,35.01-15.1,18.54-32.95,31.57-54.93,40.48-13.04,5.5-26.07,8.94-39.79,8.94-28.83,1.38-56.96,3.4-85.1,3.4-20.6-.68-41.17-1.34-61.08,0-7.57,0-13.04-4.09-19.92-5.46-3.44-.69-4.81-4.82-4.12-7.57,2.75-23.31-1.34-46.67-.69-70.67.69-15.1-1.34-30.88-2.72-46.67-.69-7.53,1.38-15.78,1.38-24-2.75-43.23-.69-86.45-2.75-129.03-1.38-19.19-2.07-37.72-1.38-56.95.69-18.53,1.38-37.72,0-56.94-1.38-13.73,1.38-28.13,2.06-41.86,0-2.06,0-4.81,3.41-3.43,2.06,1.37,2.06-.69,2.06-1.38,0-1.38,0-2.06-2.06-2.75-6.16-1.38-6.16-3.41-2.03-8.22,4.09-4.82,4.78-11.66,4.09-19.22Zm-388.99,434.37c-1.34-19.23-3.41-40.48-3.41-61.08,0-21.94-2.06-43.23-4.12-65.17-1.38-13.75,0-26.79,2.75-40.51.69-2.06.69-5.46.69-7.53-2.76-38.45,3.43-76.17,2.06-114.62-.69-24.69-1.38-50.07-3.44-74.8-1.38-13.72,0-26.75,2.75-39.78,2.06-15.1,2.06-31.57-.69-46.67-2.06-18.54-2.75-37.04.69-55.57,1.38-6.88,6.16-9.6,10.28-9.6,8.91.69,15.79-3.43,24.01-6.19,8.26-2.06,17.16.69,25.42-.68,4.78-1.38,15.1,0,26.07-.69,10.97-.69,22.63,0,34.33,1.37,2.71.69,6.84,2.76,7.53,7.57,4.81,22.63,8.94,45.25,4.81,68.61-1.37,8.21-2.06,17.16-.68,25.37,1.37,10.32.68,21.29-1.38,32.26-4.13,21.98,0,43.23,2.75,65.2,3.44,30.2,4.09,59.7,1.38,89.9-1.38,21.94,0,44.6-1.38,66.54-.69,17.16-2.06,34.32-2.75,50.79-.69,15.79,6.84,24.01,21.94,23.32,22.67-.69,44.61,1.37,66.59-2.06,5.51-1.38,10.29.68,15.79,1.37,15.79.69,31.57-.69,47.36-2.06,10.28-1.34,19.88,0,29.51,4.81,3.44,2.75,8.22,3.44,13.04,1.38,4.12-2.07,9.59,1.37,10.28,4.81,1.38,10.28,5.5,20.57,7.57,30.88,2.75,16.48,2.06,25.38-2.07,41.86-3.44,13.03-3.44,26.06-7.56,39.1-.69,4.12-1.38,6.19-6.16,5.5-12.35-1.38-25.42,1.37-37.77,3.44-16.47,3.4-33.6,2.71-50.07,0-13.04-2.07-26.11-1.38-39.15-.69-30.88,1.38-61.77-4.13-91.97-4.13-20.56.69-41.17,0-61.73,0-8.26.69-15.1-.68-22.67-3.44-2.06-1.37-4.82-2.06-6.16-2.75-4.12-2.06-9.63,2.07-12.38-2.71-2.72-4.82-2.72-11.7-2.72-17.16,0-2.07,0-3.44.66-6.19Zm-268.93-190.07h44.61c2.72,0,4.78-.69,4.09-4.13-1.38-8.22-.69-17.85-3.4-25.38-7.57-23.35-10.32-47.35-11.7-72.04-.69-5.51-.69-11.7-4.78-18.54-10.32,41.16-12.35,81.64-28.82,120.09Zm131.19-120.78c.69-1.37,1.38-2.06,1.38-3.44.69-1.37-.69-2.06-2.06-1.37-.69,0-.69,1.37-.69,2.75,0,.69.69,1.37,1.38,2.06Zm-2.06-6.88c2.06-6.15,0-8.9-2.75-12.34l2.75,12.34Zm-218.63-80.26c2.75-2.75,2.75-4.13,1.38-6.19-2.06,1.38-1.38,3.44-1.38,6.19Zm4.13-17.85c2.06-2.06,4.13-3.44,2.06-6.19-1.38,1.38-2.75,2.75-2.06,6.19Zm258.32,448.78c-2.06-7.57-4.82-7.57-8.91-3.44-3.44,4.13-6.88,9.6-13.72,4.13-.69-.69-6.88.69-10.32,1.37-8.22,2.07-17.16,5.47-25.38,4.1-8.91-1.34-17.85-4.1-26.76-6.85-2.75-.68-2.75-3.44-3.44-6.19-10.28-31.57-10.97-64.48-17.16-96.73-.69-4.13-1.38-4.82-4.82-5.51-19.88-.68-39.79-2.06-59.71-3.44-8.22-.68-17.13-2.02-26.07-3.4-3.44,0-5.47.69-6.16,5.47-5.5,21.29-10.32,41.85-18.54,62.45-4.13,10.28-4.13,22.66-8.94,33.63-3.4,7.53-10.97,10.28-19.19,11.66-9.63,1.38-19.23-3.44-28.14-1.38-7.57,2.07-13.72,2.76-20.6.69-8.91-2.75-15.79,4.82-24.01,3.44-8.26-1.37-15.79,1.38-23.36,1.38-6.16-.69-11.66-13.72-10.28-19.23,2.06-10.97,4.82-21.25,7.53-32.25,1.38-5.47,7.57-8.91,8.94-15.1,3.44-13.04,7.53-25.38,10.28-37.73.69-4.81-2.75-10.97,0-15.78,10.97-18.54,13.03-39.79,21.98-59.01,2.72-5.51,7.53-12.35,2.03-20.6-1.34-1.38.69-6.84,2.06-10.28,7.57-13.72,11.7-28.82,15.1-43.23,2.06-6.88,0-15.1,2.75-21.98,5.5-13.03,5.5-26.75,8.94-40.47,3.4-13.72,8.22-27.44,10.28-41.17,3.44-19.22,8.91-37.76,14.41-56.29.69-2.03-.69-5.47,4.13-4.78,2.72.69,3.4-2.06-.69-6.19-1.38-.69-.69-2.07,0-2.75.69-4.78,1.38-9.6,2.72-14.41,0-2.03,0-6.16,4.13-2.03,1.38,1.34,2.06-2.75,1.38-3.44-7.53-7.57-.69-15.1,1.38-20.6,11.66-21.94,19.23-45.98,28.82-68.6,2.75-5.51,1.38-12.35,6.88-17.16,2.03-2.07,4.78-5.51,7.53-5.51,10.97-.69,21.98-2.75,33.64.69,2.75.69,5.47.69,8.22-.69,5.5-3.44,11.01,2.75,17.85.69,6.19-2.06,13.72-2.75,21.29-1.38,5.47,1.38,10.97,5.51,17.82,2.76,2.06-.69,6.88,2.75,8.26,7.56,2.75,7.53,6.19,15.1,13.04,19.88,5.5,4.13,3.44,10.32,6.19,15.09,9.6,19.23,13.72,40.52,20.57,61.08,8.26,24.69,11.66,49.42,15.79,74.8,4.82,24.69,10.97,49.41,15.79,74.79,1.38,7.57,0,16.48,3.44,23.35,4.82,9.6,6.19,19.19,3.44,29.51-1.38,5.47,4.09,5.47,5.47,9.59,6.19,26.07,6.19,52.14,13.72,78.24,5.5,15.79,6.88,33.6,10.32,50.07s7.53,32.26,9.6,48.73c1.37,15.1,6.19,30.19,3.44,45.29-3.44,15.79-11.66,20.6-25.39,12.35-6.88-4.13-6.88-.69-7.57,4.81Zm-611.5-150.97c-25.38,41.85-24.01,86.46-48.74,129-2.75-1.38-4.78,7.56-6.16,5.5-4.82,6.19-6.19,0-9.63,6.88-1.38,4.09-4.78,5.46-8.91,7.53-9.6,4.12-43.23,6.19-54.2,8.22-6.88.68-14.41,1.37-21.98-2.72-4.13-2.06-9.6-4.13-15.79-1.38-5.5,2.07-11.66.69-16.48-4.81-10.97-10.97-16.47-24-19.23-38.41-4.09-20.6-10.28-41.2-13.04-61.77-2.72-25.41-8.22-50.1-14.41-74.1-4.09-19.23-9.59-37.76-14.41-56.95-6.84-32.26-13.72-64.52-17.16-98.15-1.34-15.1.69-8.91-2.03-24-.69-24.04-12.38-45.98-15.79-70.02,0-2.03-.69-4.09-.69-6.16,3.4-15.09,1.38-28.81-1.38-42.53-4.13-18.54-2.06-37.77-4.13-56.95-.69-6.88,6.19-13.07,15.1-13.76,14.41-.69,28.13-4.09,41.86-7.53,10.97-2.06,31.57-4.13,43.23-3.44,24.04,0,32.95,8.25,38.45,19.91,8.22,19.91,6.84,40.48,10.97,60.39,2.06,11.66,3.44,22.63,4.13,33.63,5.47,12.35,6.16,25.38,8.91,38.41,2.06,10.97,4.13,22.63,2.75,34.33,7.53,28.13,6.88,34.97,7.53,65.16.69,17.85,2.06,24.04,2.75,41.85,1.38,6.19,0,2.07,2.06,6.19,3.44,0,.69,3.44,4.13-2.06,6.84-14.41,3.44-4.78,8.22-19.88,4.82-14.4,8.94-28.85,13.72-43.26,1.38-4.09,2.75-8.22,6.88-10.28,4.13-2.75,3.44-8.22,4.13-11.66,2.06-7.56,6.16-12.34,9.6-19.22,3.44-5.47,5.5-10.97,6.88-17.16,2.03-8.91,4.09-9.6,13.72-9.6,4.09-.68,6.84-4.12,12.35-4.12,23.32-1.38,39.11-2.07,61.77,0,4.09.68,6.15,4.81,10.97,4.81,18.54,0,19.23,0,23.32,19.23,2.06,7.53,9.63,28.81,12.38,36.34,5.47,21.29,6.84,48.73,13.72,70.67,2.03-6.15,4.09-18.5,4.78-24.69,0-15.09,4.82-30.19,9.63-40.47,7.53-15.79,9.6-32.26,13.04-49.42,0-2.75.69-5.47,2.06-7.53,12.35-24.73,6.84-45.29,15.79-71.39,5.47-15.75,4.09-32.23,12.35-46.63,6.16-9.64,9.6-19.23,13.04-29.51,4.13-15.1,24.7-20.6,39.11-19.91,10.32,0,20.6,1.37,30.89-1.38,4.13-.69,4.13,4.13,7.57,3.44,7.53-.69,14.41,1.38,21.94,1.38,6.19-.69,10.97,2.06,15.79,6.84,2.75,2.75,6.88,3.44,7.57,8.25,1.38,12.35,10.28,24.01,7.53,37.04-4.82,11.66-5.5,23.35-10.97,34.32-10.28,20.6-13.72,42.54-17.16,56.26-.69,2.06-.69,4.13-2.06,6.19-10.28,19.19-8.22,40.48-9.6,61.08-2.75,11.65-2.75,24.69-6.88,35.66-3.44,5.5-3.44,12.34-4.78,19.22-3.44,13.03-9.63,25.38-14.41,37.73-3.44,11-5.5,22.66-8.26,33.63-4.13,21.29-11.66,41.85-18.54,61.76-4.09,14.41-5.47,28.82-6.84,43.23-1.38,7.57-4.82,14.41-9.63,19.91-6.84,7.53-10.28,17.16-13.04,26.76-2.72,12.34-8.22,24-12.35,36.38-4.13,11.66-13.72,17.81-26.07,17.81h-14.41c-5.5,0-11.66,0-15.79,4.82-2.75,2.75-6.88,2.75-10.28,1.37-9.63-3.44-18.54-5.5-28.82-3.44-8.94.69-17.85-3.44-25.42-7.53-4.09-2.06-3.44-7.56-4.09-11.69-2.06-13.03-8.26-24.69-13.07-37.04-6.15-15.09-13.03-30.19-17.82-45.29-4.82-14.41-7.57-29.5-6.19-45.29Z"/></g><g class="cls-8"><path class="cls-3" d="m3983.12,965.59l198.68-164.26-23.54-28.46-70.03,57.89-.47-.54c2.03-7.02,2.5-13.76,1.42-20.2-1.13-6.44-3.99-12.45-8.59-18.03-5.86-7.06-11.44-11.37-16.8-12.89-10.93-3.8-21.54-2.39-31.75,4.16-5.29,3.48-13.07,9.41-23.28,17.85l-53.88,44.53c-7.79,6.48-13.73,11.98-17.78,16.58-4.02,4.6-6.92,9.05-8.69,13.32-5.11,12.02-2.72,24,7.13,35.91,2.93,3.51,5.83,6.3,8.73,8.29,2.89,1.99,5.83,3.44,8.83,4.42,3.01.98,6.09,1.56,9.24,1.77,3.15.22,6.51.4,10.1.58l-12.86,10.61,23.54,28.46Zm51.13-137.61c4.45-3.69,9.16-5.94,14.12-6.77,4.96-.8,9.67,1.48,14.16,6.88,3.36,4.09,4.74,8.69,4.09,13.76-.65,5.07-3.22,9.45-7.68,13.14l-54.96,45.47c-5.22,4.31-10.54,6.48-15.94,6.59-5.43.07-9.88-2.03-13.43-6.3-3.98-4.82-5.14-9.81-3.48-14.99,1.71-5.14,5.44-10.1,11.19-14.88l51.93-42.9Zm-133.36-33.16c-7.97,7.35-13.51,14.23-16.69,20.6-3.15,6.37-4.42,12.56-3.77,18.57.43,6.16,2.46,12.16,6.08,18.03,3.59,5.87,8.26,11.88,14.02,18.1l25.52-23.61c-4.23-5.65-6.26-10.24-6.12-13.83.15-3.58,2.76-7.75,7.9-12.49l151.28-139.85-25.09-27.12-153.13,141.59Zm-42.15-50.21c-5.25,5.32-10.57,8.22-15.97,8.69-5.36.47-10.28-1.52-14.73-5.9-4.31-4.27-6.12-9.12-5.47-14.55.65-5.5,3.4-10.72,8.33-15.68,6.95-7.06,13.76-9.92,20.42-8.58,6.66,1.3,12.85,4.78,18.5,10.35,1.92,1.88,4.06,4.49,6.48,7.89l-17.56,17.78Zm-11.62,64.33l89.8-90.94c6.77-6.88,11.69-13.9,14.7-21.07,3.04-7.2,4.52-14.19,4.49-21.03-.22-6.99-1.89-13.72-5-20.2-3.11-6.45-7.42-12.42-12.93-17.81-6.01-5.94-12.42-10.32-19.15-13.07-6.77-2.79-13.58-4.13-20.39-4.09-14.34.07-27.62,5.65-39.83,16.65l25.49,25.16c5.11-3.44,10.18-4.89,15.21-4.31,5.04.54,9.27,2.53,12.71,5.94,5,4.89,6.99,9.74,6.01,14.55-1.01,4.78-3.69,9.38-8.11,13.87l-13.47,13.65c-1.23-1.52-2.42-2.9-3.62-4.09-1.19-1.16-2.17-2.28-2.86-3.3-.69-1.01-1.52-2.03-2.57-3.04-1.01-1.01-1.96-1.96-2.82-2.82-8.26-8.11-15.94-13.94-23.03-17.38-7.1-3.44-13.98-4.89-20.64-4.34-6.99.58-13.87,3.04-20.57,7.42-6.7,4.42-13.72,10.32-21,17.67-7.13,7.24-12.02,14.01-14.74,20.35-2.68,6.34-3.76,12.13-3.18,17.41.36,5.47,1.66,10.25,3.91,14.3,2.24,4.09,4.92,7.67,8,10.72,6.37,6.26,12.56,9.85,18.65,10.75,6.04.9,13.18.65,21.36-.76l.51.51-13.22,13.4,26.29,25.92Zm-1.88-255.38l-88.65,75.09-.57-.47,56.16-101.15-22.6-18.14-87.48,75.99-.58-.43,53.92-103-30.49-24.47-81.07,170.34,25.41,20.38,84.05-72.26.58.47-52.44,97.64,25.42,20.42,148.82-115.92-30.48-24.47Zm-242.97,42.54l19.63-28.67-49.36-33.71,116.78-64.95,16.55-24.18-80.13-54.78-18.4,26.9,45.44,31.06-117.97,66.72-16.54,24.22,84,57.38Zm-133.25-86.13l53.7-94.82c3.66-6.52,7.82-11.37,12.42-14.59,4.6-3.22,9.34-5.25,14.27-6.08,4.67-.94,9.3-.9,13.83.14,4.56,1.05,8.51,2.5,11.87,4.42,3.34,1.88,6.27,4.38,8.69,7.42l19.27-34.03c-9.24-5.25-17.96-7.96-26.18-8.15-8.18-.22-17.24.76-27.05,2.97l9.63-17.02-32.15-18.17-90.45,159.73,32.15,18.17Zm-66.99-97.86c-3.25,6.73-7.31,11.19-12.27,13.39-4.92,2.17-10.21,1.92-15.86-.8-5.47-2.61-8.76-6.62-9.92-11.98-1.16-5.39-.25-11.22,2.79-17.52,4.27-8.94,9.77-13.87,16.51-14.77,6.73-.94,13.69.33,20.89,3.76,2.39,1.16,5.29,2.93,8.65,5.39l-10.79,22.52Zm9.96,64.59l55.29-115.24c4.17-8.69,6.52-16.94,7.03-24.73.54-7.75-.36-14.88-2.61-21.32-2.5-6.55-6.26-12.35-11.3-17.45-5.07-5.1-11.04-9.34-18.03-12.67-7.6-3.66-15.06-5.68-22.38-6.12-7.27-.4-14.15.51-20.6,2.79-13.5,4.74-24.26,14.3-32.22,28.71l32.33,15.49c3.69-4.92,8-7.93,12.96-9.05,4.93-1.09,9.6-.62,13.94,1.48,6.3,3.01,9.78,6.95,10.4,11.8.61,4.85-.44,10.1-3.15,15.75l-8.3,17.3c-1.63-1.05-3.22-1.95-4.74-2.68-1.52-.72-2.75-1.45-3.77-2.21-.97-.72-2.1-1.41-3.4-2.03-1.3-.62-2.53-1.19-3.62-1.74-10.43-5-19.59-8-27.41-8.94-7.86-.94-14.85-.07-20.93,2.61-6.44,2.82-12.13,7.39-17.02,13.72-4.92,6.37-9.63,14.19-14.12,23.57-4.38,9.12-6.81,17.12-7.31,24-.47,6.84.39,12.71,2.64,17.52,2.14,5.03,4.92,9.12,8.36,12.24,3.48,3.15,7.17,5.65,11.08,7.53,8.04,3.84,15.1,5.21,21.11,4.09,6.05-1.12,12.68-3.69,19.96-7.67l.65.29-8.15,16.98,33.31,15.97Zm-83.75-240.68l-59.96,99.49-.69-.25,20.89-113.82-27.19-9.96-58.62,99.99-.69-.25,18.14-114.8-36.72-13.47-22.34,187.32,30.6,11.19,56.52-95.32.69.25-18.47,109.3,30.6,11.19,103.96-157.38-36.72-13.47Zm-297.78,98.44l30.56-119.62c2.02-7.93,4.85-13.68,8.51-17.23,3.65-3.58,8.87-4.49,15.64-2.75,5.61,1.45,9.45,4.42,11.55,8.94,2.1,4.53,2.28,10.03.61,16.58l-31.43,123.13,35.78,9.12,34.87-136.45c2.03-7.93,2.68-14.92,1.99-20.96-.72-6.05-2.39-11.26-5-15.64-2.6-4.42-5.93-7.93-9.99-10.61-4.06-2.64-8.29-4.56-12.75-5.68-8.18-2.1-15.38-1.99-21.58.29-6.15,2.28-11.84,5.76-17.01,10.43l-.73-.18,22.78-89.1-35.81-9.16-63.77,249.77,35.78,9.12Zm-109.61-150.53c1.01-6.92,3.37-11.88,7.1-14.88,3.73-3,8.36-4.09,13.87-3.29,5.46.83,9.59,3.19,12.31,7.13,2.71,3.91,3.51,9.59,2.42,16.98l36.57,5.36c2.5-17.2-.21-31.86-8.22-43.99-4.01-5.72-9.23-10.5-15.64-14.37-6.37-3.87-13.76-6.41-22.12-7.64-11.44-1.67-21.55-.72-30.24,2.9-8.69,3.62-15.78,9.01-21.21,16.29-3.34,4.38-5.94,9.63-7.79,15.68-1.88,6.08-3.37,12.82-4.45,20.2l-8.73,59.85c-1.09,7.38-1.63,14.26-1.56,20.64.04,6.34,1.02,12.09,2.94,17.23,3.15,8.51,8.36,15.75,15.67,21.69,7.32,5.97,16.7,9.78,28.18,11.44,8.32,1.23,16.07.9,23.17-.98,7.1-1.88,13.43-5,18.94-9.3,11.22-8.36,17.99-20.53,20.35-36.53l-36.54-5.36c-1.08,3.98-3.04,7.86-5.9,11.59-2.86,3.73-7.75,5.07-14.7,4.05-5.47-.8-9.63-3.01-12.39-6.55-2.78-3.58-3.72-8.25-2.89-13.97l10.86-74.14Zm-71.19-84.97c.98-14.95-3.69-28.56-14.01-40.84-5.18-5.9-11.44-10.79-18.79-14.66-7.39-3.87-15.64-6.12-24.81-6.73-10.82-.72-20.27.54-28.35,3.77-8.07,3.22-14.84,7.78-20.31,13.68-5.72,5.94-10.18,13.14-13.4,21.61-3.22,8.51-5.18,17.56-5.79,27.19-1.09,16.15.76,29.76,5.47,40.84,4.7,11.08,14.81,20.38,30.27,27.95l25.63,12.56c4.46,2.25,8.01,4.27,10.68,6.15,2.65,1.88,4.75,4.16,6.27,6.95,1.27,2.75,1.99,6.3,2.17,10.64.22,4.38.07,9.92-.36,16.69-.4,5.76-.91,11.01-1.59,15.68-.66,4.67-2.07,8.62-4.24,11.88-2.14,3.22-5.03,5.65-8.62,7.2-3.62,1.59-8.54,2.17-14.81,1.77-9.41-.65-15.89-3.8-19.51-9.49-3.63-5.65-5.22-11.88-4.78-18.61l.76-11.58-36.83-2.43-.9,13.72c-.58,8.69.5,16.8,3.29,24.36,2.75,7.57,6.7,14.3,11.88,20.2s11.51,10.68,19.04,14.3c7.5,3.66,15.68,5.76,24.59,6.34,11.8.8,21.94-.47,30.38-3.8,8.44-3.3,15.42-8.15,20.93-14.55,5.25-6.19,9.27-13.87,12.06-22.99,2.75-9.12,4.52-19.12,5.21-29.94.65-9.41.69-17.81.22-25.2-.47-7.42-1.85-14.08-4.09-20.06-2.54-5.72-6.2-10.86-10.98-15.42-4.77-4.52-11.15-8.65-19.15-12.31l-27.45-13.07c-4.67-2.24-8.36-4.42-10.97-6.55-2.64-2.1-4.6-4.53-5.9-7.28-1.27-2.72-1.96-5.79-2.1-9.2-.14-3.4-.04-7.64.29-12.67.29-4.35.94-8.47,1.92-12.42.98-3.91,2.53-7.39,4.67-10.39,2.14-2.75,4.82-5,8.07-6.7,3.26-1.74,7.43-2.43,12.46-2.1,9.41.62,15.9,4.13,19.44,10.54,3.59,6.41,5.07,13.83,4.53,22.26l-.54,8.29,36.86,2.43,1.19-18.03Zm-382.94,200.17l-8.3-123.17c-.54-8.18.37-14.55,2.72-19.04,2.35-4.53,7.02-7.02,14.01-7.49,5.8-.36,10.39,1.27,13.76,4.89,3.4,3.66,5.32,8.83,5.76,15.6l8.51,126.78,36.86-2.5-8.26-123.16c-.54-8.18.37-14.55,2.72-19.04,2.35-4.52,7.02-7.02,14.01-7.49,5.76-.36,10.36,1.27,13.76,4.89,3.37,3.66,5.29,8.83,5.76,15.6l8.51,126.78,36.86-2.5-9.45-140.51c-.55-8.18-2.21-15.02-5-20.53-2.79-5.5-6.23-9.92-10.32-13.29-4.13-3.33-8.62-5.65-13.54-6.88-4.93-1.23-9.67-1.7-14.23-1.41-9.89.69-17.49,3.01-22.78,6.99-5.28,3.98-10.06,8.65-14.3,14.01-3.69-4.35-8.29-8.25-13.83-11.77-5.58-3.48-12.31-5-20.28-4.45-8.43.58-15.24,2.9-20.38,6.99-5.18,4.13-9.49,9.16-12.97,15.21l-.72.07-1.2-17.7-36.82,2.46,12.27,183.15,36.87-2.5Zm-108.09-208.17l-6.37-36.35-36.39,6.41,6.41,36.35,36.35-6.41Zm38.31,217.51l-31.83-180.76-36.39,6.41,31.83,180.76,36.39-6.41Zm-206.07,45.65l-34-118.67c-2.28-7.89-2.71-14.3-1.37-19.19,1.37-4.92,5.39-8.33,12.13-10.25,5.57-1.59,10.39-.98,14.48,1.88,4.09,2.82,7.06,7.49,8.91,14.01l35.01,122.15,35.52-10.17-38.81-135.4c-2.25-7.86-5.22-14.23-8.87-19.12-3.66-4.85-7.72-8.51-12.21-11.01-4.45-2.46-9.12-3.84-13.97-4.09-4.82-.22-9.45.29-13.87,1.56-8.11,2.32-14.27,6.01-18.47,11.12-4.2,5.1-7.35,10.97-9.45,17.6l-.69.18-4.88-17.05-35.53,10.17,50.59,176.46,35.48-10.17Zm-176.23-74.65c-2.42-6.59-2.75-12.06-.9-16.47,1.84-4.42,5.36-7.6,10.57-9.52,5.22-1.92,9.96-1.81,14.23.33,4.27,2.17,7.61,6.52,10.03,13.07l7.32,19.7-33.97,12.56-7.28-19.66Zm68.33-26.1c-5.72-15.39-14.99-26.5-27.81-33.34-6.3-3.08-13.18-4.78-20.64-5.1-7.42-.33-15.13,1.01-23.06,3.95-10.87,4.02-19.23,9.7-25.13,17.02-5.9,7.35-9.53,15.49-10.83,24.47-.8,5.47-.58,11.3.69,17.52,1.3,6.23,3.22,12.85,5.83,19.84l21,56.7c2.61,7.02,5.47,13.29,8.55,18.86,3.07,5.54,6.69,10.1,10.89,13.72,6.85,5.94,14.89,9.77,24.16,11.51,9.23,1.7,19.3.54,30.16-3.48,7.93-2.93,14.55-6.95,19.88-11.98,5.32-5.07,9.38-10.82,12.16-17.27,5.83-12.71,5.94-26.65.33-41.82l-34.65,12.85c.97,4.02,1.12,8.33.4,12.96-.73,4.67-4.39,8.18-10.94,10.64-5.21,1.92-9.88,1.99-14.05.18-4.13-1.81-7.2-5.43-9.23-10.86l-8.69-23.42,68.58-25.45-17.6-47.5Zm-205.74,92.28c-3.26-6.73-4.56-12.82-3.98-18.21.61-5.36,3.73-9.45,9.37-12.16,5-2.43,9.96-2.46,14.85-.14,4.89,2.32,8.8,6.52,11.73,12.6l31.11,64.19c2.53,5.21,3.04,10.28,1.52,15.17-1.52,4.89-4.67,8.51-9.45,10.83-6.3,3.04-11.55,3.15-15.72.36-4.16-2.82-7.53-6.81-10.06-12.02l-29.37-60.6Zm30.09,146.73c5.79,9.27,11.91,16.15,18.29,20.71,6.33,4.56,12.81,7.53,19.4,8.91,6.45,1.7,12.79,2.06,19.01,1.05,6.19-.98,11.81-2.72,16.8-5.14,8.69-4.2,15.5-9.3,20.35-15.28,4.89-5.97,8.26-12.38,10.07-19.15,1.92-6.55,2.39-13.14,1.45-19.8-.94-6.66-2.79-12.82-5.51-18.46l-89.83-185.36-33.24,16.07,7.24,14.99c-3.33-1.3-6.44-2.54-9.41-3.66-2.97-1.12-6.01-1.85-9.13-2.25-3.11-.32-6.37-.25-9.7.29-3.37.58-7.1,1.85-11.23,3.84-8.25,4.02-13.76,8.4-16.54,13.25-6.27,9.74-7.43,20.35-3.48,31.82,2.1,5.97,6.05,14.95,11.84,26.86l30.45,62.89c4.42,9.12,8.4,16.22,11.88,21.21,3.51,5,7.13,8.87,10.86,11.62,10.5,7.82,22.7,8.33,36.61,1.59,6.7-3.26,11.91-7.6,15.6-13,3.7-5.39,6.05-11.73,7.14-18.93l.65-.33,15.79,32.58c2.53,5.21,3.4,10.1,2.64,14.63-.76,4.53-3.84,8.07-9.27,10.72-5.65,2.75-10.79,3.08-15.42,1.01-4.6-2.06-7.97-4.96-10.07-8.8l-33.24,16.11Zm-100.77,35.3l-63.55-105.86c-4.23-7.02-6.33-13.11-6.3-18.18.07-5.1,3.08-9.45,9.09-13.03,4.96-3.01,9.78-3.62,14.45-1.96,4.7,1.7,8.76,5.47,12.24,11.26l65.43,108.94,31.64-19.01-72.49-120.74c-4.2-7.02-8.72-12.42-13.5-16.18-4.78-3.73-9.64-6.23-14.63-7.46-4.96-1.27-9.81-1.38-14.56-.36-4.74,1.01-9.09,2.72-13,5.07-7.24,4.34-12.24,9.52-14.95,15.53-2.75,6.01-4.27,12.49-4.6,19.44l-.62.36-9.12-15.2-31.68,19.01,94.47,157.38,31.68-19.01Zm-182.71-143.69l-20.97-30.41-30.41,20.93,20.93,30.45,30.45-20.96Zm125.21,181.92l-104.07-151.19-30.45,20.92,104.07,151.22,30.45-20.96Zm-114.28,85.8l-77.56-96.05c-5.14-6.37-8.04-12.09-8.72-17.16-.66-5.03,1.73-9.78,7.2-14.16,4.49-3.66,9.2-4.96,14.05-3.91,4.85,1.05,9.42,4.16,13.69,9.45l79.8,98.87,28.75-23.21-88.46-109.59c-5.17-6.37-10.39-11.08-15.64-14.15-5.25-3.04-10.43-4.82-15.5-5.36-5.1-.54-9.92,0-14.48,1.67-4.56,1.67-8.62,3.91-12.17,6.81-6.59,5.32-10.82,11.11-12.67,17.45-1.88,6.3-2.5,12.92-1.88,19.88l-.54.43-11.16-13.79-28.75,23.21,115.33,142.82,28.71-23.21Zm-199.87-119.76l-24.7-27.48-27.48,24.69,24.7,27.48,27.48-24.69Zm147.55,164.33l-122.64-136.56-27.48,24.66,122.64,136.6,27.48-24.69Zm-113.55,32.37c5.32,5.25,8.25,10.57,8.72,15.93.48,5.36-1.48,10.28-5.86,14.77-4.24,4.31-9.09,6.15-14.56,5.54-5.46-.65-10.68-3.4-15.68-8.29-7.09-6.95-9.95-13.72-8.65-20.42,1.27-6.66,4.71-12.82,10.28-18.54,1.89-1.88,4.49-4.05,7.9-6.48l17.85,17.49Zm64.38,11.4l-91.32-89.46c-6.88-6.73-13.94-11.62-21.15-14.63-7.17-3.01-14.19-4.45-21.03-4.42-6.99.25-13.73,1.96-20.17,5.07-6.45,3.15-12.39,7.49-17.78,13-5.94,6.05-10.25,12.45-13,19.22-2.75,6.77-4.09,13.54-4.02,20.38.14,14.34,5.76,27.59,16.8,39.75l25.09-25.6c-3.47-5.07-4.92-10.14-4.38-15.17.55-5.07,2.5-9.3,5.87-12.74,4.92-5,9.74-7.02,14.55-6.05,4.78.98,9.42,3.66,13.91,8.07l13.69,13.43c-1.53,1.19-2.86,2.39-4.06,3.62-1.16,1.2-2.28,2.14-3.29,2.82-1.02.72-2.03,1.56-3.05,2.61-1.01,1.05-1.95,1.99-2.78,2.86-8.12,8.25-13.87,15.96-17.31,23.06-3.44,7.13-4.85,14.01-4.28,20.67.58,6.99,3.08,13.83,7.5,20.53,4.42,6.7,10.36,13.68,17.78,20.93,7.24,7.09,14.01,11.98,20.35,14.66,6.37,2.64,12.16,3.69,17.45,3.15,5.47-.4,10.25-1.74,14.3-3.98,4.06-2.28,7.64-4.96,10.69-8.07,6.22-6.37,9.81-12.6,10.68-18.65.87-6.08.58-13.18-.87-21.36l.51-.54,13.47,13.18,25.85-26.36Zm-116.81,123.27l-82.12-71.65c-5.62-4.92-9.56-9.96-11.81-15.13-2.21-5.14-3.26-10.21-3.08-15.17.04-4.78,1.02-9.3,2.94-13.54,1.95-4.24,4.16-7.82,6.73-10.72,2.54-2.93,5.54-5.25,9.02-7.02l-29.48-25.74c-6.99,8-11.4,16-13.25,24-1.85,8-2.68,17.05-2.53,27.12l-14.71-12.85-24.29,27.8,138.28,120.74,24.3-27.84Zm-47.15,55.35l-175.36-137.83,26.4-33.56-27.3-21.51-75.64,96.23,27.33,21.47,26.4-33.6,175.36,137.83,22.81-29.04Z"/></g><g class="cls-7"><path class="cls-3" d="m2464.47,1357.81c.65.15,1.34.29,1.99.44,10.43,9.85,10.07,22.19,12.2,35.37,14.23,19.69,21.51-52.82,34.08-59.81,24,42.9-7.46,86.13-2.61,129.57,10.21-8.65,10.07-28.09,14.05-39.02.36,13.28-1.99,30.84,3.33,44.74.83.04,1.67.08,2.46.15,14.41-32.73,18.36-69.91,28.72-104.3.43.11.87.21,1.3.29-1.01,18.28-6.01,37.21-2.57,55.24.61.11,1.19.22,1.77.33,13.47-13.9,3.7-43.95,25.13-50.4v38.27c.65.04,1.34.11,2.03.15,5.97-16.4,7.28-34.04,11.8-52.14,2.97,7.86,3.7,15.79,7.61,21.51,5.76.32,3.29,9.27,5.83,13.32.76.04,1.52.07,2.32.11,13.65-20.85,12.38-79.83,29.4-89.93,13,138.41,14.77,277.39-6.01,415.07-1.38,12.31-3.15,8.84,7.89,13.87,9.96,2.53,9.09,17.45,21.36,16.58,21.62-2.21,48.23-18.14,44.43-43.63-7.53-119.07-12.2-237.53-22.56-356.56,2.39,2.64,3.81,4.2,6.34,6.98,4.09-19.66-1.67-38.16,1.77-56.51,17.39,27.19,19.74,62.7,32.23,92.61.69-.18,1.41-.33,2.1-.47-2.32-18.94-4.63-37.87-6.92-56.44,43.2,36.53,27.85,68.2,46.57,110.49,8.07-24.11-2.82-52.35-3.98-77.66,11.29,21.87,44.32,156.33,44.75,60.21,6.27,13.21,5.76,32.15,19.34,38.52.54-46.92-25.57-92.9-39.76-137.68,23.64-11.8,5.25-58.72-11.7-71.54,36.83,15.13,54.46,23.06,60.51,64.91,1.52,4.24,4.78,8.08,9.85,6.95,12.64-12.02-3.51-36.35-4.82-51.88l1.63-.87c13.51,16.8,64.67,105,66.77,39.54,2.54,7.78,31.54,40,29.69,16.62-14.05-31.03-39.07-55.03-58.73-82.62,7.82.47,12.93-2.1,16.62-9.38,15.79,67.81,38.89,62.06,18.4-3.87,15.24,14.84,66.26,105.28,67.64,39.24,3.91,7.32,28.13,37.33,30.95,19.34-9.41-25.31-29.25-44.5-42.8-67.85,38.24-1.16-77.52-79.43-89.47-82.4-10.39-2.86-20.57-6.62-31.79-4.6-6.7,1.24-8.73-1.15-9.88-8.07-5.11-36.89-25.17-6.19-22.13-55.1,15.68-.07,19.88,23.75,32.84,22.66,8.01-8.25-4.56-20.89-7.64-29.97,12.89,8.47,25.49,16.72,38.57,25.3v-18.75c23.21,21.68,47.1,38.63,77.3,48.55-24.91-35.08-66.04-56.66-102.29-77.91-32.22-9.56-70.17-12.2-82.27-49.49,19.52,6.8,38.89,13.61,58.3,20.38-41.42-38.59-133.47-57.53-122.21-128.6,3.41,10.97.98,23.57,9.17,33.63,3.76-11.44,7.38-22.34,10.97-33.27-4.28,16.65,8.8,26.9,13.07,42.72,6.84-14.12,6.55-26.25,3.51-41.34.54-.22,1.09-.47,1.67-.69,17.74,17.52,12.31,73.46,37.94,77.22.55-7.35,1.13-15.02,1.78-23.61,3.58,6.23,4.31,13.32,11.51,17.96,1.85-14.73-4.02-26.97-6.3-40.19,20.5,8.51,19.52,35.55,35.27,49.06.47-.33.94-.65,1.45-.98.51-12.85-4.78-24.69-7.53-37.98,13.94,10.79,29.54,17.38,36.79,34.25,4.81,7.57,9.45,18.61,19.19,20.24,1.55-9.67-6.59-18.17-9.67-27.19.58-.43,1.16-.91,1.74-1.34,14.15,11.51,24.4,35.77,45.04,34.32,16.11-4.45,1.16-15.68-6.84-20.16-40.63-32.18-76.3-67.99-104.29-111.8-16.87-26.43-52.17-18.54-48.91-57.85,9.88,8.87,18.61,16.69,27.59,24.76,3.98-3.4,7.75-6.59,12.02-10.21,6.59,14.48,10.32,30.52,27.7,35.95v-23.1c.51-.25,1.01-.51,1.48-.76,10.54,13.21,16.88,30.34,36,32.91-6.96-13.9-13.44-26.86-19.92-39.86,11.95,10.72,25.06,36.53,44.03,25.6-6.66-38.34-40.19-51.19-71.87-66.33-40.96-17.85-63.7-58.83-95.05-88.7-14.49-14.52-8.95-33.02-13.84-52.42,47.4,25.05,13.04,59.66,79.09,39.9-6.63-11.11-12.79-21.43-19.2-32.18,19.01,3.69,34.58,16.18,54.17,15.13-18.39-21.18-44.06-33.09-64.99-50.72-25.42-29.32-47.33-61.62-71.19-92.25-14.88-34.28-17.81-73.28-29.4-108.97-19.74,63.68-14.45,139.06-78.5,179.13-12.17,9.56-28.35,14.01-41.14,22.37-17.27,12.53-28.06,37.54-52.72,35.99-29.36,16.76,28.32,6.12,37.23,2.24-7.32,10.35-13.76,19.4-20.86,29.47,21.62-4.24,31.76-22.19,47.69-33.99-3.59,13.25-6.92,25.52-10.47,38.48,24.91-2.14,27.56-30.45,40.99-46.52,14.34,37.94,7.71,31.42,47.51,26.32-9.42,30.52-82.12,76.35-113.74,87.18-32.95,5.39-53.87,26.5-73.36,51.99-2.82,3.19-2.31,6.59-.03,8.94,11.37,6.41,19.41-9.05,27.92-15.46-4.89,10.72-13.44,18.57-13.8,29.61,22.09-1.52,28.39-28.53,51.6-30.95-5.9,13.9-11.19,26.28-16.84,39.53,23.25-3.87,28.06-28.75,45.26-40.66,13.54,8.54-3.55,22.55-5.72,33.81,14.99-14.81,29.22-24.69,50.98-24.22.22.58.44,1.16.66,1.74-8.37,11.88-19.59,22.3-19.23,36.6-16.4,16.65-37.44,19.66-58.15,27.84-17.82,5.54-33.93,19.73-51.96,22.34-17.42-10.17-69.13,7.06-29.15,20.06-19.19,13.68-46.57,33.2-45.95,58.21,15.57,5.5,21.8-15.82,32.84-24.8-.25,4.85.87,7.49,1.59,11.87,14.99-3.26,21.8-19.66,32.45-29.43.29.18.54.36.83.58-2.64,13.07-5.29,26.17-8.11,40.33,17.63-9.05,18.28-29.25,27.48-44.75.73.18,1.41.36,2.14.51v38.38c.58.07,1.16.18,1.74.25,4.49-12.27,8.98-24.58,13.68-37.47,3.52,24.98,19.12,29.29,19.66,1.12.87-8.47,11.34-11.04,17.24-17.09,5.18,10.43,10.07,20.31,15.17,30.63,4.78-12.67,22.96-50.4,36.21-29.65,1.56,2.79.07,5.58-3.22,7.06-14.41,6.48-22.49,18.39-27.85,32.62-1.08,5.28.8,9.77-6.12,10.9-50.8,18.28-106.41,35.23-146.21,73.17-6.41,11.08-65.25,66.69-39.61,68.9,7.64-2,11.62-7.97,14.77-14.59,3.62-9.96,15.21-14.27,22.63-21.4.26.22.51.43.8.61-4.42,13.91-8.84,27.77-13.25,41.67.47.26.9.51,1.34.77,20.02-17.02,20.82-47.25,44.72-58.76-.69,16.43-1.34,31.89-2.03,48.33,27.91-22.23,11.19-55.32,50.76-59.56,1.49,29.08-28.35,34.58-39.94,56.52-14.99,12.49-38.05,18.86-40.95,42.07-4.49,5.03-14.77,3.25-20.53,6.4-9.31,4.86-31.9,28.06-11.98,30.52-19.38,28.21-41.1,57.13-52.25,89.64,5.35,18.18,26.61-16.54,29.87-24.51-.51,9.24-2.25,19.23,7.39,23.75,29.72.66,35.3-49.7,56.26-66.83.08,15.86-11.11,38.7-.9,51.56,7.75-.19,10.97-8.11,12.09-14.78.36-40.33,24.05-44.09,52.61-64.26-1.91,13.25-6.48,26-4.63,39.65,94.83-170.49-3.3,76.75,100.52-93.19,23.93,4.13,49.24,15.02,14.26,31.28-13.39,4.74-5.14,21.65-16.4,27.73-3.55,1.85-4.78,4.38-5.87,7.82-3.47,15.31-20.06,20.78-30.09,31.21-13.9,12.49-35.84,14.04-39.93,35.37-12.57,25.3-51.1,16.72-65.11,43.48-16.44,22.95-34.11,44.85-56.27,62.74-8.62,4.05-27.44,47.39-10.75,40.73,18.25-11.01,28.6-29,39.54-46.56,5-6.15,13.03-.8,20.13-.54-13.98,20.2-34,37.58-40.73,61.72.54.4,1.05.84,1.55,1.27,34.4-13.9,44.32-55.75,76.62-69.8-5.25,20.24-20.17,39.72-16.84,60.61,11.95-4.02,15.47-20.5,20.14-30.2-.58,7.42-1.96,50.4,11.73,26,3.95-13.65,4.2-28.42,10.68-41.28Z"/></g></g></svg>